<!-- Generated by IcoMoon.io -->
<svg version="1.1" xmlns="http://www.w3.org/2000/svg" width="24" height="24" viewBox="0 0 24 24">
<title>anchor</title>
<path d="M12.857 3.429q0-0.348-0.254-0.603t-0.603-0.254-0.603 0.254-0.254 0.603 0.254 0.603 0.603 0.254 0.603-0.254 0.254-0.603zM24 15.857v4.714q0 0.295-0.268 0.402-0.107 0.027-0.161 0.027-0.174 0-0.308-0.121l-1.246-1.246q-1.594 1.915-4.266 3.033t-5.752 1.118-5.752-1.118-4.266-3.033l-1.246 1.246q-0.121 0.121-0.308 0.121-0.054 0-0.161-0.027-0.268-0.107-0.268-0.402v-4.714q0-0.188 0.121-0.308t0.308-0.121h4.714q0.295 0 0.402 0.268 0.107 0.254-0.094 0.469l-1.339 1.339q0.897 1.219 2.538 2.056t3.636 1.105v-8.665h-2.571q-0.348 0-0.603-0.254t-0.254-0.603v-1.714q0-0.348 0.254-0.603t0.603-0.254h2.571v-2.183q-0.777-0.455-1.246-1.239t-0.469-1.721q0-1.42 1.004-2.424t2.424-1.004 2.424 1.004 1.004 2.424q0 0.938-0.469 1.721t-1.246 1.239v2.183h2.571q0.348 0 0.603 0.254t0.254 0.603v1.714q0 0.348-0.254 0.603t-0.603 0.254h-2.571v8.665q1.996-0.268 3.636-1.105t2.538-2.056l-1.339-1.339q-0.201-0.214-0.094-0.469 0.107-0.268 0.402-0.268h4.714q0.188 0 0.308 0.121t0.121 0.308z"></path>
</svg>
