<!-- Generated by IcoMoon.io -->
<svg version="1.1" xmlns="http://www.w3.org/2000/svg" width="24" height="24" viewBox="0 0 24 24">
<title>archive</title>
<path d="M14.571 11.143q0-0.348-0.254-0.603t-0.603-0.254h-3.429q-0.348 0-0.603 0.254t-0.254 0.603 0.254 0.603 0.603 0.254h3.429q0.348 0 0.603-0.254t0.254-0.603zM22.286 8.571v12.857q0 0.348-0.254 0.603t-0.603 0.254h-18.857q-0.348 0-0.603-0.254t-0.254-0.603v-12.857q0-0.348 0.254-0.603t0.603-0.254h18.857q0.348 0 0.603 0.254t0.254 0.603zM23.143 2.571v3.429q0 0.348-0.254 0.603t-0.603 0.254h-20.571q-0.348 0-0.603-0.254t-0.254-0.603v-3.429q0-0.348 0.254-0.603t0.603-0.254h20.571q0.348 0 0.603 0.254t0.254 0.603z"></path>
</svg>
