<!-- Generated by IcoMoon.io -->
<svg version="1.1" xmlns="http://www.w3.org/2000/svg" width="24" height="24" viewBox="0 0 24 24">
<title>balance-scale</title>
<path d="M19.059 7.059l-4.235 7.765h8.471zM4.941 7.059l-4.235 7.765h8.471zM13.996 4.941q-0.154 0.441-0.502 0.789t-0.789 0.502v14.239h6.706q0.154 0 0.254 0.099t0.099 0.254v0.706q0 0.154-0.099 0.254t-0.254 0.099h-14.824q-0.154 0-0.254-0.099t-0.099-0.254v-0.706q0-0.154 0.099-0.254t0.254-0.099h6.706v-14.239q-0.441-0.154-0.789-0.502t-0.502-0.789h-5.415q-0.154 0-0.254-0.099t-0.099-0.254v-0.706q0-0.154 0.099-0.254t0.254-0.099h5.415q0.232-0.629 0.772-1.020t1.224-0.392 1.224 0.392 0.772 1.020h5.415q0.154 0 0.254 0.099t0.099 0.254v0.706q0 0.154-0.099 0.254t-0.254 0.099h-5.415zM12 5.118q0.364 0 0.623-0.259t0.259-0.623-0.259-0.623-0.623-0.259-0.623 0.259-0.259 0.623 0.259 0.623 0.623 0.259zM24 14.824q0 0.805-0.513 1.445t-1.296 1.004-1.594 0.546-1.539 0.182-1.539-0.182-1.594-0.546-1.296-1.004-0.513-1.445q0-0.121 0.386-0.893t1.015-1.925 1.18-2.156 1.125-2.029 0.618-1.103q0.199-0.364 0.618-0.364t0.618 0.364q0.044 0.077 0.618 1.103t1.125 2.029 1.18 2.156 1.015 1.925 0.386 0.893zM9.882 14.824q0 0.805-0.513 1.445t-1.296 1.004-1.594 0.546-1.539 0.182-1.539-0.182-1.594-0.546-1.296-1.004-0.513-1.445q0-0.121 0.386-0.893t1.015-1.925 1.18-2.156 1.125-2.029 0.618-1.103q0.199-0.364 0.618-0.364t0.618 0.364q0.044 0.077 0.618 1.103t1.125 2.029 1.18 2.156 1.015 1.925 0.386 0.893z"></path>
</svg>
