<!-- Generated by IcoMoon.io -->
<svg version="1.1" xmlns="http://www.w3.org/2000/svg" width="24" height="24" viewBox="0 0 24 24">
<title>briefcase</title>
<path d="M8.571 5.143h6.857v-1.714h-6.857v1.714zM24 13.714v6.429q0 0.884-0.629 1.513t-1.513 0.629h-19.714q-0.884 0-1.513-0.629t-0.629-1.513v-6.429h9v2.143q0 0.348 0.254 0.603t0.603 0.254h4.286q0.348 0 0.603-0.254t0.254-0.603v-2.143h9zM13.714 13.714v1.714h-3.429v-1.714h3.429zM24 7.286v5.143h-24v-5.143q0-0.884 0.629-1.513t1.513-0.629h4.714v-2.143q0-0.536 0.375-0.911t0.911-0.375h7.714q0.536 0 0.911 0.375t0.375 0.911v2.143h4.714q0.884 0 1.513 0.629t0.629 1.513z"></path>
</svg>
