<!-- Generated by IcoMoon.io -->
<svg version="1.1" xmlns="http://www.w3.org/2000/svg" width="24" height="24" viewBox="0 0 24 24">
<title>building-o</title>
<path d="M7.714 17.571v0.857q0 0.174-0.127 0.301t-0.301 0.127h-0.857q-0.174 0-0.301-0.127t-0.127-0.301v-0.857q0-0.174 0.127-0.301t0.301-0.127h0.857q0.174 0 0.301 0.127t0.127 0.301zM7.714 14.143v0.857q0 0.174-0.127 0.301t-0.301 0.127h-0.857q-0.174 0-0.301-0.127t-0.127-0.301v-0.857q0-0.174 0.127-0.301t0.301-0.127h0.857q0.174 0 0.301 0.127t0.127 0.301zM11.143 14.143v0.857q0 0.174-0.127 0.301t-0.301 0.127h-0.857q-0.174 0-0.301-0.127t-0.127-0.301v-0.857q0-0.174 0.127-0.301t0.301-0.127h0.857q0.174 0 0.301 0.127t0.127 0.301zM7.714 10.714v0.857q0 0.174-0.127 0.301t-0.301 0.127h-0.857q-0.174 0-0.301-0.127t-0.127-0.301v-0.857q0-0.174 0.127-0.301t0.301-0.127h0.857q0.174 0 0.301 0.127t0.127 0.301zM18 17.571v0.857q0 0.174-0.127 0.301t-0.301 0.127h-0.857q-0.174 0-0.301-0.127t-0.127-0.301v-0.857q0-0.174 0.127-0.301t0.301-0.127h0.857q0.174 0 0.301 0.127t0.127 0.301zM14.571 14.143v0.857q0 0.174-0.127 0.301t-0.301 0.127h-0.857q-0.174 0-0.301-0.127t-0.127-0.301v-0.857q0-0.174 0.127-0.301t0.301-0.127h0.857q0.174 0 0.301 0.127t0.127 0.301zM11.143 10.714v0.857q0 0.174-0.127 0.301t-0.301 0.127h-0.857q-0.174 0-0.301-0.127t-0.127-0.301v-0.857q0-0.174 0.127-0.301t0.301-0.127h0.857q0.174 0 0.301 0.127t0.127 0.301zM7.714 7.286v0.857q0 0.174-0.127 0.301t-0.301 0.127h-0.857q-0.174 0-0.301-0.127t-0.127-0.301v-0.857q0-0.174 0.127-0.301t0.301-0.127h0.857q0.174 0 0.301 0.127t0.127 0.301zM18 14.143v0.857q0 0.174-0.127 0.301t-0.301 0.127h-0.857q-0.174 0-0.301-0.127t-0.127-0.301v-0.857q0-0.174 0.127-0.301t0.301-0.127h0.857q0.174 0 0.301 0.127t0.127 0.301zM14.571 10.714v0.857q0 0.174-0.127 0.301t-0.301 0.127h-0.857q-0.174 0-0.301-0.127t-0.127-0.301v-0.857q0-0.174 0.127-0.301t0.301-0.127h0.857q0.174 0 0.301 0.127t0.127 0.301zM11.143 7.286v0.857q0 0.174-0.127 0.301t-0.301 0.127h-0.857q-0.174 0-0.301-0.127t-0.127-0.301v-0.857q0-0.174 0.127-0.301t0.301-0.127h0.857q0.174 0 0.301 0.127t0.127 0.301zM7.714 3.857v0.857q0 0.174-0.127 0.301t-0.301 0.127h-0.857q-0.174 0-0.301-0.127t-0.127-0.301v-0.857q0-0.174 0.127-0.301t0.301-0.127h0.857q0.174 0 0.301 0.127t0.127 0.301zM18 10.714v0.857q0 0.174-0.127 0.301t-0.301 0.127h-0.857q-0.174 0-0.301-0.127t-0.127-0.301v-0.857q0-0.174 0.127-0.301t0.301-0.127h0.857q0.174 0 0.301 0.127t0.127 0.301zM14.571 7.286v0.857q0 0.174-0.127 0.301t-0.301 0.127h-0.857q-0.174 0-0.301-0.127t-0.127-0.301v-0.857q0-0.174 0.127-0.301t0.301-0.127h0.857q0.174 0 0.301 0.127t0.127 0.301zM11.143 3.857v0.857q0 0.174-0.127 0.301t-0.301 0.127h-0.857q-0.174 0-0.301-0.127t-0.127-0.301v-0.857q0-0.174 0.127-0.301t0.301-0.127h0.857q0.174 0 0.301 0.127t0.127 0.301zM18 7.286v0.857q0 0.174-0.127 0.301t-0.301 0.127h-0.857q-0.174 0-0.301-0.127t-0.127-0.301v-0.857q0-0.174 0.127-0.301t0.301-0.127h0.857q0.174 0 0.301 0.127t0.127 0.301zM14.571 3.857v0.857q0 0.174-0.127 0.301t-0.301 0.127h-0.857q-0.174 0-0.301-0.127t-0.127-0.301v-0.857q0-0.174 0.127-0.301t0.301-0.127h0.857q0.174 0 0.301 0.127t0.127 0.301zM18 3.857v0.857q0 0.174-0.127 0.301t-0.301 0.127h-0.857q-0.174 0-0.301-0.127t-0.127-0.301v-0.857q0-0.174 0.127-0.301t0.301-0.127h0.857q0.174 0 0.301 0.127t0.127 0.301zM14.571 22.286h5.143v-20.571h-15.429v20.571h5.143v-3q0-0.174 0.127-0.301t0.301-0.127h4.286q0.174 0 0.301 0.127t0.127 0.301v3zM21.429 0.857v22.286q0 0.348-0.254 0.603t-0.603 0.254h-17.143q-0.348 0-0.603-0.254t-0.254-0.603v-22.286q0-0.348 0.254-0.603t0.603-0.254h17.143q0.348 0 0.603 0.254t0.254 0.603z"></path>
</svg>
