<!-- Generated by IcoMoon.io -->
<svg version="1.1" xmlns="http://www.w3.org/2000/svg" width="24" height="24" viewBox="0 0 24 24">
<title>check-circle-o</title>
<path d="M17.397 10.888l-5.652 5.652q-0.254 0.254-0.603 0.254t-0.603-0.254l-3.938-3.938q-0.254-0.254-0.254-0.603t0.254-0.603l1.366-1.366q0.254-0.254 0.603-0.254t0.603 0.254l1.969 1.969 3.683-3.683q0.254-0.254 0.603-0.254t0.603 0.254l1.366 1.366q0.254 0.254 0.254 0.603t-0.254 0.603zM19.286 12q0-1.982-0.978-3.656t-2.652-2.652-3.656-0.978-3.656 0.978-2.652 2.652-0.978 3.656 0.978 3.656 2.652 2.652 3.656 0.978 3.656-0.978 2.652-2.652 0.978-3.656zM22.286 12q0 2.799-1.379 5.163t-3.743 3.743-5.163 1.379-5.163-1.379-3.743-3.743-1.379-5.163 1.379-5.163 3.743-3.743 5.163-1.379 5.163 1.379 3.743 3.743 1.379 5.163z"></path>
</svg>
