<!-- Generated by IcoMoon.io -->
<svg version="1.1" xmlns="http://www.w3.org/2000/svg" width="24" height="24" viewBox="0 0 24 24">
<title>clock-o</title>
<path d="M13.714 7.286v6q0 0.188-0.121 0.308t-0.308 0.121h-4.286q-0.188 0-0.308-0.121t-0.121-0.308v-0.857q0-0.188 0.121-0.308t0.308-0.121h3v-4.714q0-0.188 0.121-0.308t0.308-0.121h0.857q0.188 0 0.308 0.121t0.121 0.308zM19.286 12q0-1.982-0.978-3.656t-2.652-2.652-3.656-0.978-3.656 0.978-2.652 2.652-0.978 3.656 0.978 3.656 2.652 2.652 3.656 0.978 3.656-0.978 2.652-2.652 0.978-3.656zM22.286 12q0 2.799-1.379 5.163t-3.743 3.743-5.163 1.379-5.163-1.379-3.743-3.743-1.379-5.163 1.379-5.163 3.743-3.743 5.163-1.379 5.163 1.379 3.743 3.743 1.379 5.163z"></path>
</svg>
