<!-- Generated by IcoMoon.io -->
<svg version="1.1" xmlns="http://www.w3.org/2000/svg" width="24" height="24" viewBox="0 0 24 24">
<title>code-fork</title>
<path d="M9 19.714q0-0.536-0.375-0.911t-0.911-0.375-0.911 0.375-0.375 0.911 0.375 0.911 0.911 0.375 0.911-0.375 0.375-0.911zM9 4.286q0-0.536-0.375-0.911t-0.911-0.375-0.911 0.375-0.375 0.911 0.375 0.911 0.911 0.375 0.911-0.375 0.375-0.911zM17.571 6q0-0.536-0.375-0.911t-0.911-0.375-0.911 0.375-0.375 0.911 0.375 0.911 0.911 0.375 0.911-0.375 0.375-0.911zM18.857 6q0 0.696-0.348 1.292t-0.938 0.931q-0.027 3.844-3.027 5.545-0.911 0.509-2.719 1.085-1.714 0.536-2.27 0.951t-0.556 1.339v0.348q0.589 0.335 0.938 0.931t0.348 1.292q0 1.071-0.75 1.821t-1.821 0.75-1.821-0.75-0.75-1.821q0-0.696 0.348-1.292t0.937-0.931v-10.982q-0.589-0.335-0.938-0.931t-0.348-1.292q0-1.071 0.75-1.821t1.821-0.75 1.821 0.75 0.75 1.821q0 0.696-0.348 1.292t-0.938 0.931v6.656q0.723-0.348 2.063-0.763 0.737-0.228 1.172-0.395t0.944-0.415 0.79-0.529 0.542-0.683 0.375-0.931 0.114-1.225q-0.589-0.335-0.938-0.931t-0.348-1.292q0-1.071 0.75-1.821t1.821-0.75 1.821 0.75 0.75 1.821z"></path>
</svg>
