<!-- Generated by IcoMoon.io -->
<svg version="1.1" xmlns="http://www.w3.org/2000/svg" width="24" height="24" viewBox="0 0 24 24">
<title>code</title>
<path d="M7.502 17.757l-0.656 0.656q-0.131 0.131-0.302 0.131t-0.302-0.131l-6.111-6.111q-0.131-0.131-0.131-0.302t0.131-0.302l6.111-6.111q0.131-0.131 0.302-0.131t0.302 0.131l0.656 0.656q0.131 0.131 0.131 0.302t-0.131 0.302l-5.154 5.154 5.154 5.154q0.131 0.131 0.131 0.302t-0.131 0.302zM15.252 3.764l-4.892 16.931q-0.052 0.171-0.203 0.256t-0.308 0.033l-0.813-0.223q-0.171-0.052-0.256-0.203t-0.033-0.321l4.892-16.931q0.052-0.171 0.203-0.256t0.308-0.033l0.813 0.223q0.171 0.052 0.256 0.203t0.033 0.321zM23.869 12.302l-6.111 6.111q-0.131 0.131-0.302 0.131t-0.302-0.131l-0.656-0.656q-0.131-0.131-0.131-0.302t0.131-0.302l5.154-5.154-5.154-5.154q-0.131-0.131-0.131-0.302t0.131-0.302l0.656-0.656q0.131-0.131 0.302-0.131t0.302 0.131l6.111 6.111q0.131 0.131 0.131 0.302t-0.131 0.302z"></path>
</svg>
