<!-- Generated by IcoMoon.io -->
<svg version="1.1" xmlns="http://www.w3.org/2000/svg" width="24" height="24" viewBox="0 0 24 24">
<title>coffee</title>
<path d="M21.517 7.862q0-1.034-0.724-1.759t-1.759-0.724h-0.828v4.966h0.828q1.034 0 1.759-0.724t0.724-1.759zM0 17.793h23.172q0 1.371-0.97 2.341t-2.341 0.97h-16.552q-1.371 0-2.341-0.97t-0.97-2.341zM24 7.862q0 2.056-1.455 3.511t-3.511 1.455h-0.828v0.414q0 1.19-0.853 2.043t-2.043 0.853h-9.103q-1.19 0-2.043-0.853t-0.853-2.043v-9.517q0-0.336 0.246-0.582t0.582-0.246h14.897q2.056 0 3.511 1.455t1.455 3.511z"></path>
</svg>
