<!-- Generated by IcoMoon.io -->
<svg version="1.1" xmlns="http://www.w3.org/2000/svg" width="24" height="24" viewBox="0 0 24 24">
<title>cogs</title>
<path d="M11.2 11.994q0-1.325-0.938-2.263t-2.263-0.938-2.263 0.938-0.938 2.263 0.938 2.263 2.263 0.938 2.263-0.938 0.938-2.263zM20.8 18.394q0-0.65-0.475-1.125t-1.125-0.475-1.125 0.475-0.475 1.125q0 0.663 0.469 1.131t1.131 0.469 1.131-0.469 0.469-1.131zM20.8 5.594q0-0.65-0.475-1.125t-1.125-0.475-1.125 0.475-0.475 1.125q0 0.663 0.469 1.131t1.131 0.469 1.131-0.469 0.469-1.131zM16 10.856v2.312q0 0.125-0.087 0.244t-0.2 0.131l-1.937 0.3q-0.138 0.438-0.4 0.95 0.425 0.6 1.125 1.437 0.087 0.125 0.087 0.25 0 0.15-0.087 0.237-0.288 0.375-1.031 1.119t-0.981 0.744q-0.138 0-0.263-0.087l-1.437-1.125q-0.462 0.237-0.963 0.387-0.138 1.35-0.288 1.937-0.087 0.3-0.375 0.3h-2.325q-0.138 0-0.25-0.094t-0.125-0.219l-0.288-1.913q-0.425-0.125-0.938-0.387l-1.475 1.113q-0.087 0.087-0.25 0.087-0.138 0-0.262-0.1-1.8-1.662-1.8-2 0-0.112 0.087-0.237 0.125-0.175 0.513-0.663t0.588-0.762q-0.288-0.55-0.438-1.025l-1.9-0.3q-0.125-0.012-0.212-0.119t-0.087-0.244v-2.312q0-0.125 0.087-0.244t0.2-0.131l1.937-0.3q0.138-0.438 0.4-0.95-0.425-0.6-1.125-1.437-0.087-0.138-0.087-0.25 0-0.15 0.087-0.25 0.275-0.375 1.025-1.113t0.987-0.737q0.138 0 0.263 0.087l1.437 1.125q0.425-0.225 0.963-0.4 0.138-1.35 0.288-1.925 0.087-0.3 0.375-0.3h2.325q0.138 0 0.25 0.094t0.125 0.219l0.288 1.913q0.425 0.125 0.938 0.387l1.475-1.113q0.1-0.087 0.25-0.087 0.138 0 0.263 0.1 1.8 1.662 1.8 2 0 0.112-0.087 0.237-0.15 0.2-0.525 0.675t-0.563 0.75q0.288 0.6 0.425 1.025l1.9 0.288q0.125 0.025 0.212 0.131t0.087 0.244zM24 17.519v1.75q0 0.2-1.863 0.387-0.15 0.337-0.375 0.65 0.637 1.412 0.637 1.725 0 0.050-0.050 0.087-1.525 0.887-1.55 0.887-0.1 0-0.575-0.588t-0.65-0.85q-0.25 0.025-0.375 0.025t-0.375-0.025q-0.175 0.262-0.65 0.85t-0.575 0.588q-0.025 0-1.55-0.887-0.050-0.038-0.050-0.087 0-0.313 0.637-1.725-0.225-0.313-0.375-0.65-1.863-0.188-1.863-0.387v-1.75q0-0.2 1.863-0.387 0.163-0.362 0.375-0.65-0.637-1.412-0.637-1.725 0-0.050 0.050-0.087 0.050-0.025 0.438-0.25t0.737-0.425 0.375-0.2q0.1 0 0.575 0.581t0.65 0.844q0.25-0.025 0.375-0.025t0.375 0.025q0.637-0.887 1.15-1.4l0.075-0.025q0.050 0 1.55 0.875 0.050 0.038 0.050 0.087 0 0.313-0.638 1.725 0.212 0.288 0.375 0.65 1.863 0.188 1.863 0.387zM24 4.719v1.75q0 0.2-1.863 0.387-0.15 0.338-0.375 0.65 0.637 1.412 0.637 1.725 0 0.050-0.050 0.087-1.525 0.887-1.55 0.887-0.1 0-0.575-0.588t-0.65-0.85q-0.25 0.025-0.375 0.025t-0.375-0.025q-0.175 0.262-0.65 0.85t-0.575 0.588q-0.025 0-1.55-0.887-0.050-0.037-0.050-0.087 0-0.313 0.637-1.725-0.225-0.313-0.375-0.65-1.863-0.188-1.863-0.387v-1.75q0-0.2 1.863-0.387 0.163-0.362 0.375-0.65-0.637-1.412-0.637-1.725 0-0.050 0.050-0.087 0.050-0.025 0.438-0.25t0.737-0.425 0.375-0.2q0.1 0 0.575 0.581t0.65 0.844q0.25-0.025 0.375-0.025t0.375 0.025q0.637-0.887 1.15-1.4l0.075-0.025q0.050 0 1.55 0.875 0.050 0.037 0.050 0.087 0 0.313-0.638 1.725 0.212 0.288 0.375 0.65 1.863 0.188 1.863 0.387z"></path>
</svg>
