<!-- Generated by IcoMoon.io -->
<svg version="1.1" xmlns="http://www.w3.org/2000/svg" width="24" height="24" viewBox="0 0 24 24">
<title>comments</title>
<path d="M18.857 9.422q0 1.862-1.259 3.442t-3.435 2.498-4.734 0.917q-1.152 0-2.357-0.214-1.661 1.179-3.723 1.714-0.482 0.121-1.152 0.214h-0.040q-0.147 0-0.275-0.107t-0.154-0.281q-0.013-0.040-0.013-0.087t0.007-0.087 0.027-0.080l0.033-0.067t0.047-0.074 0.054-0.067 0.060-0.067 0.054-0.060q0.067-0.080 0.308-0.335t0.348-0.395 0.301-0.388 0.335-0.516 0.275-0.589q-1.661-0.964-2.612-2.371t-0.951-3q0-1.862 1.259-3.442t3.435-2.498 4.734-0.917 4.734 0.917 3.435 2.498 1.259 3.442zM24 12.85q0 1.607-0.951 3.007t-2.612 2.364q0.134 0.321 0.275 0.589t0.335 0.516 0.301 0.388 0.348 0.395 0.308 0.335q0.013 0.013 0.054 0.060t0.060 0.067 0.054 0.067 0.047 0.074l0.033 0.067t0.027 0.080 0.007 0.087-0.013 0.087q-0.040 0.188-0.174 0.295t-0.295 0.094q-0.67-0.094-1.152-0.214-2.063-0.536-3.723-1.714-1.205 0.214-2.357 0.214-3.629 0-6.321-1.768 0.777 0.054 1.179 0.054 2.156 0 4.138-0.603t3.536-1.728q1.674-1.232 2.571-2.839t0.897-3.402q0-1.031-0.308-2.036 1.728 0.951 2.732 2.384t1.004 3.080z"></path>
</svg>
