<!-- Generated by IcoMoon.io -->
<svg version="1.1" xmlns="http://www.w3.org/2000/svg" width="24" height="24" viewBox="0 0 24 24">
<title>comment</title>
<path d="M24 10.272q0 2.33-1.607 4.306t-4.366 3.121-6.027 1.145q-0.938 0-1.942-0.107-2.652 2.344-6.161 3.241-0.656 0.188-1.527 0.295-0.228 0.027-0.408-0.121t-0.234-0.388v-0.013q-0.040-0.054-0.007-0.161t0.027-0.134 0.060-0.127l0.080-0.121t0.094-0.114 0.107-0.121q0.094-0.107 0.415-0.462t0.462-0.509 0.415-0.529 0.435-0.683 0.362-0.79 0.348-1.018q-2.103-1.192-3.315-2.946t-1.212-3.763q0-1.741 0.951-3.328t2.558-2.739 3.83-1.828 4.661-0.676q3.268 0 6.027 1.145t4.366 3.121 1.607 4.306z"></path>
</svg>
