<!-- Generated by IcoMoon.io -->
<svg version="1.1" xmlns="http://www.w3.org/2000/svg" width="24" height="24" viewBox="0 0 24 24">
<title>comment-o</title>
<path d="M12 3.429q-2.732 0-5.109 0.931t-3.777 2.511-1.4 3.415q0 1.5 0.958 2.859t2.699 2.35l1.165 0.67-0.362 1.286q-0.321 1.219-0.938 2.304 2.036-0.844 3.683-2.29l0.576-0.509 0.763 0.080q0.924 0.107 1.741 0.107 2.732 0 5.109-0.931t3.777-2.511 1.4-3.415-1.4-3.415-3.777-2.511-5.109-0.931zM24 10.286q0 2.33-1.607 4.306t-4.366 3.121-6.027 1.145q-0.938 0-1.942-0.107-2.652 2.344-6.161 3.241-0.656 0.188-1.527 0.295h-0.067q-0.201 0-0.362-0.141t-0.214-0.368v-0.013q-0.040-0.054-0.007-0.161t0.027-0.134 0.060-0.127l0.080-0.121t0.094-0.114 0.107-0.121q0.094-0.107 0.415-0.462t0.462-0.509 0.415-0.529 0.435-0.683 0.362-0.79 0.348-1.018q-2.103-1.192-3.315-2.946t-1.212-3.763q0-2.33 1.607-4.306t4.366-3.121 6.027-1.145 6.027 1.145 4.366 3.121 1.607 4.306z"></path>
</svg>
