<!-- Generated by IcoMoon.io -->
<svg version="1.1" xmlns="http://www.w3.org/2000/svg" width="24" height="24" viewBox="0 0 24 24">
<title>cubes</title>
<path d="M7.059 20.118l4.235-2.118v-3.463l-4.235 1.809v3.772zM6.353 15.11l4.456-1.908-4.456-1.908-4.456 1.908zM18.353 20.118l4.235-2.118v-3.463l-4.235 1.809v3.772zM17.647 15.11l4.456-1.908-4.456-1.908-4.456 1.908zM12.706 11.879l4.235-1.82v-2.934l-4.235 1.809v2.945zM12 7.699l4.864-2.085-4.864-2.085-4.864 2.085zM24 13.412v4.588q0 0.397-0.21 0.739t-0.574 0.518l-4.941 2.471q-0.276 0.154-0.629 0.154t-0.629-0.154l-4.941-2.471q-0.055-0.022-0.077-0.044-0.022 0.022-0.077 0.044l-4.941 2.471q-0.276 0.154-0.629 0.154t-0.629-0.154l-4.941-2.471q-0.364-0.176-0.574-0.518t-0.21-0.739v-4.588q0-0.419 0.237-0.772t0.623-0.529l4.787-2.051v-4.412q0-0.419 0.237-0.772t0.623-0.529l4.941-2.118q0.254-0.11 0.551-0.11t0.551 0.11l4.941 2.118q0.386 0.176 0.623 0.529t0.237 0.772v4.412l4.787 2.051q0.397 0.176 0.629 0.529t0.232 0.772z"></path>
</svg>
