<!-- Generated by IcoMoon.io -->
<svg version="1.1" xmlns="http://www.w3.org/2000/svg" width="24" height="24" viewBox="0 0 24 24">
<title>download</title>
<path d="M18 19.714q0-0.348-0.254-0.603t-0.603-0.254-0.603 0.254-0.254 0.603 0.254 0.603 0.603 0.254 0.603-0.254 0.254-0.603zM21.429 19.714q0-0.348-0.254-0.603t-0.603-0.254-0.603 0.254-0.254 0.603 0.254 0.603 0.603 0.254 0.603-0.254 0.254-0.603zM23.143 16.714v4.286q0 0.536-0.375 0.911t-0.911 0.375h-19.714q-0.536 0-0.911-0.375t-0.375-0.911v-4.286q0-0.536 0.375-0.911t0.911-0.375h6.228l1.808 1.821q0.777 0.75 1.821 0.75t1.821-0.75l1.821-1.821h6.214q0.536 0 0.911 0.375t0.375 0.911zM18.79 9.094q0.228 0.549-0.188 0.938l-6 6q-0.241 0.254-0.603 0.254t-0.603-0.254l-6-6q-0.415-0.388-0.188-0.938 0.228-0.522 0.79-0.522h3.429v-6q0-0.348 0.254-0.603t0.603-0.254h3.429q0.348 0 0.603 0.254t0.254 0.603v6h3.429q0.563 0 0.79 0.522z"></path>
</svg>
