<!-- Generated by IcoMoon.io -->
<svg version="1.1" xmlns="http://www.w3.org/2000/svg" width="24" height="24" viewBox="0 0 24 24">
<title>drupal</title>
<path d="M17.344 21.241q-0.067-0.254-0.321-0.067-0.402 0.295-1.165 0.522t-1.754 0.228q-1.728 0-2.585-0.656-0.067-0.054-0.174-0.054-0.147 0-0.348 0.161-0.094 0.080-0.1 0.214t0.1 0.268q0.455 0.429 1.172 0.616t1.373 0.167 1.326-0.060q0.549-0.054 1.132-0.275t0.871-0.402 0.382-0.275q0.161-0.161 0.094-0.388zM16.821 19.701q-0.254-0.629-0.522-0.817-0.308-0.201-1.018-0.201-0.629 0-0.951 0.134-0.388 0.161-1.045 0.75-0.348 0.321-0.161 0.589 0.121 0.107 0.234 0.060t0.422-0.315q0.040-0.027 0.141-0.114t0.141-0.114 0.134-0.094 0.154-0.094 0.167-0.067 0.201-0.060 0.221-0.033 0.275-0.013q0.362 0 0.596 0.1t0.308 0.194 0.181 0.295q0.134 0.228 0.167 0.268t0.167-0.013q0.308-0.161 0.188-0.455zM21.576 15.937q0-0.295-0.067-0.596t-0.221-0.603-0.455-0.489-0.703-0.188q-0.442 0-1.299 0.556t-1.728 1.118-1.353 0.563q-0.362 0.013-0.85-0.254t-1.018-0.656-1.118-0.777-1.339-0.656-1.487-0.254q-1.54 0.013-2.638 1.051t-1.125 2.391q-0.027 1.5 0.991 2.196 0.388 0.268 0.837 0.382t1.386 0.114q0.763 0 1.768-0.435t1.795-0.951 1.607-0.944 1.246-0.415q0.348 0.013 0.871 0.422t0.958 0.897 0.911 0.904 0.743 0.429q0.469 0.040 0.783-0.188t0.743-0.844q0.375-0.549 0.569-1.353t0.194-1.42zM22.286 13.795q0 2.196-0.83 4.078t-2.223 3.161-3.248 2.002-3.891 0.723-3.924-0.77-3.315-2.103-2.283-3.234-0.857-4.045q0-1.192 0.261-2.31t0.656-1.949 0.944-1.587 1.051-1.259 1.051-0.931 0.864-0.623 0.569-0.328q0.188-0.107 0.683-0.355t0.73-0.382 0.643-0.402 0.81-0.589q0.482-0.375 0.777-0.971t0.402-1.681q1.728 2.076 2.491 2.585 0.589 0.388 1.741 0.911t1.728 0.884q0.281 0.174 0.522 0.335t0.81 0.623 1.018 0.944 1.004 1.272 0.924 1.634 0.629 1.989 0.261 2.377z"></path>
</svg>
