<!-- Generated by IcoMoon.io -->
<svg version="1.1" xmlns="http://www.w3.org/2000/svg" width="24" height="24" viewBox="0 0 24 24">
<title>envelope</title>
<path d="M24 8.652v10.634q0 0.884-0.629 1.513t-1.513 0.629h-19.714q-0.884 0-1.513-0.629t-0.629-1.513v-10.634q0.589 0.656 1.353 1.165 4.848 3.295 6.656 4.621 0.763 0.563 1.239 0.877t1.266 0.643 1.473 0.328h0.027q0.683 0 1.473-0.328t1.266-0.643 1.239-0.877q2.277-1.647 6.67-4.621 0.763-0.522 1.339-1.165zM24 4.714q0 1.058-0.656 2.022t-1.634 1.647q-5.036 3.496-6.268 4.353-0.134 0.094-0.569 0.408t-0.723 0.509-0.696 0.435-0.77 0.362-0.67 0.121h-0.027q-0.308 0-0.67-0.121t-0.77-0.362-0.696-0.435-0.723-0.509-0.569-0.408q-1.219-0.857-3.509-2.444t-2.746-1.908q-0.83-0.563-1.567-1.547t-0.737-1.828q0-1.045 0.556-1.741t1.587-0.696h19.714q0.871 0 1.507 0.629t0.636 1.513z"></path>
</svg>
