<!-- Generated by IcoMoon.io -->
<svg version="1.1" xmlns="http://www.w3.org/2000/svg" width="24" height="24" viewBox="0 0 24 24">
<title>eye</title>
<path d="M22.286 12q-2.036-3.161-5.103-4.728 0.817 1.393 0.817 3.013 0 2.478-1.761 4.239t-4.239 1.761-4.239-1.761-1.761-4.239q0-1.621 0.817-3.013-3.067 1.567-5.103 4.728 1.781 2.746 4.467 4.373t5.819 1.627 5.819-1.627 4.467-4.373zM12.643 6.857q0-0.268-0.188-0.455t-0.455-0.188q-1.674 0-2.873 1.199t-1.199 2.873q0 0.268 0.188 0.455t0.455 0.188 0.455-0.188 0.188-0.455q0-1.152 0.817-1.969t1.969-0.817q0.268 0 0.455-0.188t0.188-0.455zM24 12q0 0.455-0.268 0.924-1.875 3.080-5.042 4.935t-6.69 1.855-6.69-1.862-5.042-4.929q-0.268-0.469-0.268-0.924t0.268-0.924q1.875-3.067 5.042-4.929t6.69-1.862 6.69 1.862 5.042 4.929q0.268 0.469 0.268 0.924z"></path>
</svg>
