<!-- Generated by IcoMoon.io -->
<svg version="1.1" xmlns="http://www.w3.org/2000/svg" width="24" height="24" viewBox="0 0 24 24">
<title>file-code-o</title>
<path d="M21.375 5.089q0.375 0.375 0.643 1.018t0.268 1.179v15.429q0 0.536-0.375 0.911t-0.911 0.375h-18q-0.536 0-0.911-0.375t-0.375-0.911v-21.429q0-0.536 0.375-0.911t0.911-0.375h12q0.536 0 1.179 0.268t1.018 0.643zM15.429 1.821v5.036h5.036q-0.134-0.388-0.295-0.549l-4.192-4.192q-0.161-0.161-0.549-0.295zM20.571 22.286v-13.714h-5.571q-0.536 0-0.911-0.375t-0.375-0.911v-5.571h-10.286v20.571h17.143zM8.143 10.286q0.107-0.147 0.281-0.167t0.321 0.087l0.683 0.509q0.147 0.107 0.167 0.281t-0.087 0.321l-2.438 3.254 2.438 3.254q0.107 0.147 0.087 0.321t-0.167 0.281l-0.683 0.509q-0.147 0.107-0.321 0.087t-0.281-0.167l-3.027-4.031q-0.188-0.254 0-0.509zM18.884 14.317q0.188 0.254 0 0.509l-3.027 4.031q-0.107 0.147-0.281 0.167t-0.321-0.087l-0.683-0.509q-0.147-0.107-0.167-0.281t0.087-0.321l2.438-3.254-2.438-3.254q-0.107-0.147-0.087-0.321t0.167-0.281l0.683-0.509q0.147-0.107 0.321-0.087t0.281 0.167zM10.58 20.491q-0.174-0.027-0.275-0.174t-0.074-0.321l1.848-11.129q0.027-0.174 0.174-0.275t0.321-0.074l0.844 0.134q0.174 0.027 0.275 0.174t0.074 0.321l-1.848 11.129q-0.027 0.174-0.174 0.275t-0.321 0.074z"></path>
</svg>
