<!-- Generated by IcoMoon.io -->
<svg version="1.1" xmlns="http://www.w3.org/2000/svg" width="24" height="24" viewBox="0 0 24 24">
<title>floppy-o</title>
<path d="M6.857 20.571h10.286v-5.143h-10.286v5.143zM18.857 20.571h1.714v-12q0-0.188-0.134-0.516t-0.268-0.462l-3.763-3.763q-0.134-0.134-0.455-0.268t-0.522-0.134v5.571q0 0.536-0.375 0.911t-0.911 0.375h-7.714q-0.536 0-0.911-0.375t-0.375-0.911v-5.571h-1.714v17.143h1.714v-5.571q0-0.536 0.375-0.911t0.911-0.375h11.143q0.536 0 0.911 0.375t0.375 0.911v5.571zM13.714 8.143v-4.286q0-0.174-0.127-0.301t-0.301-0.127h-2.571q-0.174 0-0.301 0.127t-0.127 0.301v4.286q0 0.174 0.127 0.301t0.301 0.127h2.571q0.174 0 0.301-0.127t0.127-0.301zM22.286 8.571v12.429q0 0.536-0.375 0.911t-0.911 0.375h-18q-0.536 0-0.911-0.375t-0.375-0.911v-18q0-0.536 0.375-0.911t0.911-0.375h12.429q0.536 0 1.179 0.268t1.018 0.643l3.75 3.75q0.375 0.375 0.643 1.018t0.268 1.179z"></path>
</svg>
