<!-- Generated by IcoMoon.io -->
<svg version="1.1" xmlns="http://www.w3.org/2000/svg" width="24" height="24" viewBox="0 0 24 24">
<title>folder-open</title>
<path d="M24 13.533q0 0.396-0.396 0.843l-4.292 5.058q-0.549 0.651-1.539 1.105t-1.833 0.453h-13.897q-0.434 0-0.773-0.166t-0.338-0.549q0-0.396 0.396-0.843l4.292-5.058q0.549-0.651 1.539-1.105t1.833-0.453h13.897q0.434 0 0.773 0.166t0.338 0.549zM19.619 9.139v2.044h-10.627q-1.201 0-2.516 0.607t-2.095 1.526l-4.368 5.135q0-0.051-0.006-0.16t-0.006-0.16v-12.262q0-1.175 0.843-2.018t2.018-0.843h4.087q1.175 0 2.018 0.843t0.843 2.018v0.409h6.948q1.175 0 2.018 0.843t0.843 2.018z"></path>
</svg>
