<!-- Generated by IcoMoon.io -->
<svg version="1.1" xmlns="http://www.w3.org/2000/svg" width="24" height="24" viewBox="0 0 24 24">
<title>github</title>
<path d="M12 1.942q2.799 0 5.163 1.379t3.743 3.743 1.379 5.163q0 3.362-1.962 6.047t-5.069 3.717q-0.362 0.067-0.536-0.094t-0.174-0.402q0-0.040 0.007-1.025t0.007-1.801q0-1.299-0.696-1.902 0.763-0.080 1.373-0.241t1.259-0.522 1.085-0.891 0.71-1.406 0.275-2.016q0-1.594-1.058-2.759 0.496-1.219-0.107-2.732-0.375-0.121-1.085 0.147t-1.232 0.589l-0.509 0.321q-1.246-0.348-2.571-0.348t-2.571 0.348q-0.214-0.147-0.569-0.362t-1.118-0.516-1.138-0.181q-0.603 1.513-0.107 2.732-1.058 1.165-1.058 2.759 0 1.138 0.275 2.009t0.703 1.406 1.078 0.897 1.259 0.522 1.373 0.241q-0.522 0.482-0.656 1.379-0.281 0.134-0.603 0.201t-0.763 0.067-0.877-0.288-0.743-0.837q-0.254-0.429-0.65-0.696t-0.663-0.321l-0.268-0.040q-0.281 0-0.388 0.060t-0.067 0.154 0.121 0.188 0.174 0.161l0.094 0.067q0.295 0.134 0.583 0.509t0.422 0.683l0.134 0.308q0.174 0.509 0.589 0.824t0.897 0.402 0.931 0.094 0.743-0.047l0.308-0.054q0 0.509 0.007 1.185t0.007 0.73q0 0.241-0.174 0.402t-0.536 0.094q-3.107-1.031-5.069-3.717t-1.962-6.047q0-2.799 1.379-5.163t3.743-3.743 5.163-1.379zM5.612 16.714q0.040-0.094-0.094-0.161-0.134-0.040-0.174 0.027-0.040 0.094 0.094 0.161 0.121 0.080 0.174-0.027zM6.027 17.17q0.094-0.067-0.027-0.214-0.134-0.121-0.214-0.040-0.094 0.067 0.027 0.214 0.134 0.134 0.214 0.040zM6.429 17.772q0.121-0.094 0-0.254-0.107-0.174-0.228-0.080-0.121 0.067 0 0.241t0.228 0.094zM6.991 18.335q0.107-0.107-0.054-0.254-0.161-0.161-0.268-0.040-0.121 0.107 0.054 0.254 0.161 0.161 0.268 0.040zM7.754 18.67q0.040-0.147-0.174-0.214-0.201-0.054-0.254 0.094t0.174 0.201q0.201 0.080 0.254-0.080zM8.598 18.737q0-0.174-0.228-0.147-0.214 0-0.214 0.147 0 0.174 0.228 0.147 0.214 0 0.214-0.147zM9.375 18.603q-0.027-0.147-0.241-0.121-0.214 0.040-0.188 0.201t0.241 0.107 0.188-0.188z"></path>
</svg>
