<!-- Generated by IcoMoon.io -->
<svg version="1.1" xmlns="http://www.w3.org/2000/svg" width="24" height="24" viewBox="0 0 24 24">
<title>graduation-cap</title>
<path d="M18.479 11.375l0.188 3.292q0.042 0.719-0.854 1.333t-2.448 0.974-3.365 0.359-3.365-0.359-2.448-0.974-0.854-1.333l0.188-3.292 5.979 1.885q0.229 0.073 0.5 0.073t0.5-0.073zM24 8q0 0.24-0.229 0.323l-11.667 3.667q-0.042 0.010-0.104 0.010t-0.104-0.010l-6.792-2.146q-0.448 0.354-0.74 1.161t-0.354 1.859q0.656 0.375 0.656 1.135 0 0.719-0.604 1.115l0.604 4.51q0.021 0.146-0.083 0.26-0.094 0.115-0.25 0.115h-2q-0.156 0-0.25-0.115-0.104-0.115-0.083-0.26l0.604-4.51q-0.604-0.396-0.604-1.115 0-0.76 0.677-1.156 0.115-2.156 1.021-3.437l-3.469-1.083q-0.229-0.083-0.229-0.323t0.229-0.323l11.667-3.667q0.042-0.010 0.104-0.010t0.104 0.010l11.667 3.667q0.229 0.083 0.229 0.323z"></path>
</svg>
