<!-- Generated by IcoMoon.io -->
<svg version="1.1" xmlns="http://www.w3.org/2000/svg" width="24" height="24" viewBox="0 0 24 24">
<title>hand-spock-o</title>
<path d="M10.2 2.4q-0.6 0-0.994 0.425t-0.394 1.025q0 0.175 0.037 0.35l1.875 7.8h-0.325l-1.45-6.025q-0.113-0.475-0.494-0.775t-0.869-0.3q-0.588 0-0.988 0.425t-0.4 1.013q0 0.138 0.050 0.362 0.038 0.163 0.487 2.013t0.85 3.525 0.4 1.725v2.837l-3.838-2.875q-0.425-0.325-0.963-0.325-0.65 0-1.119 0.456t-0.469 1.106q0 0.838 0.7 1.375l6.338 4.737q0.425 0.325 0.95 0.325h8.675q0.413 0 0.737-0.256t0.425-0.656l1.25-5.013q0.1-0.375 0.125-1.1t0.113-1.075l1.45-5.975q0.038-0.15 0.038-0.325 0-0.575-0.413-0.988t-1-0.412q-0.475 0-0.863 0.319t-0.5 0.781l-1.237 5.1h-0.325l1.65-6.837q0.037-0.175 0.037-0.35 0-0.588-0.4-1t-1-0.412q-0.475 0-0.856 0.3t-0.494 0.775l-1.812 7.525h-1.587l-2.050-8.525q-0.112-0.475-0.494-0.775t-0.856-0.3zM18.263 23.2h-8.675q-1.062 0-1.912-0.637l-6.337-4.75q-0.625-0.475-0.981-1.175t-0.356-1.475q0-1.313 0.938-2.238t2.25-0.925q0.313 0 0.619 0.069t0.519 0.138 0.513 0.256 0.438 0.288 0.481 0.369 0.469 0.356l-1.537-6.4q-0.087-0.438-0.087-0.737 0-1.163 0.75-2.025t1.9-0.988q0.175-1.087 1.006-1.806t1.944-0.719q1.038 0 1.85 0.644t1.062 1.656l1.287 5.35 1.038-4.35q0.25-1.013 1.062-1.656t1.85-0.644q1.087 0 1.906 0.675t1.031 1.738q1.162 0.125 1.937 0.975t0.775 2.013q0 0.375-0.087 0.712l-1.45 5.962q-0.063 0.275-0.063 0.838 0 0.638-0.163 1.35l-1.262 5.013q-0.237 0.938-0.994 1.531t-1.719 0.594z"></path>
</svg>
