<!-- Generated by IcoMoon.io -->
<svg version="1.1" xmlns="http://www.w3.org/2000/svg" width="24" height="24" viewBox="0 0 24 24">
<title>hdd-o</title>
<path d="M15.643 16.286q0 0.442-0.315 0.757t-0.757 0.315-0.757-0.315-0.315-0.757 0.315-0.757 0.757-0.315 0.757 0.315 0.315 0.757zM19.071 16.286q0 0.442-0.315 0.757t-0.757 0.315-0.757-0.315-0.315-0.757 0.315-0.757 0.757-0.315 0.757 0.315 0.315 0.757zM20.571 18.429v-4.286q0-0.174-0.127-0.301t-0.301-0.127h-16.286q-0.174 0-0.301 0.127t-0.127 0.301v4.286q0 0.174 0.127 0.301t0.301 0.127h16.286q0.174 0 0.301-0.127t0.127-0.301zM4.098 12h15.804l-2.103-6.455q-0.054-0.174-0.214-0.288t-0.348-0.114h-10.473q-0.188 0-0.348 0.114t-0.214 0.288zM22.286 14.143v4.286q0 0.884-0.629 1.513t-1.513 0.629h-16.286q-0.884 0-1.513-0.629t-0.629-1.513v-4.286q0-0.335 0.214-1.004l2.638-8.116q0.228-0.71 0.844-1.152t1.353-0.442h10.473q0.737 0 1.353 0.442t0.844 1.152l2.638 8.116q0.214 0.67 0.214 1.004z"></path>
</svg>
