<!-- Generated by IcoMoon.io -->
<svg version="1.1" xmlns="http://www.w3.org/2000/svg" width="24" height="24" viewBox="0 0 24 24">
<title>heart</title>
<path d="M12 22.286q-0.348 0-0.589-0.241l-8.357-8.063q-0.134-0.107-0.368-0.348t-0.743-0.877-0.911-1.306-0.717-1.621-0.315-1.848q0-2.946 1.701-4.607t4.701-1.661q0.83 0 1.694 0.288t1.607 0.777 1.279 0.917 1.018 0.911q0.482-0.482 1.018-0.911t1.279-0.917 1.607-0.777 1.694-0.288q3 0 4.701 1.661t1.701 4.607q0 2.96-3.067 6.027l-8.344 8.036q-0.241 0.241-0.589 0.241z"></path>
</svg>
