<!-- Generated by IcoMoon.io -->
<svg version="1.1" xmlns="http://www.w3.org/2000/svg" width="24" height="24" viewBox="0 0 24 24">
<title>history</title>
<path d="M22.286 12q0 2.089-0.817 3.991t-2.196 3.281-3.281 2.196-3.991 0.817q-2.304 0-4.379-0.971t-3.536-2.739q-0.094-0.134-0.087-0.301t0.114-0.275l1.835-1.848q0.134-0.121 0.335-0.121 0.214 0.027 0.308 0.161 0.978 1.272 2.397 1.969t3.013 0.696q1.393 0 2.658-0.542t2.19-1.467 1.467-2.19 0.542-2.658-0.542-2.658-1.467-2.19-2.19-1.467-2.658-0.542q-1.313 0-2.518 0.475t-2.143 1.359l1.835 1.848q0.415 0.402 0.188 0.924-0.228 0.536-0.79 0.536h-6q-0.348 0-0.603-0.254t-0.254-0.603v-6q0-0.563 0.536-0.79 0.522-0.228 0.924 0.188l1.741 1.728q1.433-1.353 3.275-2.096t3.81-0.743q2.089 0 3.991 0.817t3.281 2.196 2.196 3.281 0.817 3.991zM13.714 8.143v6q0 0.188-0.121 0.308t-0.308 0.121h-4.286q-0.188 0-0.308-0.121t-0.121-0.308v-0.857q0-0.188 0.121-0.308t0.308-0.121h3v-4.714q0-0.188 0.121-0.308t0.308-0.121h0.857q0.188 0 0.308 0.121t0.121 0.308z"></path>
</svg>
