<!-- Generated by IcoMoon.io -->
<svg version="1.1" xmlns="http://www.w3.org/2000/svg" width="24" height="24" viewBox="0 0 24 24">
<title>language</title>
<path d="M10.473 14.438q-0.013 0.040-0.167-0.007t-0.422-0.154l-0.268-0.121q-0.589-0.268-1.165-0.656-0.094-0.067-0.549-0.422t-0.509-0.382q-0.897 1.379-1.795 2.424-1.085 1.272-1.406 1.473-0.054 0.027-0.261 0.054t-0.248 0q0.080-0.054 1.098-1.232 0.281-0.321 1.145-1.54t1.051-1.58q0.228-0.402 0.683-1.319t0.482-1.038q-0.107-0.013-1.473 0.442-0.107 0.027-0.368 0.1t-0.462 0.127-0.228 0.067q-0.027 0.027-0.027 0.141t-0.013 0.127q-0.067 0.134-0.415 0.201-0.308 0.094-0.629 0-0.241-0.054-0.375-0.281-0.054-0.080-0.067-0.308 0.080-0.027 0.328-0.067t0.395-0.080q0.777-0.214 1.406-0.429 1.339-0.469 1.366-0.469 0.134-0.027 0.576-0.261t0.589-0.288q0.121-0.040 0.288-0.107t0.194-0.074 0.080 0.007q0.027 0.161-0.013 0.442 0 0.027-0.167 0.362t-0.355 0.717-0.228 0.449q-0.335 0.67-1.031 1.754l0.857 0.375q0.161 0.080 0.998 0.429t0.904 0.375q0.054 0.013 0.141 0.342t0.060 0.408zM7.728 7.929q0.040 0.201-0.054 0.375-0.161 0.308-0.67 0.509-0.402 0.161-0.804 0.161-0.348-0.040-0.656-0.348-0.188-0.201-0.241-0.549l0.013-0.040q0.040 0.040 0.261 0.067t0.355 0 0.777-0.214q0.482-0.161 0.737-0.188 0.228 0 0.281 0.228zM17.076 9.656l0.844 3.040-1.862-0.563zM2.237 20.371l9.295-3.107v-13.821l-9.295 3.121v13.808zM18.857 16.125l1.366 0.415-2.424-8.799-1.339-0.415-2.893 7.179 1.366 0.415 0.603-1.473 2.826 0.871zM12.121 3.241l7.674 2.464v-5.089zM16.286 20.96l2.116 0.174-0.723 2.143-0.536-0.884q-1.741 1.112-3.696 1.446-0.777 0.161-1.219 0.161h-1.125q-1.058 0-2.672-0.522t-2.458-1.138q-0.107-0.094-0.107-0.214 0-0.107 0.067-0.181t0.174-0.074q0.054 0 0.241 0.1t0.408 0.221 0.275 0.147q0.978 0.496 2.136 0.824t2.109 0.328q1.272 0 2.237-0.194t2.103-0.676q0.201-0.094 0.408-0.208t0.455-0.254 0.382-0.221zM22.286 6.509v14.451l-10.366-3.295q-0.188 0.080-5.022 1.708t-4.929 1.627q-0.174 0-0.241-0.174 0-0.013-0.013-0.040v-14.438q0.040-0.121 0.054-0.134 0.067-0.080 0.268-0.147 1.42-0.469 1.996-0.67v-5.143l7.473 2.652q0.027 0 2.15-0.737t4.232-1.453 2.163-0.717q0.268 0 0.268 0.281v5.598z"></path>
</svg>
