<!-- Generated by IcoMoon.io -->
<svg version="1.1" xmlns="http://www.w3.org/2000/svg" width="24" height="24" viewBox="0 0 24 24">
<title>life-ring</title>
<path d="M12 0q2.438 0 4.661 0.951t3.83 2.558 2.558 3.83 0.951 4.661-0.951 4.661-2.558 3.83-3.83 2.558-4.661 0.951-4.661-0.951-3.83-2.558-2.558-3.83-0.951-4.661 0.951-4.661 2.558-3.83 3.83-2.558 4.661-0.951zM12 1.714q-2.545 0-4.835 1.205l2.598 2.598q1.098-0.375 2.237-0.375t2.237 0.375l2.598-2.598q-2.29-1.205-4.835-1.205zM2.92 16.835l2.598-2.598q-0.375-1.098-0.375-2.237t0.375-2.237l-2.598-2.598q-1.205 2.29-1.205 4.835t1.205 4.835zM12 22.286q2.545 0 4.835-1.205l-2.598-2.598q-1.098 0.375-2.237 0.375t-2.237-0.375l-2.598 2.598q2.29 1.205 4.835 1.205zM12 17.143q2.129 0 3.636-1.507t1.507-3.636-1.507-3.636-3.636-1.507-3.636 1.507-1.507 3.636 1.507 3.636 3.636 1.507zM18.482 14.237l2.598 2.598q1.205-2.29 1.205-4.835t-1.205-4.835l-2.598 2.598q0.375 1.098 0.375 2.237t-0.375 2.237z"></path>
</svg>
