<!-- Generated by IcoMoon.io -->
<svg version="1.1" xmlns="http://www.w3.org/2000/svg" width="24" height="24" viewBox="0 0 24 24">
<title>lightbulb-o</title>
<path d="M15 7.714q0 0.174-0.127 0.301t-0.301 0.127-0.301-0.127-0.127-0.301q0-0.616-0.723-0.951t-1.42-0.335q-0.174 0-0.301-0.127t-0.127-0.301 0.127-0.301 0.301-0.127q0.67 0 1.333 0.214t1.165 0.723 0.502 1.205zM17.143 7.714q0-0.964-0.462-1.795t-1.205-1.359-1.647-0.83-1.828-0.301-1.828 0.301-1.647 0.83-1.205 1.359-0.462 1.795q0 1.353 0.911 2.411 0.134 0.147 0.408 0.442t0.408 0.442q1.714 2.049 1.888 3.991h3.054q0.174-1.942 1.888-3.991 0.134-0.147 0.408-0.442t0.408-0.442q0.911-1.058 0.911-2.411zM18.857 7.714q0 2.076-1.379 3.589-0.603 0.656-0.998 1.165t-0.797 1.279-0.455 1.44q0.629 0.375 0.629 1.098 0 0.496-0.335 0.857 0.335 0.362 0.335 0.857 0 0.696-0.603 1.085 0.174 0.308 0.174 0.629 0 0.616-0.422 0.951t-1.038 0.335q-0.268 0.589-0.804 0.938t-1.165 0.348-1.165-0.348-0.804-0.938q-0.616 0-1.038-0.335t-0.422-0.951q0-0.321 0.174-0.629-0.603-0.388-0.603-1.085 0-0.496 0.335-0.857-0.335-0.362-0.335-0.857 0-0.723 0.629-1.098-0.054-0.67-0.455-1.44t-0.797-1.279-0.998-1.165q-1.379-1.513-1.379-3.589 0-1.326 0.596-2.471t1.567-1.902 2.196-1.192 2.498-0.435 2.498 0.435 2.196 1.192 1.567 1.902 0.596 2.471z"></path>
</svg>
