<!-- Generated by IcoMoon.io -->
<svg version="1.1" xmlns="http://www.w3.org/2000/svg" width="24" height="24" viewBox="0 0 24 24">
<title>list</title>
<path d="M3.429 17.571v2.571q0 0.174-0.127 0.301t-0.301 0.127h-2.571q-0.174 0-0.301-0.127t-0.127-0.301v-2.571q0-0.174 0.127-0.301t0.301-0.127h2.571q0.174 0 0.301 0.127t0.127 0.301zM3.429 12.429v2.571q0 0.174-0.127 0.301t-0.301 0.127h-2.571q-0.174 0-0.301-0.127t-0.127-0.301v-2.571q0-0.174 0.127-0.301t0.301-0.127h2.571q0.174 0 0.301 0.127t0.127 0.301zM3.429 7.286v2.571q0 0.174-0.127 0.301t-0.301 0.127h-2.571q-0.174 0-0.301-0.127t-0.127-0.301v-2.571q0-0.174 0.127-0.301t0.301-0.127h2.571q0.174 0 0.301 0.127t0.127 0.301zM24 17.571v2.571q0 0.174-0.127 0.301t-0.301 0.127h-18q-0.174 0-0.301-0.127t-0.127-0.301v-2.571q0-0.174 0.127-0.301t0.301-0.127h18q0.174 0 0.301 0.127t0.127 0.301zM3.429 2.143v2.571q0 0.174-0.127 0.301t-0.301 0.127h-2.571q-0.174 0-0.301-0.127t-0.127-0.301v-2.571q0-0.174 0.127-0.301t0.301-0.127h2.571q0.174 0 0.301 0.127t0.127 0.301zM24 12.429v2.571q0 0.174-0.127 0.301t-0.301 0.127h-18q-0.174 0-0.301-0.127t-0.127-0.301v-2.571q0-0.174 0.127-0.301t0.301-0.127h18q0.174 0 0.301 0.127t0.127 0.301zM24 7.286v2.571q0 0.174-0.127 0.301t-0.301 0.127h-18q-0.174 0-0.301-0.127t-0.127-0.301v-2.571q0-0.174 0.127-0.301t0.301-0.127h18q0.174 0 0.301 0.127t0.127 0.301zM24 2.143v2.571q0 0.174-0.127 0.301t-0.301 0.127h-18q-0.174 0-0.301-0.127t-0.127-0.301v-2.571q0-0.174 0.127-0.301t0.301-0.127h18q0.174 0 0.301 0.127t0.127 0.301z"></path>
</svg>
