<!-- Generated by IcoMoon.io -->
<svg version="1.1" xmlns="http://www.w3.org/2000/svg" width="24" height="24" viewBox="0 0 24 24">
<title>menu</title>
<path d="M22.286 18v1.714q0 0.348-0.254 0.603t-0.603 0.254h-18.857q-0.348 0-0.603-0.254t-0.254-0.603v-1.714q0-0.348 0.254-0.603t0.603-0.254h18.857q0.348 0 0.603 0.254t0.254 0.603zM22.286 11.143v1.714q0 0.348-0.254 0.603t-0.603 0.254h-18.857q-0.348 0-0.603-0.254t-0.254-0.603v-1.714q0-0.348 0.254-0.603t0.603-0.254h18.857q0.348 0 0.603 0.254t0.254 0.603zM22.286 4.286v1.714q0 0.348-0.254 0.603t-0.603 0.254h-18.857q-0.348 0-0.603-0.254t-0.254-0.603v-1.714q0-0.348 0.254-0.603t0.603-0.254h18.857q0.348 0 0.603 0.254t0.254 0.603z"></path>
</svg>
