<!-- Generated by IcoMoon.io -->
<svg version="1.1" xmlns="http://www.w3.org/2000/svg" width="24" height="24" viewBox="0 0 24 24">
<title>paper-plane-o</title>
<path d="M23.625 0.147q0.442 0.321 0.362 0.857l-3.429 20.571q-0.067 0.388-0.429 0.603-0.188 0.107-0.415 0.107-0.147 0-0.321-0.067l-7.058-2.879-3.991 4.379q-0.241 0.281-0.629 0.281-0.188 0-0.308-0.054-0.254-0.094-0.402-0.315t-0.147-0.489v-6.054l-6.321-2.585q-0.496-0.188-0.536-0.737-0.040-0.522 0.429-0.79l22.286-12.857q0.469-0.281 0.911 0.027zM19.045 20.223l2.96-17.719-19.205 11.076 4.5 1.835 11.558-8.558-6.402 10.674z"></path>
</svg>
