<!-- Generated by IcoMoon.io -->
<svg version="1.1" xmlns="http://www.w3.org/2000/svg" width="24" height="24" viewBox="0 0 24 24">
<title>picture-o</title>
<path d="M8 8q0 1-0.7 1.7t-1.7 0.7-1.7-0.7-0.7-1.7 0.7-1.7 1.7-0.7 1.7 0.7 0.7 1.7zM20.8 12.8v5.6h-17.6v-2.4l4-4 2 2 6.4-6.4zM22 4h-20q-0.163 0-0.281 0.119t-0.119 0.281v15.2q0 0.163 0.119 0.281t0.281 0.119h20q0.163 0 0.281-0.119t0.119-0.281v-15.2q0-0.163-0.119-0.281t-0.281-0.119zM24 4.4v15.2q0 0.825-0.588 1.412t-1.412 0.588h-20q-0.825 0-1.412-0.588t-0.588-1.412v-15.2q0-0.825 0.588-1.412t1.412-0.588h20q0.825 0 1.412 0.588t0.588 1.412z"></path>
</svg>
