<!-- Generated by IcoMoon.io -->
<svg version="1.1" xmlns="http://www.w3.org/2000/svg" width="24" height="24" viewBox="0 0 24 24">
<title>plug</title>
<path d="M23.504 6.067q0.496 0.496 0.496 1.205t-0.496 1.219l-5.371 5.357 2.009 2.009-2.143 2.143q-2.183 2.183-5.217 2.498t-5.511-1.346l-4.848 4.848h-2.424v-2.424l4.848-4.848q-1.661-2.478-1.346-5.511t2.498-5.217l2.143-2.143 2.009 2.009 5.357-5.371q0.509-0.496 1.219-0.496t1.205 0.496 0.496 1.212-0.496 1.212l-5.357 5.371 3.134 3.134 5.371-5.357q0.509-0.496 1.219-0.496t1.205 0.496z"></path>
</svg>
