<!-- Generated by IcoMoon.io -->
<svg version="1.1" xmlns="http://www.w3.org/2000/svg" width="24" height="24" viewBox="0 0 24 24">
<title>plus</title>
<path d="M21.429 10.714v2.571q0 0.536-0.375 0.911t-0.911 0.375h-5.571v5.571q0 0.536-0.375 0.911t-0.911 0.375h-2.571q-0.536 0-0.911-0.375t-0.375-0.911v-5.571h-5.571q-0.536 0-0.911-0.375t-0.375-0.911v-2.571q0-0.536 0.375-0.911t0.911-0.375h5.571v-5.571q0-0.536 0.375-0.911t0.911-0.375h2.571q0.536 0 0.911 0.375t0.375 0.911v5.571h5.571q0.536 0 0.911 0.375t0.375 0.911z"></path>
</svg>
