<!-- Generated by IcoMoon.io -->
<svg version="1.1" xmlns="http://www.w3.org/2000/svg" width="24" height="24" viewBox="0 0 24 24">
<title>question-circle</title>
<path d="M13.714 18.429v-2.571q0-0.188-0.121-0.308t-0.308-0.121h-2.571q-0.188 0-0.308 0.121t-0.121 0.308v2.571q0 0.188 0.121 0.308t0.308 0.121h2.571q0.188 0 0.308-0.121t0.121-0.308zM17.143 9.429q0-1.179-0.743-2.183t-1.855-1.554-2.277-0.549q-3.254 0-4.969 2.853-0.201 0.321 0.107 0.563l1.768 1.339q0.094 0.080 0.254 0.080 0.214 0 0.335-0.161 0.71-0.911 1.152-1.232 0.455-0.321 1.152-0.321 0.643 0 1.145 0.348t0.502 0.79q0 0.509-0.268 0.817t-0.911 0.603q-0.844 0.375-1.547 1.158t-0.703 1.681v0.482q0 0.188 0.121 0.308t0.308 0.121h2.571q0.188 0 0.308-0.121t0.121-0.308q0-0.254 0.288-0.663t0.73-0.663q0.429-0.241 0.656-0.382t0.616-0.469 0.596-0.643 0.375-0.81 0.167-1.085zM22.286 12q0 2.799-1.379 5.163t-3.743 3.743-5.163 1.379-5.163-1.379-3.743-3.743-1.379-5.163 1.379-5.163 3.743-3.743 5.163-1.379 5.163 1.379 3.743 3.743 1.379 5.163z"></path>
</svg>
