<!-- Generated by IcoMoon.io -->
<svg version="1.1" xmlns="http://www.w3.org/2000/svg" width="24" height="24" viewBox="0 0 24 24">
<title>question-circle-o</title>
<path d="M13.5 16.071v2.143q0 0.188-0.121 0.308t-0.308 0.121h-2.143q-0.188 0-0.308-0.121t-0.121-0.308v-2.143q0-0.188 0.121-0.308t0.308-0.121h2.143q0.188 0 0.308 0.121t0.121 0.308zM16.929 9.429q0 0.67-0.201 1.205t-0.609 0.924-0.696 0.589-0.797 0.482q-0.429 0.241-0.623 0.375t-0.348 0.321-0.154 0.388v0.429q0 0.188-0.121 0.308t-0.308 0.121h-2.143q-0.188 0-0.308-0.121t-0.121-0.308v-0.911q0-0.469 0.141-0.864t0.321-0.636 0.522-0.475 0.549-0.342 0.596-0.281q0.71-0.335 1.004-0.576t0.295-0.656q0-0.563-0.583-0.958t-1.279-0.395q-0.75 0-1.272 0.362-0.388 0.268-1.071 1.112-0.121 0.161-0.335 0.161-0.147 0-0.254-0.080l-1.446-1.098q-0.134-0.094-0.161-0.268t0.067-0.308q1.634-2.571 4.674-2.571 1.728 0 3.194 1.199t1.467 2.873zM12 3.429q-1.741 0-3.328 0.683t-2.732 1.828-1.828 2.732-0.683 3.328 0.683 3.328 1.828 2.732 2.732 1.828 3.328 0.683 3.328-0.683 2.732-1.828 1.828-2.732 0.683-3.328-0.683-3.328-1.828-2.732-2.732-1.828-3.328-0.683zM22.286 12q0 2.799-1.379 5.163t-3.743 3.743-5.163 1.379-5.163-1.379-3.743-3.743-1.379-5.163 1.379-5.163 3.743-3.743 5.163-1.379 5.163 1.379 3.743 3.743 1.379 5.163z"></path>
</svg>
