<!-- Generated by IcoMoon.io -->
<svg version="1.1" xmlns="http://www.w3.org/2000/svg" width="24" height="24" viewBox="0 0 24 24">
<title>quote-right</title>
<path d="M11.143 5.143v9.429q0 1.393-0.542 2.658t-1.467 2.19-2.19 1.467-2.658 0.542h-0.857q-0.348 0-0.603-0.254t-0.254-0.603v-1.714q0-0.348 0.254-0.603t0.603-0.254h0.857q1.42 0 2.424-1.004t1.004-2.424v-0.429q0-0.536-0.375-0.911t-0.911-0.375h-3q-1.071 0-1.821-0.75t-0.75-1.821v-5.143q0-1.071 0.75-1.821t1.821-0.75h5.143q1.071 0 1.821 0.75t0.75 1.821zM23.143 5.143v9.429q0 1.393-0.542 2.658t-1.467 2.19-2.19 1.467-2.658 0.542h-0.857q-0.348 0-0.603-0.254t-0.254-0.603v-1.714q0-0.348 0.254-0.603t0.603-0.254h0.857q1.42 0 2.424-1.004t1.004-2.424v-0.429q0-0.536-0.375-0.911t-0.911-0.375h-3q-1.071 0-1.821-0.75t-0.75-1.821v-5.143q0-1.071 0.75-1.821t1.821-0.75h5.143q1.071 0 1.821 0.75t0.75 1.821z"></path>
</svg>
