<!-- Generated by IcoMoon.io -->
<svg version="1.1" xmlns="http://www.w3.org/2000/svg" width="24" height="24" viewBox="0 0 24 24">
<title>reply</title>
<path d="M24 15q0 2.223-1.701 6.040-0.040 0.094-0.141 0.321t-0.181 0.402-0.174 0.295q-0.161 0.228-0.375 0.228-0.201 0-0.315-0.134t-0.114-0.335q0-0.121 0.033-0.355t0.033-0.315q0.067-0.911 0.067-1.647 0-1.353-0.234-2.424t-0.65-1.855-1.071-1.353-1.413-0.931-1.781-0.569-2.063-0.288-2.35-0.080h-3v3.429q0 0.348-0.254 0.603t-0.603 0.254-0.603-0.254l-6.857-6.857q-0.254-0.254-0.254-0.603t0.254-0.603l6.857-6.857q0.254-0.254 0.603-0.254t0.603 0.254 0.254 0.603v3.429h3q9.549 0 11.719 5.397 0.71 1.795 0.71 4.46z"></path>
</svg>
