<!-- Generated by IcoMoon.io -->
<svg version="1.1" xmlns="http://www.w3.org/2000/svg" width="24" height="24" viewBox="0 0 24 24">
<title>rub</title>
<path d="M17.397 8.424q0-1.339-0.871-2.17t-2.29-0.83h-4.286v6h4.286q1.42 0 2.29-0.83t0.871-2.17zM20.571 8.424q0 2.585-1.694 4.219t-4.373 1.634h-4.554v1.58h6.763q0.188 0 0.308 0.121t0.121 0.308v1.714q0 0.188-0.121 0.308t-0.308 0.121h-6.763v2.571q0 0.188-0.127 0.308t-0.301 0.121h-2.237q-0.188 0-0.308-0.121t-0.121-0.308v-2.571h-3q-0.188 0-0.308-0.121t-0.121-0.308v-1.714q0-0.188 0.121-0.308t0.308-0.121h3v-1.58h-3q-0.188 0-0.308-0.121t-0.121-0.308v-1.996q0-0.174 0.121-0.301t0.308-0.127h3v-8.424q0-0.188 0.121-0.308t0.308-0.121h7.219q2.679 0 4.373 1.634t1.694 4.219z"></path>
</svg>
