<!-- Generated by IcoMoon.io -->
<svg version="1.1" xmlns="http://www.w3.org/2000/svg" width="24" height="24" viewBox="0 0 24 24">
<title>search</title>
<path d="M16.286 10.286q0-2.478-1.761-4.239t-4.239-1.761-4.239 1.761-1.761 4.239 1.761 4.239 4.239 1.761 4.239-1.761 1.761-4.239zM23.143 21.429q0 0.696-0.509 1.205t-1.205 0.509q-0.723 0-1.205-0.509l-4.594-4.58q-2.397 1.661-5.344 1.661-1.915 0-3.663-0.743t-3.013-2.009-2.009-3.013-0.743-3.663 0.743-3.663 2.009-3.013 3.013-2.009 3.663-0.743 3.663 0.743 3.013 2.009 2.009 3.013 0.743 3.663q0 2.946-1.661 5.344l4.594 4.594q0.496 0.496 0.496 1.205z"></path>
</svg>
