<!-- Generated by IcoMoon.io -->
<svg version="1.1" xmlns="http://www.w3.org/2000/svg" width="24" height="24" viewBox="0 0 24 24">
<title>sign-in</title>
<path d="M18.071 12q0 0.348-0.254 0.603l-7.286 7.286q-0.254 0.254-0.603 0.254t-0.603-0.254-0.254-0.603v-3.857h-6q-0.348 0-0.603-0.254t-0.254-0.603v-5.143q0-0.348 0.254-0.603t0.603-0.254h6v-3.857q0-0.348 0.254-0.603t0.603-0.254 0.603 0.254l7.286 7.286q0.254 0.254 0.254 0.603zM22.786 7.286v9.429q0 1.594-1.132 2.725t-2.725 1.132h-4.286q-0.174 0-0.301-0.127t-0.127-0.301q0-0.054-0.013-0.268t-0.007-0.355 0.040-0.315 0.134-0.261 0.275-0.087h4.286q0.884 0 1.513-0.629t0.629-1.513v-9.429q0-0.884-0.629-1.513t-1.513-0.629h-4.179t-0.154-0.013-0.154-0.040-0.107-0.074-0.094-0.121-0.027-0.181q0-0.054-0.013-0.268t-0.007-0.355 0.040-0.315 0.134-0.261 0.275-0.087h4.286q1.594 0 2.725 1.132t1.132 2.725z"></path>
</svg>
