<!-- Generated by IcoMoon.io -->
<svg version="1.1" xmlns="http://www.w3.org/2000/svg" width="24" height="24" viewBox="0 0 24 24">
<title>smile-o</title>
<path d="M16.902 14.397q-0.496 1.621-1.848 2.612t-3.054 0.991-3.054-0.991-1.848-2.612q-0.107-0.335 0.054-0.65t0.509-0.422q0.335-0.107 0.65 0.054t0.422 0.509q0.335 1.071 1.239 1.734t2.029 0.663 2.029-0.663 1.239-1.734q0.107-0.348 0.429-0.509t0.656-0.054 0.496 0.422 0.054 0.65zM10.286 8.571q0 0.71-0.502 1.212t-1.212 0.502-1.212-0.502-0.502-1.212 0.502-1.212 1.212-0.502 1.212 0.502 0.502 1.212zM17.143 8.571q0 0.71-0.502 1.212t-1.212 0.502-1.212-0.502-0.502-1.212 0.502-1.212 1.212-0.502 1.212 0.502 0.502 1.212zM20.571 12q0-1.741-0.683-3.328t-1.828-2.732-2.732-1.828-3.328-0.683-3.328 0.683-2.732 1.828-1.828 2.732-0.683 3.328 0.683 3.328 1.828 2.732 2.732 1.828 3.328 0.683 3.328-0.683 2.732-1.828 1.828-2.732 0.683-3.328zM22.286 12q0 2.799-1.379 5.163t-3.743 3.743-5.163 1.379-5.163-1.379-3.743-3.743-1.379-5.163 1.379-5.163 3.743-3.743 5.163-1.379 5.163 1.379 3.743 3.743 1.379 5.163z"></path>
</svg>
