<!-- Generated by IcoMoon.io -->
<svg version="1.1" xmlns="http://www.w3.org/2000/svg" width="24" height="24" viewBox="0 0 24 24">
<title>sort-amount-asc</title>
<path d="M9.857 19.286q0 0.161-0.134 0.321l-4.272 4.272q-0.134 0.121-0.308 0.121-0.161 0-0.308-0.121l-4.286-4.286q-0.201-0.214-0.094-0.469 0.107-0.268 0.402-0.268h2.571v-18.429q0-0.188 0.121-0.308t0.308-0.121h2.571q0.188 0 0.308 0.121t0.121 0.308v18.429h2.571q0.188 0 0.308 0.121t0.121 0.308zM24 21v2.571q0 0.188-0.121 0.308t-0.308 0.121h-11.143q-0.188 0-0.308-0.121t-0.121-0.308v-2.571q0-0.188 0.121-0.308t0.308-0.121h11.143q0.188 0 0.308 0.121t0.121 0.308zM21.429 14.143v2.571q0 0.188-0.121 0.308t-0.308 0.121h-8.571q-0.188 0-0.308-0.121t-0.121-0.308v-2.571q0-0.188 0.121-0.308t0.308-0.121h8.571q0.188 0 0.308 0.121t0.121 0.308zM18.857 7.286v2.571q0 0.188-0.121 0.308t-0.308 0.121h-6q-0.188 0-0.308-0.121t-0.121-0.308v-2.571q0-0.188 0.121-0.308t0.308-0.121h6q0.188 0 0.308 0.121t0.121 0.308zM16.286 0.429v2.571q0 0.188-0.121 0.308t-0.308 0.121h-3.429q-0.188 0-0.308-0.121t-0.121-0.308v-2.571q0-0.188 0.121-0.308t0.308-0.121h3.429q0.188 0 0.308 0.121t0.121 0.308z"></path>
</svg>
