<!-- Generated by IcoMoon.io -->
<svg version="1.1" xmlns="http://www.w3.org/2000/svg" width="24" height="24" viewBox="0 0 24 24">
<title>tags</title>
<path d="M5.662 6.471q0-0.67-0.474-1.144t-1.144-0.474-1.144 0.474-0.474 1.144 0.474 1.144 1.144 0.474 1.144-0.474 0.474-1.144zM19.147 13.75q0 0.67-0.468 1.137l-6.205 6.218q-0.493 0.468-1.15 0.468-0.67 0-1.137-0.468l-9.036-9.049q-0.48-0.468-0.815-1.276t-0.335-1.479v-5.258q0-0.657 0.48-1.137t1.137-0.48h5.258q0.67 0 1.479 0.335t1.289 0.815l9.036 9.024q0.468 0.493 0.468 1.15zM24 13.75q0 0.67-0.468 1.137l-6.205 6.218q-0.493 0.468-1.15 0.468-0.455 0-0.746-0.177t-0.67-0.569l5.94-5.94q0.468-0.468 0.468-1.137 0-0.657-0.468-1.15l-9.036-9.024q-0.48-0.48-1.289-0.815t-1.479-0.335h2.831q0.67 0 1.479 0.335t1.289 0.815l9.036 9.024q0.468 0.493 0.468 1.15z"></path>
</svg>
