<!-- Generated by IcoMoon.io -->
<svg version="1.1" xmlns="http://www.w3.org/2000/svg" width="24" height="24" viewBox="0 0 24 24">
<title>text-o</title>
<path d="M21.375 5.089q0.375 0.375 0.643 1.018t0.268 1.179v15.429q0 0.536-0.375 0.911t-0.911 0.375h-18q-0.536 0-0.911-0.375t-0.375-0.911v-21.429q0-0.536 0.375-0.911t0.911-0.375h12q0.536 0 1.179 0.268t1.018 0.643zM15.429 1.821v5.036h5.036q-0.134-0.388-0.295-0.549l-4.192-4.192q-0.161-0.161-0.549-0.295zM20.571 22.286v-13.714h-5.571q-0.536 0-0.911-0.375t-0.375-0.911v-5.571h-10.286v20.571h17.143zM6.857 10.714q0-0.188 0.121-0.308t0.308-0.121h9.429q0.188 0 0.308 0.121t0.121 0.308v0.857q0 0.188-0.121 0.308t-0.308 0.121h-9.429q-0.188 0-0.308-0.121t-0.121-0.308v-0.857zM16.714 13.714q0.188 0 0.308 0.121t0.121 0.308v0.857q0 0.188-0.121 0.308t-0.308 0.121h-9.429q-0.188 0-0.308-0.121t-0.121-0.308v-0.857q0-0.188 0.121-0.308t0.308-0.121h9.429zM16.714 17.143q0.188 0 0.308 0.121t0.121 0.308v0.857q0 0.188-0.121 0.308t-0.308 0.121h-9.429q-0.188 0-0.308-0.121t-0.121-0.308v-0.857q0-0.188 0.121-0.308t0.308-0.121h9.429z"></path>
</svg>
