<!-- Generated by IcoMoon.io -->
<svg version="1.1" xmlns="http://www.w3.org/2000/svg" width="24" height="24" viewBox="0 0 24 24">
<title>times</title>
<path d="M19.955 16.848q0 0.536-0.375 0.911l-1.821 1.821q-0.375 0.375-0.911 0.375t-0.911-0.375l-3.938-3.938-3.938 3.938q-0.375 0.375-0.911 0.375t-0.911-0.375l-1.821-1.821q-0.375-0.375-0.375-0.911t0.375-0.911l3.938-3.938-3.938-3.938q-0.375-0.375-0.375-0.911t0.375-0.911l1.821-1.821q0.375-0.375 0.911-0.375t0.911 0.375l3.938 3.938 3.938-3.938q0.375-0.375 0.911-0.375t0.911 0.375l1.821 1.821q0.375 0.375 0.375 0.911t-0.375 0.911l-3.938 3.938 3.938 3.938q0.375 0.375 0.375 0.911z"></path>
</svg>
