<!-- Generated by IcoMoon.io -->
<svg version="1.1" xmlns="http://www.w3.org/2000/svg" width="24" height="24" viewBox="0 0 24 24">
<title>trash</title>
<path d="M9.429 18.429v-9.429q0-0.188-0.121-0.308t-0.308-0.121h-0.857q-0.187 0-0.308 0.121t-0.121 0.308v9.429q0 0.188 0.121 0.308t0.308 0.121h0.857q0.188 0 0.308-0.121t0.121-0.308zM12.857 18.429v-9.429q0-0.188-0.121-0.308t-0.308-0.121h-0.857q-0.188 0-0.308 0.121t-0.121 0.308v9.429q0 0.188 0.121 0.308t0.308 0.121h0.857q0.188 0 0.308-0.121t0.121-0.308zM16.286 18.429v-9.429q0-0.188-0.121-0.308t-0.308-0.121h-0.857q-0.188 0-0.308 0.121t-0.121 0.308v9.429q0 0.188 0.121 0.308t0.308 0.121h0.857q0.187 0 0.308-0.121t0.121-0.308zM9 5.143h6l-0.643-1.567q-0.094-0.121-0.228-0.147h-4.246q-0.134 0.027-0.228 0.147zM21.429 5.571v0.857q0 0.188-0.121 0.308t-0.308 0.121h-1.286v12.696q0 1.112-0.629 1.922t-1.513 0.81h-11.143q-0.884 0-1.513-0.783t-0.629-1.895v-12.75h-1.286q-0.188 0-0.308-0.121t-0.121-0.308v-0.857q0-0.188 0.121-0.308t0.308-0.121h4.138l0.938-2.237q0.201-0.496 0.723-0.844t1.058-0.348h4.286q0.536 0 1.058 0.348t0.723 0.844l0.938 2.237h4.138q0.188 0 0.308 0.121t0.121 0.308z"></path>
</svg>
