<!-- Generated by IcoMoon.io -->
<svg version="1.1" xmlns="http://www.w3.org/2000/svg" width="24" height="24" viewBox="0 0 24 24">
<title>university</title>
<path d="M12 0.8l12 4.8v1.6h-1.6q0 0.325-0.256 0.563t-0.606 0.237h-19.075q-0.35 0-0.606-0.237t-0.256-0.563h-1.6v-1.6zM3.2 8.8h3.2v9.6h1.6v-9.6h3.2v9.6h1.6v-9.6h3.2v9.6h1.6v-9.6h3.2v9.6h0.737q0.35 0 0.606 0.237t0.256 0.563v0.8h-20.8v-0.8q0-0.325 0.256-0.563t0.606-0.237h0.737v-9.6zM23.138 20.8q0.35 0 0.606 0.237t0.256 0.563v1.6h-24v-1.6q0-0.325 0.256-0.563t0.606-0.237h22.275z"></path>
</svg>
