<!-- Generated by IcoMoon.io -->
<svg version="1.1" xmlns="http://www.w3.org/2000/svg" width="24" height="24" viewBox="0 0 24 24">
<title>untitled38</title>
<path d="M18.964 8.665q0.804 0 1.433 0.308 1.888 0.844 1.888 3.027v2.371q0 1.259-0.308 2.491l-1.138 4.54q-0.281 1.152-1.212 1.875t-2.109 0.723h-8.946q-1.42 0-2.424-1.004t-1.004-2.424v-5.371l-3.201-8.411q-0.228-0.603-0.228-1.219 0-1.42 1.004-2.424t2.424-1.004q1.071 0 1.949 0.609t1.252 1.6l0.228 0.589v-1.513q0-1.42 1.004-2.424t2.424-1.004 2.424 1.004 1.004 2.424v3.496q0.362-0.067 0.643-0.067 0.924 0 1.708 0.489t1.185 1.319zM16.071 8.571q-0.442 0-0.81 0.241t-0.556 0.643l-0.991 2.183-0.951 2.076h0.737q0.67 0 1.205 0.422t0.67 1.078l2.062-4.527q0.134-0.268 0.134-0.616 0-0.616-0.442-1.058t-1.058-0.442zM19.031 10.379q-0.295 0-0.542 0.107t-0.388 0.214-0.315 0.395-0.228 0.408-0.228 0.496l-1.768 3.884q-0.134 0.268-0.134 0.616 0 0.616 0.442 1.058t1.058 0.442q0.442 0 0.81-0.241t0.556-0.643l2.143-4.714q0.121-0.241 0.121-0.509 0-0.67-0.429-1.092t-1.098-0.422zM3.429 5.571q0 0.295 0.107 0.616l3.321 8.705v0.924l1.366-1.487q0.576-0.616 1.42-0.616h2.652l1.42-3.121v-7.165q0-0.71-0.502-1.212t-1.212-0.502-1.212 0.502-0.502 1.212v8.571h-0.857l-2.679-7.045q-0.188-0.496-0.629-0.797t-0.978-0.301q-0.71 0-1.212 0.502t-0.502 1.212zM17.518 22.286q0.589 0 1.051-0.362t0.609-0.938l1.138-4.54q0.254-0.978 0.254-2.076v-1.219l-1.888 4.152q-0.228 0.509-0.71 0.817t-1.045 0.308q-0.71 0-1.252-0.462t-0.65-1.158q-0.589 0.763-1.527 0.763h-2.786v-0.429h2.786q0.616 0 1.085-0.442t0.469-1.058-0.415-1.058-1.031-0.442h-3.964q-0.656 0-1.098 0.482l-1.688 1.821v4.125q0 0.71 0.502 1.212t1.212 0.502h8.946z"></path>
</svg>
