<!-- Generated by IcoMoon.io -->
<svg version="1.1" xmlns="http://www.w3.org/2000/svg" width="24" height="24" viewBox="0 0 24 24">
<title>upload</title>
<path d="M18 20.143q0-0.348-0.254-0.603t-0.603-0.254-0.603 0.254-0.254 0.603 0.254 0.603 0.603 0.254 0.603-0.254 0.254-0.603zM21.429 20.143q0-0.348-0.254-0.603t-0.603-0.254-0.603 0.254-0.254 0.603 0.254 0.603 0.603 0.254 0.603-0.254 0.254-0.603zM23.143 17.143v4.286q0 0.536-0.375 0.911t-0.911 0.375h-19.714q-0.536 0-0.911-0.375t-0.375-0.911v-4.286q0-0.536 0.375-0.911t0.911-0.375h5.719q0.281 0.75 0.944 1.232t1.48 0.482h3.429q0.817 0 1.48-0.482t0.944-1.232h5.719q0.536 0 0.911 0.375t0.375 0.911zM18.79 8.464q-0.228 0.536-0.79 0.536h-3.429v6q0 0.348-0.254 0.603t-0.603 0.254h-3.429q-0.348 0-0.603-0.254t-0.254-0.603v-6h-3.429q-0.563 0-0.79-0.536-0.228-0.522 0.188-0.924l6-6q0.241-0.254 0.603-0.254t0.603 0.254l6 6q0.415 0.402 0.188 0.924z"></path>
</svg>
