<!-- Generated by IcoMoon.io -->
<svg version="1.1" xmlns="http://www.w3.org/2000/svg" width="24" height="24" viewBox="0 0 24 24">
<title>users</title>
<path d="M7.413 12q-2.025 0.063-3.313 1.6h-1.675q-1.025 0-1.725-0.506t-0.7-1.481q0-4.412 1.55-4.412 0.075 0 0.544 0.262t1.219 0.531 1.488 0.269q0.838 0 1.662-0.288-0.063 0.462-0.063 0.825 0 1.738 1.012 3.2zM20.8 19.963q0 1.5-0.912 2.369t-2.425 0.869h-10.925q-1.512 0-2.425-0.869t-0.912-2.369q0-0.663 0.044-1.294t0.175-1.363 0.331-1.356 0.537-1.219 0.775-1.013 1.069-0.669 1.394-0.25q0.125 0 0.537 0.269t0.912 0.6 1.338 0.6 1.688 0.269 1.688-0.269 1.338-0.6 0.912-0.6 0.537-0.269q0.762 0 1.394 0.25t1.069 0.669 0.775 1.013 0.537 1.219 0.331 1.356 0.175 1.363 0.044 1.294zM8 4q0 1.325-0.938 2.263t-2.263 0.938-2.263-0.938-0.938-2.263 0.938-2.263 2.263-0.937 2.263 0.937 0.938 2.263zM16.8 8.8q0 1.988-1.406 3.394t-3.394 1.406-3.394-1.406-1.406-3.394 1.406-3.394 3.394-1.406 3.394 1.406 1.406 3.394zM24 11.613q0 0.975-0.7 1.481t-1.725 0.506h-1.675q-1.287-1.538-3.313-1.6 1.013-1.463 1.013-3.2 0-0.362-0.063-0.825 0.825 0.288 1.662 0.288 0.737 0 1.488-0.269t1.219-0.531 0.544-0.263q1.55 0 1.55 4.412zM22.4 4q0 1.325-0.938 2.263t-2.263 0.938-2.263-0.938-0.938-2.263 0.938-2.263 2.263-0.937 2.263 0.937 0.938 2.263z"></path>
</svg>
