<!-- Generated by IcoMoon.io -->
<svg version="1.1" xmlns="http://www.w3.org/2000/svg" width="24" height="24" viewBox="0 0 24 24">
<title>user-secret</title>
<path d="M10.286 21.429l1.286-6-1.286-1.714-1.714-0.857zM13.714 21.429l1.714-8.571-1.714 0.857-1.286 1.714zM15.857 7.902q-0.027-0.054-0.054-0.080-0.134-0.107-1.286-0.107-0.938 0-2.237 0.254-0.094 0.027-0.281 0.027t-0.281-0.027q-1.299-0.254-2.237-0.254-1.152 0-1.286 0.107-0.027 0.027-0.054 0.080 0.027 0.241 0.054 0.362 0.027 0.040 0.1 0.087t0.1 0.141q0.027 0.054 0.1 0.275t0.094 0.275 0.1 0.228 0.114 0.228 0.121 0.188 0.161 0.181 0.188 0.127 0.234 0.107 0.275 0.054 0.328 0.027q0.482 0 0.79-0.167t0.435-0.402 0.194-0.462 0.154-0.395 0.234-0.167h0.161q0.147 0 0.234 0.167t0.154 0.395 0.194 0.462 0.435 0.402 0.79 0.167q0.174 0 0.328-0.027t0.275-0.054 0.234-0.107 0.188-0.127 0.161-0.181 0.121-0.188 0.114-0.228 0.1-0.228 0.094-0.275 0.1-0.275q0.027-0.094 0.1-0.141t0.1-0.087q0.027-0.121 0.054-0.362zM21.429 19.674q0 1.621-0.978 2.545t-2.598 0.924h-11.705q-1.621 0-2.598-0.924t-0.978-2.545q0-0.817 0.060-1.58t0.254-1.681 0.502-1.654 0.85-1.386 1.252-0.998l-1.205-2.946h2.866q-0.295-0.857-0.295-1.714 0-0.161 0.027-0.429-2.598-0.536-2.598-1.286 0-0.763 2.813-1.326 0.228-0.83 0.69-1.795t0.944-1.527q0.429-0.496 1.018-0.496 0.402 0 1.125 0.415t1.125 0.415 1.125-0.415 1.125-0.415q0.589 0 1.018 0.496 0.482 0.563 0.944 1.527t0.69 1.795q2.813 0.563 2.813 1.326 0 0.75-2.598 1.286 0.094 1.085-0.268 2.143h2.866l-1.098 3.013q0.844 0.442 1.44 1.292t0.877 1.922 0.388 2.029 0.107 1.989z"></path>
</svg>
