<!-- Generated by IcoMoon.io -->
<svg version="1.1" xmlns="http://www.w3.org/2000/svg" width="24" height="24" viewBox="0 0 24 24">
<title>user-plus</title>
<path d="M8.25 12q-1.863 0-3.182-1.318t-1.318-3.182 1.318-3.182 3.182-1.318 3.182 1.318 1.318 3.182-1.318 3.182-3.182 1.318zM19.5 13.5h4.125q0.152 0 0.264 0.111t0.111 0.264v2.25q0 0.152-0.111 0.264t-0.264 0.111h-4.125v4.125q0 0.152-0.111 0.264t-0.264 0.111h-2.25q-0.152 0-0.264-0.111t-0.111-0.264v-4.125h-4.125q-0.152 0-0.264-0.111t-0.111-0.264v-2.25q0-0.152 0.111-0.264t0.264-0.111h4.125v-4.125q0-0.152 0.111-0.264t0.264-0.111h2.25q0.152 0 0.264 0.111t0.111 0.264v4.125zM10.875 16.125q0 0.609 0.445 1.055t1.055 0.445h3v2.789q-0.797 0.586-2.004 0.586h-10.242q-1.418 0-2.273-0.809t-0.855-2.227q0-0.621 0.041-1.213t0.164-1.277 0.311-1.271 0.504-1.143 0.727-0.949 1.002-0.627 1.307-0.234q0.223 0 0.457 0.199 0.926 0.715 1.811 1.072t1.928 0.357 1.928-0.357 1.811-1.072q0.234-0.199 0.457-0.199 1.547 0 2.543 1.125h-2.613q-0.609 0-1.055 0.445t-0.445 1.055v2.25z"></path>
</svg>
