<!-- Generated by IcoMoon.io -->
<svg version="1.1" xmlns="http://www.w3.org/2000/svg" width="24" height="24" viewBox="0 0 24 24">
<title>vk</title>
<path d="M23.716 6.195q0.284 0.791-1.855 3.635-0.297 0.396-0.804 1.051-0.964 1.236-1.113 1.62-0.21 0.507 0.173 1.002 0.21 0.26 1.002 1.014h0.012l0.049 0.049q1.743 1.62 2.362 2.733 0.037 0.062 0.080 0.155t0.087 0.328-0.006 0.42-0.309 0.34-0.73 0.155l-3.165 0.049q-0.297 0.062-0.692-0.062t-0.643-0.272l-0.247-0.148q-0.371-0.26-0.866-0.791t-0.847-0.958-0.754-0.717-0.699-0.192q-0.037 0.012-0.099 0.043t-0.21 0.179-0.266 0.365-0.21 0.643-0.080 0.958q0 0.185-0.043 0.34t-0.093 0.229l-0.049 0.062q-0.223 0.235-0.655 0.272h-1.422q-0.878 0.049-1.805-0.204t-1.626-0.655-1.274-0.816-0.872-0.711l-0.309-0.297q-0.124-0.124-0.34-0.371t-0.884-1.125-1.311-1.867-1.515-2.609-1.614-3.363q-0.074-0.198-0.074-0.334t0.037-0.198l0.049-0.074q0.185-0.235 0.705-0.235l3.388-0.025q0.148 0.025 0.284 0.080t0.198 0.105l0.062 0.037q0.198 0.136 0.297 0.396 0.247 0.618 0.569 1.28t0.507 1.008l0.198 0.359q0.359 0.742 0.692 1.286t0.6 0.847 0.513 0.476 0.42 0.173 0.334-0.062q0.025-0.012 0.062-0.062t0.148-0.272 0.167-0.581 0.117-1.002 0-1.546q-0.025-0.495-0.111-0.903t-0.173-0.569l-0.074-0.148q-0.309-0.42-1.051-0.532-0.161-0.025 0.062-0.297 0.21-0.235 0.47-0.371 0.655-0.321 2.955-0.297 1.014 0.012 1.669 0.161 0.247 0.062 0.414 0.167t0.253 0.297 0.13 0.396 0.043 0.563-0.012 0.68-0.031 0.872-0.019 1.020q0 0.136-0.012 0.519t-0.006 0.594 0.043 0.501 0.142 0.482 0.278 0.303q0.099 0.025 0.21 0.049t0.321-0.136 0.47-0.427 0.643-0.828 0.841-1.329q0.742-1.286 1.323-2.782 0.049-0.124 0.124-0.216t0.136-0.13l0.049-0.037 0.062-0.031t0.161-0.037 0.247-0.006l3.561-0.025q0.482-0.062 0.791 0.031t0.383 0.204z"></path>
</svg>
