<svg xmlns="http://www.w3.org/2000/svg"><symbol id="anchor" viewBox="0 0 24 24"><path d="M12.857 3.429q0-.348-.254-.603T12 2.572t-.603.254-.254.603.254.603.603.254.603-.254.254-.603zM24 15.857v4.714q0 .295-.268.402-.107.027-.161.027-.174 0-.308-.121l-1.246-1.246q-1.594 1.915-4.266 3.033t-5.752 1.118-5.752-1.118-4.266-3.033L.735 20.879Q.614 21 .427 21q-.054 0-.161-.027-.268-.107-.268-.402v-4.714q0-.188.121-.308t.308-.121h4.714q.295 0 .402.268.107.254-.094.469L4.11 17.504q.897 1.219 2.538 2.056t3.636 1.105V12H7.713q-.348 0-.603-.254t-.254-.603V9.429q0-.348.254-.603t.603-.254h2.571V6.389q-.777-.455-1.246-1.239t-.469-1.721q0-1.42 1.004-2.424T11.997.001t2.424 1.004 1.004 2.424q0 .938-.469 1.721T13.71 6.389v2.183h2.571q.348 0 .603.254t.254.603v1.714q0 .348-.254.603t-.603.254H13.71v8.665q1.996-.268 3.636-1.105t2.538-2.056l-1.339-1.339q-.201-.214-.094-.469.107-.268.402-.268h4.714q.188 0 .308.121t.121.308z"/></symbol><symbol id="archive" viewBox="0 0 24 24"><path d="M14.571 11.143q0-.348-.254-.603t-.603-.254h-3.429q-.348 0-.603.254t-.254.603.254.603.603.254h3.429q.348 0 .603-.254t.254-.603zm7.715-2.572v12.857q0 .348-.254.603t-.603.254H2.572q-.348 0-.603-.254t-.254-.603V8.571q0-.348.254-.603t.603-.254h18.857q.348 0 .603.254t.254.603zm.857-6V6q0 .348-.254.603t-.603.254H1.715q-.348 0-.603-.254T.858 6V2.571q0-.348.254-.603t.603-.254h20.571q.348 0 .603.254t.254.603z"/></symbol><symbol id="balance-scale" viewBox="0 0 24 24"><path d="M19.059 7.059l-4.235 7.765h8.471zm-14.118 0L.706 14.824h8.471zm9.055-2.118q-.154.441-.502.789t-.789.502v14.239h6.706q.154 0 .254.099t.099.254v.706q0 .154-.099.254t-.254.099H4.587q-.154 0-.254-.099t-.099-.254v-.706q0-.154.099-.254t.254-.099h6.706V6.232q-.441-.154-.789-.502t-.502-.789H4.587q-.154 0-.254-.099t-.099-.254v-.706q0-.154.099-.254t.254-.099h5.415q.232-.629.772-1.02t1.224-.392 1.224.392.772 1.02h5.415q.154 0 .254.099t.099.254v.706q0 .154-.099.254t-.254.099h-5.415zM12 5.118q.364 0 .623-.259t.259-.623-.259-.623T12 3.354t-.623.259-.259.623.259.623.623.259zm12 9.706q0 .805-.513 1.445t-1.296 1.004-1.594.546-1.539.182-1.539-.182-1.594-.546-1.296-1.004-.513-1.445q0-.121.386-.893t1.015-1.925 1.18-2.156 1.125-2.029.618-1.103q.199-.364.618-.364t.618.364l.618 1.103q.574 1.026 1.125 2.029t1.18 2.156 1.015 1.925.386.893zm-14.118 0q0 .805-.513 1.445t-1.296 1.004-1.594.546-1.539.182-1.539-.182-1.594-.546-1.296-1.004-.513-1.445q0-.121.386-.893t1.015-1.925 1.18-2.156 1.125-2.029.618-1.103q.199-.364.618-.364t.618.364l.618 1.103Q6.75 8.847 7.301 9.85t1.18 2.156 1.015 1.925.386.893z"/></symbol><symbol id="beer" viewBox="0 0 24 24"><path d="M9 12.857V7.714H5.571v3.429q0 .71.502 1.212t1.212.502h1.714zm13.714 6v2.571H7.285v-2.571l1.714-2.571H7.285q-2.129 0-3.636-1.507t-1.507-3.636V6.857L1.285 6l.429-1.714h6.429l.429-1.714h12.857l.429 2.571-.857.429v10.714z"/></symbol><symbol id="briefcase" viewBox="0 0 24 24"><path d="M8.571 5.143h6.857V3.429H8.571v1.714zM24 13.714v6.429q0 .884-.629 1.513t-1.513.629H2.144q-.884 0-1.513-.629t-.629-1.513v-6.429h9v2.143q0 .348.254.603t.603.254h4.286q.348 0 .603-.254t.254-.603v-2.143h9zm-10.286 0v1.714h-3.429v-1.714h3.429zM24 7.286v5.143H0V7.286q0-.884.629-1.513t1.513-.629h4.714V3.001q0-.536.375-.911t.911-.375h7.714q.536 0 .911.375t.375.911v2.143h4.714q.884 0 1.513.629t.629 1.513z"/></symbol><symbol id="building-o" viewBox="0 0 24 24"><path d="M7.714 17.571v.857q0 .174-.127.301t-.301.127h-.857q-.174 0-.301-.127t-.127-.301v-.857q0-.174.127-.301t.301-.127h.857q.174 0 .301.127t.127.301zm0-3.428V15q0 .174-.127.301t-.301.127h-.857q-.174 0-.301-.127T6.001 15v-.857q0-.174.127-.301t.301-.127h.857q.174 0 .301.127t.127.301zm3.429 0V15q0 .174-.127.301t-.301.127h-.857q-.174 0-.301-.127T9.43 15v-.857q0-.174.127-.301t.301-.127h.857q.174 0 .301.127t.127.301zm-3.429-3.429v.857q0 .174-.127.301t-.301.127h-.857q-.174 0-.301-.127t-.127-.301v-.857q0-.174.127-.301t.301-.127h.857q.174 0 .301.127t.127.301zM18 17.571v.857q0 .174-.127.301t-.301.127h-.857q-.174 0-.301-.127t-.127-.301v-.857q0-.174.127-.301t.301-.127h.857q.174 0 .301.127t.127.301zm-3.429-3.428V15q0 .174-.127.301t-.301.127h-.857q-.174 0-.301-.127T12.858 15v-.857q0-.174.127-.301t.301-.127h.857q.174 0 .301.127t.127.301zm-3.428-3.429v.857q0 .174-.127.301t-.301.127h-.857q-.174 0-.301-.127t-.127-.301v-.857q0-.174.127-.301t.301-.127h.857q.174 0 .301.127t.127.301zM7.714 7.286v.857q0 .174-.127.301t-.301.127h-.857q-.174 0-.301-.127t-.127-.301v-.857q0-.174.127-.301t.301-.127h.857q.174 0 .301.127t.127.301zM18 14.143V15q0 .174-.127.301t-.301.127h-.857q-.174 0-.301-.127T16.287 15v-.857q0-.174.127-.301t.301-.127h.857q.174 0 .301.127t.127.301zm-3.429-3.429v.857q0 .174-.127.301t-.301.127h-.857q-.174 0-.301-.127t-.127-.301v-.857q0-.174.127-.301t.301-.127h.857q.174 0 .301.127t.127.301zm-3.428-3.428v.857q0 .174-.127.301t-.301.127h-.857q-.174 0-.301-.127t-.127-.301v-.857q0-.174.127-.301t.301-.127h.857q.174 0 .301.127t.127.301zM7.714 3.857v.857q0 .174-.127.301t-.301.127h-.857q-.174 0-.301-.127t-.127-.301v-.857q0-.174.127-.301t.301-.127h.857q.174 0 .301.127t.127.301zM18 10.714v.857q0 .174-.127.301t-.301.127h-.857q-.174 0-.301-.127t-.127-.301v-.857q0-.174.127-.301t.301-.127h.857q.174 0 .301.127t.127.301zm-3.429-3.428v.857q0 .174-.127.301t-.301.127h-.857q-.174 0-.301-.127t-.127-.301v-.857q0-.174.127-.301t.301-.127h.857q.174 0 .301.127t.127.301zm-3.428-3.429v.857q0 .174-.127.301t-.301.127h-.857q-.174 0-.301-.127t-.127-.301v-.857q0-.174.127-.301t.301-.127h.857q.174 0 .301.127t.127.301zM18 7.286v.857q0 .174-.127.301t-.301.127h-.857q-.174 0-.301-.127t-.127-.301v-.857q0-.174.127-.301t.301-.127h.857q.174 0 .301.127t.127.301zm-3.429-3.429v.857q0 .174-.127.301t-.301.127h-.857q-.174 0-.301-.127t-.127-.301v-.857q0-.174.127-.301t.301-.127h.857q.174 0 .301.127t.127.301zm3.429 0v.857q0 .174-.127.301t-.301.127h-.857q-.174 0-.301-.127t-.127-.301v-.857q0-.174.127-.301t.301-.127h.857q.174 0 .301.127t.127.301zm-3.429 18.429h5.143V1.715H4.285v20.571h5.143v-3q0-.174.127-.301t.301-.127h4.286q.174 0 .301.127t.127.301v3zM21.429.857v22.286q0 .348-.254.603t-.603.254H3.429q-.348 0-.603-.254t-.254-.603V.857q0-.348.254-.603T3.429 0h17.143q.348 0 .603.254t.254.603z"/></symbol><symbol id="bullhorn" viewBox="0 0 24 24"><path d="M22.286 8.571q.71 0 1.212.502T24 10.285t-.502 1.212-1.212.502v5.143q0 .696-.509 1.205t-1.205.509q-5.585-4.647-10.875-5.089-.777.254-1.219.884t-.415 1.346.536 1.239q-.268.442-.308.877t.08.777.449.737.643.67.824.676q-.388.777-1.493 1.112t-2.257.154-1.768-.743q-.094-.308-.395-1.172t-.429-1.266-.308-1.192-.201-1.353.047-1.319.295-1.48H2.144q-.884 0-1.513-.629t-.629-1.513V9.001q0-.884.629-1.513t1.513-.629h6.429q5.826 0 12-5.143.696 0 1.205.509t.509 1.205v5.143zm-1.715 8.09V3.884q-5.277 4.045-10.286 4.594v3.616q5.049.563 10.286 4.567z"/></symbol><symbol id="calendar" viewBox="0 0 24 24"><path d="M2.571 22.286h3.857v-3.857H2.571v3.857zm4.715 0h4.286v-3.857H7.286v3.857zm-4.715-4.715h3.857v-4.286H2.571v4.286zm4.715 0h4.286v-4.286H7.286v4.286zm-4.715-5.142h3.857V8.572H2.571v3.857zm9.858 9.857h4.286v-3.857h-4.286v3.857zm-5.143-9.857h4.286V8.572H7.286v3.857zm10.285 9.857h3.857v-3.857h-3.857v3.857zm-5.142-4.715h4.286v-4.286h-4.286v4.286zM7.714 6V2.143q0-.174-.127-.301t-.301-.127h-.857q-.174 0-.301.127t-.127.301V6q0 .174.127.301t.301.127h.857q.174 0 .301-.127T7.714 6zm9.857 11.571h3.857v-4.286h-3.857v4.286zm-5.142-5.142h4.286V8.572h-4.286v3.857zm5.142 0h3.857V8.572h-3.857v3.857zM18 6V2.143q0-.174-.127-.301t-.301-.127h-.857q-.174 0-.301.127t-.127.301V6q0 .174.127.301t.301.127h.857q.174 0 .301-.127T18 6zm5.143-.857v17.143q0 .696-.509 1.205T21.429 24H2.572q-.696 0-1.205-.509t-.509-1.205V5.143q0-.696.509-1.205t1.205-.509h1.714V2.143q0-.884.629-1.513T6.428.001h.857q.884 0 1.513.629t.629 1.513v1.286h5.143V2.143q0-.884.629-1.513t1.513-.629h.857q.884 0 1.513.629t.629 1.513v1.286h1.714q.696 0 1.205.509t.509 1.205z"/></symbol><symbol id="check-circle-o" viewBox="0 0 24 24"><path d="M17.397 10.888l-5.652 5.652q-.254.254-.603.254t-.603-.254l-3.938-3.938q-.254-.254-.254-.603t.254-.603l1.366-1.366q.254-.254.603-.254t.603.254l1.969 1.969 3.683-3.683q.254-.254.603-.254t.603.254l1.366 1.366q.254.254.254.603t-.254.603zM19.286 12q0-1.982-.978-3.656t-2.652-2.652T12 4.714t-3.656.978-2.652 2.652T4.714 12t.978 3.656 2.652 2.652 3.656.978 3.656-.978 2.652-2.652.978-3.656zm3 0q0 2.799-1.379 5.163t-3.743 3.743-5.163 1.379-5.163-1.379-3.743-3.743T1.716 12t1.379-5.163 3.743-3.743 5.163-1.379 5.163 1.379 3.743 3.743T22.286 12z"/></symbol><symbol id="clock-o" viewBox="0 0 24 24"><path d="M13.714 7.286v6q0 .188-.121.308t-.308.121H8.999q-.188 0-.308-.121t-.121-.308v-.857q0-.188.121-.308T8.999 12h3V7.286q0-.188.121-.308t.308-.121h.857q.188 0 .308.121t.121.308zM19.286 12q0-1.982-.978-3.656t-2.652-2.652T12 4.714t-3.656.978-2.652 2.652T4.714 12t.978 3.656 2.652 2.652 3.656.978 3.656-.978 2.652-2.652.978-3.656zm3 0q0 2.799-1.379 5.163t-3.743 3.743-5.163 1.379-5.163-1.379-3.743-3.743T1.716 12t1.379-5.163 3.743-3.743 5.163-1.379 5.163 1.379 3.743 3.743T22.286 12z"/></symbol><symbol id="cloud" viewBox="0 0 24 24"><path d="M24 16q0 1.988-1.406 3.394T19.2 20.8H5.6q-2.312 0-3.956-1.644T0 15.2q0-1.65.887-3.019t2.337-2.044q-.025-.35-.025-.537 0-2.65 1.875-4.525T9.599 3.2q1.975 0 3.581 1.1t2.344 2.875q.875-.775 2.075-.775 1.325 0 2.262.938t.938 2.262q0 .938-.513 1.725 1.613.375 2.663 1.681T23.999 16z"/></symbol><symbol id="code-fork" viewBox="0 0 24 24"><path d="M9 19.714q0-.536-.375-.911t-.911-.375-.911.375-.375.911.375.911.911.375.911-.375.375-.911zM9 4.286q0-.536-.375-.911T7.714 3t-.911.375-.375.911.375.911.911.375.911-.375T9 4.286zM17.571 6q0-.536-.375-.911t-.911-.375-.911.375-.375.911.375.911.911.375.911-.375.375-.911zm1.286 0q0 .696-.348 1.292t-.938.931q-.027 3.844-3.027 5.545-.911.509-2.719 1.085-1.714.536-2.27.951t-.556 1.339v.348q.589.335.938.931t.348 1.292q0 1.071-.75 1.821t-1.821.75-1.821-.75-.75-1.821q0-.696.348-1.292t.937-.931V6.509q-.589-.335-.938-.931t-.348-1.292q0-1.071.75-1.821t1.821-.75 1.821.75.75 1.821q0 .696-.348 1.292t-.938.931v6.656q.723-.348 2.063-.763.737-.228 1.172-.395t.944-.415.79-.529.542-.683.375-.931.114-1.225q-.589-.335-.938-.931t-.348-1.292q0-1.071.75-1.821t1.821-.75 1.821.75.75 1.821z"/></symbol><symbol id="code" viewBox="0 0 24 24"><path d="M7.502 17.757l-.656.656q-.131.131-.302.131t-.302-.131L.131 12.302Q0 12.171 0 12t.131-.302l6.111-6.111q.131-.131.302-.131t.302.131l.656.656q.131.131.131.302t-.131.302l-5.154 5.154 5.154 5.154q.131.131.131.302t-.131.302zm7.75-13.993L10.36 20.695q-.052.171-.203.256t-.308.033l-.813-.223q-.171-.052-.256-.203t-.033-.321l4.892-16.931q.052-.171.203-.256t.308-.033l.813.223q.171.052.256.203t.033.321zm8.617 8.538l-6.111 6.111q-.131.131-.302.131t-.302-.131l-.656-.656q-.131-.131-.131-.302t.131-.302l5.154-5.154-5.154-5.154q-.131-.131-.131-.302t.131-.302l.656-.656q.131-.131.302-.131t.302.131l6.111 6.111q.131.131.131.302t-.131.302z"/></symbol><symbol id="coffee" viewBox="0 0 24 24"><path d="M21.517 7.862q0-1.034-.724-1.759t-1.759-.724h-.828v4.966h.828q1.034 0 1.759-.724t.724-1.759zM0 17.793h23.172q0 1.371-.97 2.341t-2.341.97H3.309q-1.371 0-2.341-.97t-.97-2.341zm24-9.931q0 2.056-1.455 3.511t-3.511 1.455h-.828v.414q0 1.19-.853 2.043t-2.043.853H6.207q-1.19 0-2.043-.853t-.853-2.043V3.725q0-.336.246-.582t.582-.246h14.897q2.056 0 3.511 1.455t1.455 3.511z"/></symbol><symbol id="cogs" viewBox="0 0 24 24"><path d="M11.2 11.994q0-1.325-.938-2.263t-2.263-.938-2.263.938-.938 2.263.938 2.263 2.263.938 2.263-.938.938-2.263zm9.6 6.4q0-.65-.475-1.125t-1.125-.475-1.125.475-.475 1.125q0 .663.469 1.131t1.131.469 1.131-.469.469-1.131zm0-12.8q0-.65-.475-1.125T19.2 3.994t-1.125.475-.475 1.125q0 .663.469 1.131t1.131.469 1.131-.469.469-1.131zM16 10.856v2.312q0 .125-.087.244t-.2.131l-1.937.3q-.138.438-.4.95.425.6 1.125 1.437.087.125.087.25 0 .15-.087.237-.288.375-1.031 1.119t-.981.744q-.138 0-.263-.087l-1.437-1.125q-.462.237-.963.387-.138 1.35-.288 1.937-.087.3-.375.3H6.838q-.138 0-.25-.094t-.125-.219l-.288-1.913q-.425-.125-.938-.387l-1.475 1.113q-.087.087-.25.087-.138 0-.262-.1-1.8-1.662-1.8-2 0-.112.087-.237.125-.175.513-.663t.588-.762q-.288-.55-.438-1.025l-1.9-.3q-.125-.012-.212-.119t-.087-.244v-2.312q0-.125.087-.244t.2-.131l1.937-.3q.138-.438.4-.95-.425-.6-1.125-1.437-.087-.138-.087-.25 0-.15.087-.25.275-.375 1.025-1.113t.987-.737q.138 0 .263.087l1.437 1.125q.425-.225.963-.4.138-1.35.288-1.925.087-.3.375-.3h2.325q.138 0 .25.094t.125.219l.288 1.913q.425.125.938.387l1.475-1.113q.1-.087.25-.087.138 0 .263.1 1.8 1.662 1.8 2 0 .112-.087.237-.15.2-.525.675t-.563.75q.288.6.425 1.025l1.9.288q.125.025.212.131t.087.244zm8 6.663v1.75q0 .2-1.863.387-.15.337-.375.65.637 1.412.637 1.725 0 .05-.05.087-1.525.887-1.55.887-.1 0-.575-.588t-.65-.85q-.25.025-.375.025t-.375-.025q-.175.262-.65.85t-.575.588q-.025 0-1.55-.887-.05-.038-.05-.087 0-.313.637-1.725-.225-.313-.375-.65-1.863-.188-1.863-.387v-1.75q0-.2 1.863-.387.163-.362.375-.65-.637-1.412-.637-1.725 0-.05.05-.087.05-.025.438-.25t.737-.425.375-.2q.1 0 .575.581t.65.844q.25-.025.375-.025t.375.025q.637-.887 1.15-1.4l.075-.025q.05 0 1.55.875.05.038.05.087 0 .313-.638 1.725.212.288.375.65 1.863.188 1.863.387zm0-12.8v1.75q0 .2-1.863.387-.15.338-.375.65.637 1.412.637 1.725 0 .05-.05.087-1.525.887-1.55.887-.1 0-.575-.588t-.65-.85q-.25.025-.375.025t-.375-.025q-.175.262-.65.85t-.575.588q-.025 0-1.55-.887-.05-.037-.05-.087 0-.313.637-1.725-.225-.313-.375-.65-1.863-.188-1.863-.387v-1.75q0-.2 1.863-.387.163-.362.375-.65-.637-1.412-.637-1.725 0-.05.05-.087.05-.025.438-.25t.737-.425.375-.2q.1 0 .575.581t.65.844q.25-.025.375-.025t.375.025q.637-.887 1.15-1.4l.075-.025q.05 0 1.55.875.05.037.05.087 0 .313-.638 1.725.212.288.375.65 1.863.188 1.863.387z"/></symbol><symbol id="comment-o" viewBox="0 0 24 24"><path d="M12 3.429q-2.732 0-5.109.931T3.114 6.871t-1.4 3.415q0 1.5.958 2.859t2.699 2.35l1.165.67-.362 1.286q-.321 1.219-.938 2.304 2.036-.844 3.683-2.29l.576-.509.763.08q.924.107 1.741.107 2.732 0 5.109-.931t3.777-2.511 1.4-3.415-1.4-3.415-3.777-2.511-5.109-.931zm12 6.857q0 2.33-1.607 4.306t-4.366 3.121T12 18.858q-.938 0-1.942-.107-2.652 2.344-6.161 3.241-.656.188-1.527.295h-.067q-.201 0-.362-.141t-.214-.368v-.013q-.04-.054-.007-.161t.027-.134.06-.127l.08-.121.094-.114.107-.121q.094-.107.415-.462t.462-.509.415-.529.435-.683.362-.79.348-1.018Q2.422 15.804 1.21 14.05t-1.212-3.763q0-2.33 1.607-4.306T5.971 2.86t6.027-1.145 6.027 1.145 4.366 3.121 1.607 4.306z"/></symbol><symbol id="comment" viewBox="0 0 24 24"><path d="M24 10.272q0 2.33-1.607 4.306t-4.366 3.121T12 18.844q-.938 0-1.942-.107-2.652 2.344-6.161 3.241-.656.188-1.527.295-.228.027-.408-.121t-.234-.388v-.013q-.04-.054-.007-.161t.027-.134.06-.127l.08-.121.094-.114.107-.121q.094-.107.415-.462t.462-.509.415-.529.435-.683.362-.79.348-1.018q-2.103-1.192-3.315-2.946t-1.212-3.763q0-1.741.951-3.328t2.558-2.739 3.83-1.828 4.661-.676q3.268 0 6.027 1.145t4.366 3.121 1.607 4.306z"/></symbol><symbol id="commenting-o" viewBox="0 0 24 24"><path d="M8.571 10.286q0 .71-.502 1.212T6.857 12t-1.212-.502-.502-1.212.502-1.212 1.212-.502 1.212.502.502 1.212zm5.143 0q0 .71-.502 1.212T12 12t-1.212-.502-.502-1.212.502-1.212T12 8.572t1.212.502.502 1.212zm5.143 0q0 .71-.502 1.212T17.143 12t-1.212-.502-.502-1.212.502-1.212 1.212-.502 1.212.502.502 1.212zM12 3.429q-2.732 0-5.109.931T3.114 6.871t-1.4 3.415q0 1.5.958 2.859t2.699 2.35l1.165.67-.362 1.286q-.321 1.219-.938 2.304 2.036-.844 3.683-2.29l.576-.509.763.08q.924.107 1.741.107 2.732 0 5.109-.931t3.777-2.511 1.4-3.415-1.4-3.415-3.777-2.511-5.109-.931zm12 6.857q0 2.33-1.607 4.306t-4.366 3.121T12 18.858q-.938 0-1.942-.107-2.652 2.344-6.161 3.241-.656.188-1.527.295h-.067q-.201 0-.362-.141t-.214-.368v-.013q-.04-.054-.007-.161t.027-.134.06-.127l.08-.121.094-.114.107-.121q.094-.107.415-.462t.462-.509.415-.529.435-.683.362-.79.348-1.018Q2.422 15.804 1.21 14.05t-1.212-3.763q0-1.741.951-3.328T3.507 4.22t3.83-1.828 4.661-.676 4.661.676 3.83 1.828 2.558 2.739.951 3.328z"/></symbol><symbol id="comments-o" viewBox="0 0 24 24"><path d="M9.429 4.279q-2.049 0-3.83.696T2.766 6.863 1.715 9.421q0 1.098.71 2.116t1.996 1.768l1.299.75-.469 1.125q.455-.268.83-.522l.589-.415.71.134q1.045.188 2.049.188 2.049 0 3.83-.696t2.833-1.888 1.051-2.558-1.051-2.558-2.833-1.888-3.83-.696zm0-1.714q2.558 0 4.734.917t3.435 2.498 1.259 3.442-1.259 3.442-3.435 2.498-4.734.917q-1.152 0-2.357-.214-1.661 1.179-3.723 1.714-.482.121-1.152.214h-.04q-.147 0-.275-.107t-.154-.281q-.013-.04-.013-.087t.007-.087.027-.08l.033-.067.047-.074.054-.067.06-.067.054-.06q.067-.08.308-.335t.348-.395.301-.388.335-.516.275-.589q-1.661-.964-2.612-2.371t-.951-3q0-1.862 1.259-3.442t3.435-2.498 4.734-.917zm11.008 15.656q.134.321.275.589t.335.516.301.388.348.395.308.335l.054.06.06.067q.019.02.054.067t.047.074l.033.067.027.08.007.087-.013.087q-.04.188-.174.295t-.295.094q-.67-.094-1.152-.214-2.063-.536-3.723-1.714-1.205.214-2.357.214-3.629 0-6.321-1.768.777.054 1.179.054 2.156 0 4.138-.603t3.536-1.728q1.674-1.232 2.571-2.839t.897-3.402q0-1.031-.308-2.036 1.728.951 2.732 2.384T24 12.85q0 1.607-.951 3.007t-2.612 2.364z"/></symbol><symbol id="comments" viewBox="0 0 24 24"><path d="M18.857 9.422q0 1.862-1.259 3.442t-3.435 2.498-4.734.917q-1.152 0-2.357-.214-1.661 1.179-3.723 1.714-.482.121-1.152.214h-.04q-.147 0-.275-.107t-.154-.281q-.013-.04-.013-.087t.007-.087.027-.08l.033-.067.047-.074.054-.067.06-.067.054-.06q.067-.08.308-.335t.348-.395.301-.388.335-.516.275-.589q-1.661-.964-2.612-2.371t-.951-3q0-1.862 1.259-3.442t3.435-2.498 4.734-.917 4.734.917 3.435 2.498 1.259 3.442zM24 12.85q0 1.607-.951 3.007t-2.612 2.364q.134.321.275.589t.335.516.301.388.348.395.308.335l.054.06.06.067q.019.02.054.067t.047.074l.033.067.027.08.007.087-.013.087q-.04.188-.174.295t-.295.094q-.67-.094-1.152-.214-2.063-.536-3.723-1.714-1.205.214-2.357.214-3.629 0-6.321-1.768.777.054 1.179.054 2.156 0 4.138-.603t3.536-1.728q1.674-1.232 2.571-2.839t.897-3.402q0-1.031-.308-2.036 1.728.951 2.732 2.384T24 12.85z"/></symbol><symbol id="cubes" viewBox="0 0 24 24"><path d="M7.059 20.118L11.294 18v-3.463l-4.235 1.809v3.772zm-.706-5.008l4.456-1.908-4.456-1.908-4.456 1.908zm12 5.008L22.588 18v-3.463l-4.235 1.809v3.772zm-.706-5.008l4.456-1.908-4.456-1.908-4.456 1.908zm-4.941-3.231l4.235-1.82V7.125l-4.235 1.809v2.945zM12 7.699l4.864-2.085L12 3.529 7.136 5.614zm12 5.713V18q0 .397-.21.739t-.574.518l-4.941 2.471q-.276.154-.629.154t-.629-.154l-4.941-2.471q-.055-.022-.077-.044-.022.022-.077.044l-4.941 2.471q-.276.154-.629.154t-.629-.154L.782 19.257q-.364-.176-.574-.518T-.002 18v-4.588q0-.419.237-.772t.623-.529l4.787-2.051V5.648q0-.419.237-.772t.623-.529l4.941-2.118q.254-.11.551-.11t.551.11l4.941 2.118q.386.176.623.529t.237.772v4.412l4.787 2.051q.397.176.629.529t.232.772z"/></symbol><symbol id="download" viewBox="0 0 24 24"><path d="M18 19.714q0-.348-.254-.603t-.603-.254-.603.254-.254.603.254.603.603.254.603-.254.254-.603zm3.429 0q0-.348-.254-.603t-.603-.254-.603.254-.254.603.254.603.603.254.603-.254.254-.603zm1.714-3V21q0 .536-.375.911t-.911.375H2.143q-.536 0-.911-.375T.857 21v-4.286q0-.536.375-.911t.911-.375h6.228l1.808 1.821q.777.75 1.821.75t1.821-.75l1.821-1.821h6.214q.536 0 .911.375t.375.911zm-4.353-7.62q.228.549-.188.938l-6 6q-.241.254-.603.254t-.603-.254l-6-6q-.415-.388-.188-.938.228-.522.79-.522h3.429v-6q0-.348.254-.603t.603-.254h3.429q.348 0 .603.254t.254.603v6h3.429q.563 0 .79.522z"/></symbol><symbol id="drupal" viewBox="0 0 24 24"><path d="M17.344 21.241q-.067-.254-.321-.067-.402.295-1.165.522t-1.754.228q-1.728 0-2.585-.656-.067-.054-.174-.054-.147 0-.348.161-.094.08-.1.214t.1.268q.455.429 1.172.616t1.373.167 1.326-.06q.549-.054 1.132-.275t.871-.402.382-.275q.161-.161.094-.388zm-.523-1.54q-.254-.629-.522-.817-.308-.201-1.018-.201-.629 0-.951.134-.388.161-1.045.75-.348.321-.161.589.121.107.234.06t.422-.315q.04-.027.141-.114t.141-.114.134-.094.154-.094.167-.067.201-.06.221-.033.275-.013q.362 0 .596.1t.308.194.181.295q.134.228.167.268t.167-.013q.308-.161.188-.455zm4.755-3.764q0-.295-.067-.596t-.221-.603-.455-.489-.703-.188q-.442 0-1.299.556t-1.728 1.118-1.353.563q-.362.013-.85-.254t-1.018-.656-1.118-.777-1.339-.656-1.487-.254q-1.54.013-2.638 1.051t-1.125 2.391q-.027 1.5.991 2.196.388.268.837.382t1.386.114q.763 0 1.768-.435t1.795-.951 1.607-.944 1.246-.415q.348.013.871.422t.958.897.911.904.743.429q.469.04.783-.188t.743-.844q.375-.549.569-1.353t.194-1.42zm.71-2.142q0 2.196-.83 4.078t-2.223 3.161-3.248 2.002-3.891.723-3.924-.77-3.315-2.103-2.283-3.234-.857-4.045q0-1.192.261-2.31t.656-1.949.944-1.587 1.051-1.259 1.051-.931.864-.623.569-.328q.188-.107.683-.355t.73-.382.643-.402.81-.589q.482-.375.777-.971T11.156.24q1.728 2.076 2.491 2.585.589.388 1.741.911t1.728.884q.281.174.522.335t.81.623 1.018.944 1.004 1.272.924 1.634.629 1.989.261 2.377z"/></symbol><symbol id="envelope" viewBox="0 0 24 24"><path d="M24 8.652v10.634q0 .884-.629 1.513t-1.513.629H2.144q-.884 0-1.513-.629t-.629-1.513V8.652q.589.656 1.353 1.165 4.848 3.295 6.656 4.621.763.563 1.239.877t1.266.643 1.473.328h.027q.683 0 1.473-.328t1.266-.643 1.239-.877q2.277-1.647 6.67-4.621.763-.522 1.339-1.165zm0-3.938q0 1.058-.656 2.022T21.71 8.383q-5.036 3.496-6.268 4.353-.134.094-.569.408t-.723.509-.696.435-.77.362-.67.121h-.027q-.308 0-.67-.121t-.77-.362-.696-.435-.723-.509-.569-.408q-1.219-.857-3.509-2.444T2.304 8.384q-.83-.563-1.567-1.547T0 5.009q0-1.045.556-1.741t1.587-.696h19.714q.871 0 1.507.629T24 4.714z"/></symbol><symbol id="eye" viewBox="0 0 24 24"><path d="M22.286 12q-2.036-3.161-5.103-4.728Q18 8.665 18 10.285q0 2.478-1.761 4.239T12 16.285t-4.239-1.761T6 10.285q0-1.621.817-3.013Q3.75 8.839 1.714 12q1.781 2.746 4.467 4.373T12 18t5.819-1.627T22.286 12zm-9.643-5.143q0-.268-.188-.455T12 6.214q-1.674 0-2.873 1.199t-1.199 2.873q0 .268.188.455t.455.188.455-.188.188-.455q0-1.152.817-1.969T12 7.5q.268 0 .455-.188t.188-.455zM24 12q0 .455-.268.924-1.875 3.08-5.042 4.935T12 19.714t-6.69-1.862-5.042-4.929Q0 12.454 0 11.999t.268-.924Q2.143 8.008 5.31 6.146T12 4.284t6.69 1.862 5.042 4.929q.268.469.268.924z"/></symbol><symbol id="facebook" viewBox="0 0 24 24"><path d="M17.786 1.875v3.536h-2.103q-1.152 0-1.554.482t-.402 1.446V9.87h3.924l-.522 3.964h-3.402v10.165H9.629V13.834H6.214V9.87h3.415V6.95q0-2.491 1.393-3.864t3.71-1.373q1.969 0 3.054.161z"/></symbol><symbol id="file-code-o" viewBox="0 0 24 24"><path d="M21.375 5.089q.375.375.643 1.018t.268 1.179v15.429q0 .536-.375.911t-.911.375H3q-.536 0-.911-.375t-.375-.911V1.286q0-.536.375-.911T3 0h12q.536 0 1.179.268t1.018.643zm-5.946-3.268v5.036h5.036q-.134-.388-.295-.549l-4.192-4.192q-.161-.161-.549-.295zm5.142 20.465V8.572H15q-.536 0-.911-.375t-.375-.911V1.715H3.428v20.571h17.143zm-12.428-12q.107-.147.281-.167t.321.087l.683.509q.147.107.167.281t-.087.321L7.07 14.571l2.438 3.254q.107.147.087.321t-.167.281l-.683.509q-.147.107-.321.087t-.281-.167l-3.027-4.031q-.188-.254 0-.509zm10.741 4.031q.188.254 0 .509l-3.027 4.031q-.107.147-.281.167t-.321-.087l-.683-.509q-.147-.107-.167-.281t.087-.321l2.438-3.254-2.438-3.254q-.107-.147-.087-.321t.167-.281l.683-.509q.147-.107.321-.087t.281.167zm-8.304 6.174q-.174-.027-.275-.174t-.074-.321l1.848-11.129q.027-.174.174-.275t.321-.074l.844.134q.174.027.275.174t.074.321l-1.848 11.129q-.027.174-.174.275t-.321.074z"/></symbol><symbol id="file-o" viewBox="0 0 24 24"><path d="M21.375 5.089q.375.375.643 1.018t.268 1.179v15.429q0 .536-.375.911t-.911.375H3q-.536 0-.911-.375t-.375-.911V1.286q0-.536.375-.911T3 0h12q.536 0 1.179.268t1.018.643zm-5.946-3.268v5.036h5.036q-.134-.388-.295-.549l-4.192-4.192q-.161-.161-.549-.295zm5.142 20.465V8.572H15q-.536 0-.911-.375t-.375-.911V1.715H3.428v20.571h17.143z"/></symbol><symbol id="file" viewBox="0 0 24 24"><path d="M15.429 6.857V.536q.295.188.482.375l5.464 5.464q.188.188.375.482h-6.321zm-1.715.429q0 .536.375.911t.911.375h7.286v14.143q0 .536-.375.911t-.911.375H3q-.536 0-.911-.375t-.375-.911V1.286q0-.536.375-.911T3 0h10.714v7.286z"/></symbol><symbol id="floppy-o" viewBox="0 0 24 24"><path d="M6.857 20.571h10.286v-5.143H6.857v5.143zm12 0h1.714v-12q0-.188-.134-.516t-.268-.462L16.406 3.83q-.134-.134-.455-.268t-.522-.134v5.571q0 .536-.375.911t-.911.375H6.429q-.536 0-.911-.375t-.375-.911V3.428H3.429v17.143h1.714V15q0-.536.375-.911t.911-.375h11.143q.536 0 .911.375t.375.911v5.571zM13.714 8.143V3.857q0-.174-.127-.301t-.301-.127h-2.571q-.174 0-.301.127t-.127.301v4.286q0 .174.127.301t.301.127h2.571q.174 0 .301-.127t.127-.301zm8.572.428V21q0 .536-.375.911t-.911.375H3q-.536 0-.911-.375T1.714 21V3q0-.536.375-.911T3 1.714h12.429q.536 0 1.179.268t1.018.643l3.75 3.75q.375.375.643 1.018t.268 1.179z"/></symbol><symbol id="folder-open" viewBox="0 0 24 24"><path d="M24 13.533q0 .396-.396.843l-4.292 5.058q-.549.651-1.539 1.105t-1.833.453H2.043q-.434 0-.773-.166t-.338-.549q0-.396.396-.843l4.292-5.058q.549-.651 1.539-1.105t1.833-.453h13.897q.434 0 .773.166t.338.549zm-4.381-4.394v2.044H8.992q-1.201 0-2.516.607t-2.095 1.526L.013 18.451q0-.051-.006-.16t-.006-.16V5.869q0-1.175.843-2.018t2.018-.843h4.087q1.175 0 2.018.843t.843 2.018v.409h6.948q1.175 0 2.018.843t.843 2.018z"/></symbol><symbol id="github" viewBox="0 0 24 24"><path d="M12 1.942q2.799 0 5.163 1.379t3.743 3.743 1.379 5.163q0 3.362-1.962 6.047t-5.069 3.717q-.362.067-.536-.094t-.174-.402l.007-1.025q.007-.985.007-1.801 0-1.299-.696-1.902.763-.08 1.373-.241t1.259-.522 1.085-.891.71-1.406.275-2.016q0-1.594-1.058-2.759.496-1.219-.107-2.732-.375-.121-1.085.147t-1.232.589l-.509.321q-1.246-.348-2.571-.348t-2.571.348q-.214-.147-.569-.362t-1.118-.516-1.138-.181q-.603 1.513-.107 2.732-1.058 1.165-1.058 2.759 0 1.138.275 2.009t.703 1.406 1.078.897 1.259.522 1.373.241q-.522.482-.656 1.379-.281.134-.603.201t-.763.067-.877-.288-.743-.837q-.254-.429-.65-.696t-.663-.321l-.268-.04q-.281 0-.388.06t-.067.154.121.188.174.161l.094.067q.295.134.583.509t.422.683l.134.308q.174.509.589.824t.897.402.931.094.743-.047l.308-.054q0 .509.007 1.185t.007.73q0 .241-.174.402t-.536.094q-3.107-1.031-5.069-3.717T1.72 12.225q0-2.799 1.379-5.163t3.743-3.743 5.163-1.379zM5.612 16.714q.04-.094-.094-.161-.134-.04-.174.027-.04.094.094.161.121.08.174-.027zm.415.456q.094-.067-.027-.214-.134-.121-.214-.04-.094.067.027.214.134.134.214.04zm.402.602q.121-.094 0-.254-.107-.174-.228-.08-.121.067 0 .241t.228.094zm.562.563q.107-.107-.054-.254-.161-.161-.268-.04-.121.107.054.254.161.161.268.04zm.763.335q.04-.147-.174-.214-.201-.054-.254.094t.174.201q.201.08.254-.08zm.844.067q0-.174-.228-.147-.214 0-.214.147 0 .174.228.147.214 0 .214-.147zm.777-.134q-.027-.147-.241-.121-.214.04-.188.201t.241.107.188-.188z"/></symbol><symbol id="google" viewBox="0 0 24 24"><path d="M12.208 10.527h9.71q.161.897.161 1.714 0 2.906-1.219 5.19T17.385 21t-5.176 1.286q-2.103 0-4.004-.81t-3.281-2.19-2.19-3.281-.81-4.004.81-4.004 2.19-3.281 3.281-2.19 4.004-.81q4.018 0 6.897 2.692L16.307 7.1q-1.647-1.594-4.098-1.594-1.728 0-3.194.871T6.691 8.741t-.857 3.261.857 3.261 2.324 2.364 3.194.871q1.165 0 2.143-.321t1.607-.804 1.098-1.098.69-1.165.301-1.045h-5.839v-3.536z"/></symbol><symbol id="graduation-cap" viewBox="0 0 24 24"><path d="M18.479 11.375l.188 3.292q.042.719-.854 1.333t-2.448.974-3.365.359-3.365-.359T6.187 16t-.854-1.333l.188-3.292L11.5 13.26q.229.073.5.073t.5-.073zM24 8q0 .24-.229.323L12.104 11.99Q12.062 12 12 12t-.104-.01L5.104 9.844q-.448.354-.74 1.161t-.354 1.859q.656.375.656 1.135 0 .719-.604 1.115l.604 4.51q.021.146-.083.26-.094.115-.25.115h-2q-.156 0-.25-.115-.104-.115-.083-.26l.604-4.51Q2 14.718 2 13.999q0-.76.677-1.156.115-2.156 1.021-3.437L.229 8.323Q0 8.24 0 8t.229-.323L11.896 4.01Q11.938 4 12 4t.104.01l11.667 3.667Q24 7.76 24 8z"/></symbol><symbol id="hand-spock-o" viewBox="0 0 24 24"><path d="M10.2 2.4q-.6 0-.994.425T8.812 3.85q0 .175.037.35l1.875 7.8h-.325l-1.45-6.025Q8.836 5.5 8.455 5.2t-.869-.3q-.588 0-.988.425t-.4 1.013q0 .138.05.362.038.163.487 2.013t.85 3.525.4 1.725V16.8l-3.838-2.875q-.425-.325-.963-.325-.65 0-1.119.456t-.469 1.106q0 .838.7 1.375l6.338 4.737q.425.325.95.325h8.675q.413 0 .737-.256t.425-.656l1.25-5.013q.1-.375.125-1.1t.113-1.075l1.45-5.975q.038-.15.038-.325 0-.575-.413-.988t-1-.412q-.475 0-.863.319t-.5.781l-1.237 5.1h-.325l1.65-6.837q.037-.175.037-.35 0-.588-.4-1t-1-.412q-.475 0-.856.3t-.494.775L15.184 12h-1.587l-2.05-8.525Q11.435 3 11.053 2.7t-.856-.3zm8.063 20.8H9.588q-1.062 0-1.912-.637l-6.337-4.75q-.625-.475-.981-1.175t-.356-1.475q0-1.313.938-2.238T3.19 12q.313 0 .619.069t.519.138.513.256.438.288.481.369.469.356l-1.537-6.4q-.087-.438-.087-.737 0-1.163.75-2.025t1.9-.988Q7.43 2.239 8.261 1.52t1.944-.719q1.038 0 1.85.644t1.062 1.656l1.287 5.35 1.038-4.35q.25-1.013 1.062-1.656t1.85-.644q1.087 0 1.906.675t1.031 1.738q1.162.125 1.937.975t.775 2.013q0 .375-.087.712l-1.45 5.962q-.063.275-.063.838 0 .638-.163 1.35l-1.262 5.013q-.237.938-.994 1.531t-1.719.594z"/></symbol><symbol id="hdd-o" viewBox="0 0 24 24"><path d="M15.643 16.286q0 .442-.315.757t-.757.315-.757-.315-.315-.757.315-.757.757-.315.757.315.315.757zm3.428 0q0 .442-.315.757t-.757.315-.757-.315-.315-.757.315-.757.757-.315.757.315.315.757zm1.5 2.143v-4.286q0-.174-.127-.301t-.301-.127H3.857q-.174 0-.301.127t-.127.301v4.286q0 .174.127.301t.301.127h16.286q.174 0 .301-.127t.127-.301zM4.098 12h15.804l-2.103-6.455q-.054-.174-.214-.288t-.348-.114H6.764q-.188 0-.348.114t-.214.288zm18.188 2.143v4.286q0 .884-.629 1.513t-1.513.629H3.858q-.884 0-1.513-.629t-.629-1.513v-4.286q0-.335.214-1.004l2.638-8.116q.228-.71.844-1.152t1.353-.442h10.473q.737 0 1.353.442t.844 1.152l2.638 8.116q.214.67.214 1.004z"/></symbol><symbol id="heart" viewBox="0 0 24 24"><path d="M12 22.286q-.348 0-.589-.241l-8.357-8.063q-.134-.107-.368-.348t-.743-.877-.911-1.306T.315 9.83 0 7.982q0-2.946 1.701-4.607t4.701-1.661q.83 0 1.694.288t1.607.777 1.279.917T12 4.607q.482-.482 1.018-.911t1.279-.917 1.607-.777 1.694-.288q3 0 4.701 1.661T24 7.982q0 2.96-3.067 6.027l-8.344 8.036q-.241.241-.589.241z"/></symbol><symbol id="history" viewBox="0 0 24 24"><path d="M22.286 12q0 2.089-.817 3.991t-2.196 3.281-3.281 2.196-3.991.817q-2.304 0-4.379-.971t-3.536-2.739q-.094-.134-.087-.301t.114-.275l1.835-1.848q.134-.121.335-.121.214.027.308.161.978 1.272 2.397 1.969t3.013.696q1.393 0 2.658-.542t2.19-1.467 1.467-2.19.542-2.658-.542-2.658-1.467-2.19-2.19-1.467-2.658-.542q-1.313 0-2.518.475T7.34 6.976l1.835 1.848q.415.402.188.924-.228.536-.79.536h-6q-.348 0-.603-.254t-.254-.603v-6q0-.563.536-.79.522-.228.924.188l1.741 1.728Q6.35 3.2 8.192 2.457t3.81-.743q2.089 0 3.991.817t3.281 2.196 2.196 3.281.817 3.991zm-8.572-3.857v6q0 .188-.121.308t-.308.121H8.999q-.188 0-.308-.121t-.121-.308v-.857q0-.188.121-.308t.308-.121h3V8.143q0-.188.121-.308t.308-.121h.857q.188 0 .308.121t.121.308z"/></symbol><symbol id="language" viewBox="0 0 24 24"><path d="M10.473 14.438q-.013.04-.167-.007t-.422-.154l-.268-.121q-.589-.268-1.165-.656-.094-.067-.549-.422t-.509-.382q-.897 1.379-1.795 2.424-1.085 1.272-1.406 1.473-.054.027-.261.054t-.248 0q.08-.054 1.098-1.232.281-.321 1.145-1.54t1.051-1.58q.228-.402.683-1.319t.482-1.038q-.107-.013-1.473.442-.107.027-.368.1t-.462.127-.228.067q-.027.027-.027.141t-.013.127q-.067.134-.415.201-.308.094-.629 0-.241-.054-.375-.281-.054-.08-.067-.308.08-.027.328-.067t.395-.08q.777-.214 1.406-.429 1.339-.469 1.366-.469.134-.027.576-.261t.589-.288q.121-.04.288-.107t.194-.074.08.007q.027.161-.013.442 0 .027-.167.362t-.355.717-.228.449q-.335.67-1.031 1.754l.857.375q.161.08.998.429t.904.375q.054.013.141.342t.06.408zM7.728 7.929q.04.201-.054.375-.161.308-.67.509-.402.161-.804.161-.348-.04-.656-.348-.188-.201-.241-.549l.013-.04q.04.04.261.067t.355 0 .777-.214q.482-.161.737-.188.228 0 .281.228zm9.348 1.727l.844 3.04-1.862-.563zM2.237 20.371l9.295-3.107V3.443L2.237 6.564v13.808zm16.62-4.246l1.366.415-2.424-8.799-1.339-.415-2.893 7.179 1.366.415.603-1.473 2.826.871zM12.121 3.241l7.674 2.464V.616zm4.165 17.719l2.116.174-.723 2.143-.536-.884q-1.741 1.112-3.696 1.446-.777.161-1.219.161h-1.125q-1.058 0-2.672-.522T5.973 22.34q-.107-.094-.107-.214 0-.107.067-.181t.174-.074q.054 0 .241.1t.408.221.275.147q.978.496 2.136.824t2.109.328q1.272 0 2.237-.194t2.103-.676q.201-.094.408-.208t.455-.254.382-.221zm6-14.451V20.96L11.92 17.665q-.188.08-5.022 1.708T1.969 21q-.174 0-.241-.174 0-.013-.013-.04V6.348q.04-.121.054-.134.067-.08.268-.147 1.42-.469 1.996-.67V.254l7.473 2.652q.027 0 2.15-.737T17.888.716t2.163-.717q.268 0 .268.281v5.598z"/></symbol><symbol id="life-ring" viewBox="0 0 24 24"><path d="M12 0q2.438 0 4.661.951t3.83 2.558 2.558 3.83T24 12t-.951 4.661-2.558 3.83-3.83 2.558T12 24t-4.661-.951-3.83-2.558-2.558-3.83T0 12t.951-4.661 2.558-3.83T7.339.951 12 0zm0 1.714q-2.545 0-4.835 1.205l2.598 2.598q1.098-.375 2.237-.375t2.237.375l2.598-2.598Q14.545 1.714 12 1.714zM2.92 16.835l2.598-2.598Q5.143 13.139 5.143 12t.375-2.237L2.92 7.165Q1.715 9.455 1.715 12t1.205 4.835zM12 22.286q2.545 0 4.835-1.205l-2.598-2.598q-1.098.375-2.237.375t-2.237-.375l-2.598 2.598q2.29 1.205 4.835 1.205zm0-5.143q2.129 0 3.636-1.507T17.143 12t-1.507-3.636T12 6.857 8.364 8.364 6.857 12t1.507 3.636T12 17.143zm6.482-2.906l2.598 2.598q1.205-2.29 1.205-4.835T21.08 7.165l-2.598 2.598q.375 1.098.375 2.237t-.375 2.237z"/></symbol><symbol id="lightbulb-o" viewBox="0 0 24 24"><path d="M15 7.714q0 .174-.127.301t-.301.127-.301-.127-.127-.301q0-.616-.723-.951t-1.42-.335q-.174 0-.301-.127T11.573 6t.127-.301.301-.127q.67 0 1.333.214t1.165.723.502 1.205zm2.143 0q0-.964-.462-1.795T15.476 4.56t-1.647-.83-1.828-.301-1.828.301-1.647.83-1.205 1.359-.462 1.795q0 1.353.911 2.411.134.147.408.442t.408.442Q10.3 13.058 10.474 15h3.054q.174-1.942 1.888-3.991.134-.147.408-.442t.408-.442q.911-1.058.911-2.411zm1.714 0q0 2.076-1.379 3.589-.603.656-.998 1.165t-.797 1.279-.455 1.44q.629.375.629 1.098 0 .496-.335.857.335.362.335.857 0 .696-.603 1.085.174.308.174.629 0 .616-.422.951t-1.038.335q-.268.589-.804.938t-1.165.348-1.165-.348-.804-.938q-.616 0-1.038-.335t-.422-.951q0-.321.174-.629-.603-.388-.603-1.085 0-.496.335-.857-.335-.362-.335-.857 0-.723.629-1.098-.054-.67-.455-1.44t-.797-1.279-.998-1.165Q5.141 9.79 5.141 7.714q0-1.326.596-2.471t1.567-1.902T9.5 2.149t2.498-.435 2.498.435 2.196 1.192 1.567 1.902.596 2.471z"/></symbol><symbol id="list" viewBox="0 0 24 24"><path d="M3.429 17.571v2.571q0 .174-.127.301t-.301.127H.43q-.174 0-.301-.127t-.127-.301v-2.571q0-.174.127-.301t.301-.127h2.571q.174 0 .301.127t.127.301zm0-5.142V15q0 .174-.127.301t-.301.127H.43q-.174 0-.301-.127T.002 15v-2.571q0-.174.127-.301t.301-.127h2.571q.174 0 .301.127t.127.301zm0-5.143v2.571q0 .174-.127.301t-.301.127H.43q-.174 0-.301-.127t-.127-.301V7.286q0-.174.127-.301t.301-.127h2.571q.174 0 .301.127t.127.301zM24 17.571v2.571q0 .174-.127.301t-.301.127h-18q-.174 0-.301-.127t-.127-.301v-2.571q0-.174.127-.301t.301-.127h18q.174 0 .301.127t.127.301zM3.429 2.143v2.571q0 .174-.127.301t-.301.127H.43q-.174 0-.301-.127t-.127-.301V2.143q0-.174.127-.301t.301-.127h2.571q.174 0 .301.127t.127.301zM24 12.429V15q0 .174-.127.301t-.301.127h-18q-.174 0-.301-.127T5.144 15v-2.571q0-.174.127-.301t.301-.127h18q.174 0 .301.127t.127.301zm0-5.143v2.571q0 .174-.127.301t-.301.127h-18q-.174 0-.301-.127t-.127-.301V7.286q0-.174.127-.301t.301-.127h18q.174 0 .301.127t.127.301zm0-5.143v2.571q0 .174-.127.301t-.301.127h-18q-.174 0-.301-.127t-.127-.301V2.143q0-.174.127-.301t.301-.127h18q.174 0 .301.127t.127.301z"/></symbol><symbol id="menu" viewBox="0 0 24 24"><path d="M22.286 18v1.714q0 .348-.254.603t-.603.254H2.572q-.348 0-.603-.254t-.254-.603V18q0-.348.254-.603t.603-.254h18.857q.348 0 .603.254t.254.603zm0-6.857v1.714q0 .348-.254.603t-.603.254H2.572q-.348 0-.603-.254t-.254-.603v-1.714q0-.348.254-.603t.603-.254h18.857q.348 0 .603.254t.254.603zm0-6.857V6q0 .348-.254.603t-.603.254H2.572q-.348 0-.603-.254T1.715 6V4.286q0-.348.254-.603t.603-.254h18.857q.348 0 .603.254t.254.603z"/></symbol><symbol id="paper-plane-o" viewBox="0 0 24 24"><path d="M23.625.147q.442.321.362.857l-3.429 20.571q-.067.388-.429.603-.188.107-.415.107-.147 0-.321-.067l-7.058-2.879-3.991 4.379q-.241.281-.629.281-.188 0-.308-.054-.254-.094-.402-.315t-.147-.489v-6.054L.537 14.502q-.496-.188-.536-.737-.04-.522.429-.79L22.716.118q.469-.281.911.027zm-4.58 20.076l2.96-17.719L2.8 13.58l4.5 1.835 11.558-8.558-6.402 10.674z"/></symbol><symbol id="picture-o" viewBox="0 0 24 24"><path d="M8 8q0 1-.7 1.7t-1.7.7-1.7-.7T3.2 8t.7-1.7 1.7-.7 1.7.7T8 8zm12.8 4.8v5.6H3.2V16l4-4 2 2 6.4-6.4zM22 4H2q-.163 0-.281.119T1.6 4.4v15.2q0 .163.119.281T2 20h20q.163 0 .281-.119t.119-.281V4.4q0-.163-.119-.281T22 4zm2 .4v15.2q0 .825-.588 1.412T22 21.6H2q-.825 0-1.412-.588T0 19.6V4.4q0-.825.588-1.412T2 2.4h20q.825 0 1.412.588T24 4.4z"/></symbol><symbol id="plug" viewBox="0 0 24 24"><path d="M23.504 6.067Q24 6.563 24 7.272t-.496 1.219l-5.371 5.357 2.009 2.009L17.999 18q-2.183 2.183-5.217 2.498t-5.511-1.346L2.423 24H-.001v-2.424l4.848-4.848q-1.661-2.478-1.346-5.511T5.999 6l2.143-2.143 2.009 2.009L15.508.495q.509-.496 1.219-.496t1.205.496.496 1.212-.496 1.212L12.575 8.29l3.134 3.134 5.371-5.357q.509-.496 1.219-.496t1.205.496z"/></symbol><symbol id="plus" viewBox="0 0 24 24"><path d="M21.429 10.714v2.571q0 .536-.375.911t-.911.375h-5.571v5.571q0 .536-.375.911t-.911.375h-2.571q-.536 0-.911-.375t-.375-.911v-5.571H3.858q-.536 0-.911-.375t-.375-.911v-2.571q0-.536.375-.911t.911-.375h5.571V3.857q0-.536.375-.911t.911-.375h2.571q.536 0 .911.375t.375.911v5.571h5.571q.536 0 .911.375t.375.911z"/></symbol><symbol id="question-circle-o" viewBox="0 0 24 24"><path d="M13.5 16.071v2.143q0 .188-.121.308t-.308.121h-2.143q-.188 0-.308-.121t-.121-.308v-2.143q0-.188.121-.308t.308-.121h2.143q.188 0 .308.121t.121.308zm3.429-6.642q0 .67-.201 1.205t-.609.924-.696.589-.797.482q-.429.241-.623.375t-.348.321-.154.388v.429q0 .188-.121.308t-.308.121h-2.143q-.188 0-.308-.121t-.121-.308v-.911q0-.469.141-.864t.321-.636.522-.475.549-.342.596-.281q.71-.335 1.004-.576t.295-.656q0-.563-.583-.958t-1.279-.395q-.75 0-1.272.362-.388.268-1.071 1.112-.121.161-.335.161-.147 0-.254-.08L7.688 8.505q-.134-.094-.161-.268t.067-.308q1.634-2.571 4.674-2.571 1.728 0 3.194 1.199t1.467 2.873zm-4.929-6q-1.741 0-3.328.683T5.94 5.94 4.112 8.672 3.429 12t.683 3.328T5.94 18.06t2.732 1.828 3.328.683 3.328-.683 2.732-1.828 1.828-2.732.683-3.328-.683-3.328T18.06 5.94t-2.732-1.828T12 3.429zM22.286 12q0 2.799-1.379 5.163t-3.743 3.743-5.163 1.379-5.163-1.379-3.743-3.743T1.716 12t1.379-5.163 3.743-3.743 5.163-1.379 5.163 1.379 3.743 3.743T22.286 12z"/></symbol><symbol id="question-circle" viewBox="0 0 24 24"><path d="M13.714 18.429v-2.571q0-.188-.121-.308t-.308-.121h-2.571q-.188 0-.308.121t-.121.308v2.571q0 .188.121.308t.308.121h2.571q.188 0 .308-.121t.121-.308zm3.429-9q0-1.179-.743-2.183t-1.855-1.554-2.277-.549q-3.254 0-4.969 2.853-.201.321.107.563l1.768 1.339q.094.08.254.08.214 0 .335-.161.71-.911 1.152-1.232.455-.321 1.152-.321.643 0 1.145.348t.502.79q0 .509-.268.817t-.911.603q-.844.375-1.547 1.158t-.703 1.681v.482q0 .188.121.308t.308.121h2.571q.188 0 .308-.121t.121-.308q0-.254.288-.663t.73-.663q.429-.241.656-.382t.616-.469.596-.643.375-.81.167-1.085zM22.286 12q0 2.799-1.379 5.163t-3.743 3.743-5.163 1.379-5.163-1.379-3.743-3.743T1.716 12t1.379-5.163 3.743-3.743 5.163-1.379 5.163 1.379 3.743 3.743T22.286 12z"/></symbol><symbol id="quote-right" viewBox="0 0 24 24"><path d="M11.143 5.143v9.429q0 1.393-.542 2.658t-1.467 2.19-2.19 1.467-2.658.542h-.857q-.348 0-.603-.254t-.254-.603v-1.714q0-.348.254-.603t.603-.254h.857q1.42 0 2.424-1.004t1.004-2.424v-.429q0-.536-.375-.911t-.911-.375h-3q-1.071 0-1.821-.75t-.75-1.821V5.144q0-1.071.75-1.821t1.821-.75h5.143q1.071 0 1.821.75t.75 1.821zm12 0v9.429q0 1.393-.542 2.658t-1.467 2.19-2.19 1.467-2.658.542h-.857q-.348 0-.603-.254t-.254-.603v-1.714q0-.348.254-.603t.603-.254h.857q1.42 0 2.424-1.004t1.004-2.424v-.429q0-.536-.375-.911t-.911-.375h-3q-1.071 0-1.821-.75t-.75-1.821V5.144q0-1.071.75-1.821t1.821-.75h5.143q1.071 0 1.821.75t.75 1.821z"/></symbol><symbol id="reply" viewBox="0 0 24 24"><path d="M24 15q0 2.223-1.701 6.04-.04.094-.141.321t-.181.402-.174.295q-.161.228-.375.228-.201 0-.315-.134t-.114-.335q0-.121.033-.355t.033-.315q.067-.911.067-1.647 0-1.353-.234-2.424t-.65-1.855-1.071-1.353-1.413-.931-1.781-.569-2.063-.288-2.35-.08h-3v3.429q0 .348-.254.603t-.603.254-.603-.254L.253 9.175q-.254-.254-.254-.603t.254-.603L7.11 1.112q.254-.254.603-.254t.603.254.254.603v3.429h3q9.549 0 11.719 5.397.71 1.795.71 4.46z"/></symbol><symbol id="rub" viewBox="0 0 24 24"><path d="M17.397 8.424q0-1.339-.871-2.17t-2.29-.83H9.95v6h4.286q1.42 0 2.29-.83t.871-2.17zm3.174 0q0 2.585-1.694 4.219t-4.373 1.634H9.95v1.58h6.763q.188 0 .308.121t.121.308V18q0 .188-.121.308t-.308.121H9.95V21q0 .188-.127.308t-.301.121H7.285q-.188 0-.308-.121T6.856 21v-2.571h-3q-.188 0-.308-.121T3.427 18v-1.714q0-.188.121-.308t.308-.121h3v-1.58h-3q-.188 0-.308-.121t-.121-.308v-1.996q0-.174.121-.301t.308-.127h3V3q0-.188.121-.308t.308-.121h7.219q2.679 0 4.373 1.634t1.694 4.219z"/></symbol><symbol id="search" viewBox="0 0 24 24"><path d="M16.286 10.286q0-2.478-1.761-4.239t-4.239-1.761-4.239 1.761-1.761 4.239 1.761 4.239 4.239 1.761 4.239-1.761 1.761-4.239zm6.857 11.143q0 .696-.509 1.205t-1.205.509q-.723 0-1.205-.509l-4.594-4.58q-2.397 1.661-5.344 1.661-1.915 0-3.663-.743T3.61 16.963 1.601 13.95t-.743-3.663.743-3.663T3.61 3.611t3.013-2.009 3.663-.743 3.663.743 3.013 2.009 2.009 3.013.743 3.663q0 2.946-1.661 5.344l4.594 4.594q.496.496.496 1.205z"/></symbol><symbol id="sign-in" viewBox="0 0 24 24"><path d="M18.071 12q0 .348-.254.603l-7.286 7.286q-.254.254-.603.254t-.603-.254-.254-.603v-3.857h-6q-.348 0-.603-.254t-.254-.603V9.429q0-.348.254-.603t.603-.254h6V4.715q0-.348.254-.603t.603-.254.603.254l7.286 7.286q.254.254.254.603zm4.715-4.714v9.429q0 1.594-1.132 2.725t-2.725 1.132h-4.286q-.174 0-.301-.127t-.127-.301q0-.054-.013-.268t-.007-.355.04-.315.134-.261.275-.087h4.286q.884 0 1.513-.629t.629-1.513V7.287q0-.884-.629-1.513t-1.513-.629h-4.179l-.154-.013-.154-.04-.107-.074-.094-.121-.027-.181q0-.054-.013-.268t-.007-.355.04-.315.134-.261.275-.087h4.286q1.594 0 2.725 1.132t1.132 2.725z"/></symbol><symbol id="sign-out" viewBox="0 0 24 24"><path d="M9.571 19.286q0 .054.013.268t.007.355-.04.315-.134.261-.275.087H4.856q-1.594 0-2.725-1.132T.999 16.715V7.286q0-1.594 1.132-2.725t2.725-1.132h4.286q.174 0 .301.127t.127.301q0 .054.013.268t.007.355-.04.315-.134.261-.275.087H4.855q-.884 0-1.513.629t-.629 1.513v9.429q0 .884.629 1.513t1.513.629h4.179l.154.013.154.04.107.074.094.121.027.181zM22 12q0 .348-.254.603l-7.286 7.286q-.254.254-.603.254t-.603-.254-.254-.603v-3.857H7q-.348 0-.603-.254t-.254-.603V9.429q0-.348.254-.603T7 8.572h6V4.715q0-.348.254-.603t.603-.254.603.254l7.286 7.286q.254.254.254.603z"/></symbol><symbol id="smile-o" viewBox="0 0 24 24"><path d="M16.902 14.397q-.496 1.621-1.848 2.612T12 18t-3.054-.991-1.848-2.612q-.107-.335.054-.65t.509-.422q.335-.107.65.054t.422.509q.335 1.071 1.239 1.734t2.029.663 2.029-.663 1.239-1.734q.107-.348.429-.509t.656-.054.496.422.054.65zm-6.616-5.826q0 .71-.502 1.212t-1.212.502-1.212-.502-.502-1.212.502-1.212 1.212-.502 1.212.502.502 1.212zm6.857 0q0 .71-.502 1.212t-1.212.502-1.212-.502-.502-1.212.502-1.212 1.212-.502 1.212.502.502 1.212zM20.571 12q0-1.741-.683-3.328T18.06 5.94t-2.732-1.828T12 3.429t-3.328.683T5.94 5.94 4.112 8.672 3.429 12t.683 3.328T5.94 18.06t2.732 1.828 3.328.683 3.328-.683 2.732-1.828 1.828-2.732.683-3.328zm1.715 0q0 2.799-1.379 5.163t-3.743 3.743-5.163 1.379-5.163-1.379-3.743-3.743T1.716 12t1.379-5.163 3.743-3.743 5.163-1.379 5.163 1.379 3.743 3.743T22.286 12z"/></symbol><symbol id="sort-amount-asc" viewBox="0 0 24 24"><path d="M9.857 19.286q0 .161-.134.321l-4.272 4.272Q5.317 24 5.143 24q-.161 0-.308-.121L.549 19.593q-.201-.214-.094-.469.107-.268.402-.268h2.571V.427q0-.188.121-.308t.308-.121h2.571q.188 0 .308.121t.121.308v18.429h2.571q.188 0 .308.121t.121.308zM24 21v2.571q0 .188-.121.308t-.308.121H12.428q-.188 0-.308-.121t-.121-.308V21q0-.188.121-.308t.308-.121h11.143q.188 0 .308.121T24 21zm-2.571-6.857v2.571q0 .188-.121.308t-.308.121h-8.571q-.188 0-.308-.121T12 16.714v-2.571q0-.188.121-.308t.308-.121H21q.188 0 .308.121t.121.308zm-2.572-6.857v2.571q0 .188-.121.308t-.308.121h-6q-.188 0-.308-.121t-.121-.308V7.286q0-.188.121-.308t.308-.121h6q.188 0 .308.121t.121.308zM16.286.429V3q0 .188-.121.308t-.308.121h-3.429q-.188 0-.308-.121T11.999 3V.429q0-.188.121-.308T12.428 0h3.429q.188 0 .308.121t.121.308z"/></symbol><symbol id="tags" viewBox="0 0 24 24"><path d="M5.662 6.471q0-.67-.474-1.144t-1.144-.474-1.144.474-.474 1.144.474 1.144 1.144.474 1.144-.474.474-1.144zm13.485 7.279q0 .67-.468 1.137l-6.205 6.218q-.493.468-1.15.468-.67 0-1.137-.468l-9.036-9.049q-.48-.468-.815-1.276T.001 9.301V4.043q0-.657.48-1.137t1.137-.48h5.258q.67 0 1.479.335t1.289.815L18.68 12.6q.468.493.468 1.15zm4.853 0q0 .67-.468 1.137l-6.205 6.218q-.493.468-1.15.468-.455 0-.746-.177t-.67-.569l5.94-5.94q.468-.468.468-1.137 0-.657-.468-1.15l-9.036-9.024q-.48-.48-1.289-.815t-1.479-.335h2.831q.67 0 1.479.335t1.289.815l9.036 9.024q.468.493.468 1.15z"/></symbol><symbol id="tasks" viewBox="0 0 24 24"><path d="M13.714 18.857h8.571v-1.714h-8.571v1.714zM8.571 12h13.714v-1.714H8.571V12zm8.572-6.857h5.143V3.429h-5.143v1.714zM24 16.286v3.429q0 .348-.254.603t-.603.254H.857q-.348 0-.603-.254T0 19.715v-3.429q0-.348.254-.603t.603-.254h22.286q.348 0 .603.254t.254.603zm0-6.857v3.429q0 .348-.254.603t-.603.254H.857q-.348 0-.603-.254T0 12.858V9.429q0-.348.254-.603t.603-.254h22.286q.348 0 .603.254t.254.603zm0-6.858V6q0 .348-.254.603t-.603.254H.857q-.348 0-.603-.254T0 6V2.571q0-.348.254-.603t.603-.254h22.286q.348 0 .603.254t.254.603z"/></symbol><symbol id="text-o" viewBox="0 0 24 24"><path d="M21.375 5.089q.375.375.643 1.018t.268 1.179v15.429q0 .536-.375.911t-.911.375H3q-.536 0-.911-.375t-.375-.911V1.286q0-.536.375-.911T3 0h12q.536 0 1.179.268t1.018.643zm-5.946-3.268v5.036h5.036q-.134-.388-.295-.549l-4.192-4.192q-.161-.161-.549-.295zm5.142 20.465V8.572H15q-.536 0-.911-.375t-.375-.911V1.715H3.428v20.571h17.143zM6.857 10.714q0-.188.121-.308t.308-.121h9.429q.188 0 .308.121t.121.308v.857q0 .188-.121.308t-.308.121H7.286q-.188 0-.308-.121t-.121-.308v-.857zm9.857 3q.188 0 .308.121t.121.308V15q0 .188-.121.308t-.308.121H7.285q-.188 0-.308-.121T6.856 15v-.857q0-.188.121-.308t.308-.121h9.429zm0 3.429q.188 0 .308.121t.121.308v.857q0 .188-.121.308t-.308.121H7.285q-.188 0-.308-.121t-.121-.308v-.857q0-.188.121-.308t.308-.121h9.429z"/></symbol><symbol id="times" viewBox="0 0 24 24"><path d="M19.955 16.848q0 .536-.375.911l-1.821 1.821q-.375.375-.911.375t-.911-.375l-3.938-3.938-3.938 3.938q-.375.375-.911.375t-.911-.375l-1.821-1.821q-.375-.375-.375-.911t.375-.911l3.938-3.938-3.938-3.938q-.375-.375-.375-.911t.375-.911l1.821-1.821q.375-.375.911-.375t.911.375l3.938 3.938 3.938-3.938q.375-.375.911-.375t.911.375l1.821 1.821q.375.375.375.911t-.375.911l-3.938 3.938 3.938 3.938q.375.375.375.911z"/></symbol><symbol id="trash" viewBox="0 0 24 24"><path d="M9.429 18.429V9q0-.188-.121-.308T9 8.571h-.857q-.187 0-.308.121T7.714 9v9.429q0 .188.121.308t.308.121H9q.188 0 .308-.121t.121-.308zm3.428 0V9q0-.188-.121-.308t-.308-.121h-.857q-.188 0-.308.121T11.142 9v9.429q0 .188.121.308t.308.121h.857q.188 0 .308-.121t.121-.308zm3.429 0V9q0-.188-.121-.308t-.308-.121H15q-.188 0-.308.121T14.571 9v9.429q0 .188.121.308t.308.121h.857q.187 0 .308-.121t.121-.308zM9 5.143h6l-.643-1.567q-.094-.121-.228-.147H9.883q-.134.027-.228.147zm12.429.428v.857q0 .188-.121.308T21 6.857h-1.286v12.696q0 1.112-.629 1.922t-1.513.81H6.429q-.884 0-1.513-.783t-.629-1.895V6.857H3.001q-.188 0-.308-.121t-.121-.308v-.857q0-.188.121-.308t.308-.121h4.138l.938-2.237q.201-.496.723-.844t1.058-.348h4.286q.536 0 1.058.348t.723.844l.938 2.237h4.138q.188 0 .308.121t.121.308z"/></symbol><symbol id="twitter" viewBox="0 0 24 24"><path d="M22.554 5.464q-.897 1.312-2.17 2.237.013.188.013.563 0 1.741-.509 3.475t-1.547 3.328-2.471 2.819-3.455 1.955-4.326.73q-3.629 0-6.643-1.942.469.054 1.045.054 3.013 0 5.371-1.848-1.406-.027-2.518-.864t-1.527-2.136q.442.067.817.067.576 0 1.138-.147-1.5-.308-2.484-1.493T2.304 9.51v-.054q.911.509 1.955.549-.884-.589-1.406-1.54t-.522-2.063q0-1.179.589-2.183 1.621 1.996 3.944 3.194t4.975 1.333q-.107-.509-.107-.991 0-1.795 1.266-3.06t3.06-1.266q1.875 0 3.161 1.366 1.46-.281 2.746-1.045-.496 1.54-1.902 2.384 1.246-.134 2.491-.67z"/></symbol><symbol id="university" viewBox="0 0 24 24"><path d="M12 .8l12 4.8v1.6h-1.6q0 .325-.256.563T21.538 8H2.463q-.35 0-.606-.237T1.601 7.2h-1.6V5.6zm-8.8 8h3.2v9.6H8V8.8h3.2v9.6h1.6V8.8H16v9.6h1.6V8.8h3.2v9.6h.737q.35 0 .606.237t.256.563v.8h-20.8v-.8q0-.325.256-.563t.606-.237h.737V8.8zm19.938 12q.35 0 .606.237T24 21.6v1.6H0v-1.6q0-.325.256-.563t.606-.237h22.275z"/></symbol><symbol id="untitled38" viewBox="0 0 24 24"><path d="M18.964 8.665q.804 0 1.433.308 1.888.844 1.888 3.027v2.371q0 1.259-.308 2.491l-1.138 4.54q-.281 1.152-1.212 1.875T17.518 24H8.572q-1.42 0-2.424-1.004t-1.004-2.424v-5.371L1.943 6.79q-.228-.603-.228-1.219 0-1.42 1.004-2.424t2.424-1.004q1.071 0 1.949.609t1.252 1.6l.228.589V3.428q0-1.42 1.004-2.424T12 0t2.424 1.004 1.004 2.424v3.496q.362-.067.643-.067.924 0 1.708.489t1.185 1.319zm-2.893-.094q-.442 0-.81.241t-.556.643l-.991 2.183-.951 2.076h.737q.67 0 1.205.422t.67 1.078l2.062-4.527q.134-.268.134-.616 0-.616-.442-1.058t-1.058-.442zm2.96 1.808q-.295 0-.542.107t-.388.214-.315.395-.228.408-.228.496l-1.768 3.884q-.134.268-.134.616 0 .616.442 1.058t1.058.442q.442 0 .81-.241t.556-.643l2.143-4.714q.121-.241.121-.509 0-.67-.429-1.092t-1.098-.422zM3.429 5.571q0 .295.107.616l3.321 8.705v.924l1.366-1.487q.576-.616 1.42-.616h2.652l1.42-3.121V3.427q0-.71-.502-1.212t-1.212-.502-1.212.502-.502 1.212v8.571H9.43L6.751 4.953q-.188-.496-.629-.797t-.978-.301q-.71 0-1.212.502T3.43 5.569zm14.089 16.715q.589 0 1.051-.362t.609-.938l1.138-4.54q.254-.978.254-2.076v-1.219l-1.888 4.152q-.228.509-.71.817t-1.045.308q-.71 0-1.252-.462t-.65-1.158q-.589.763-1.527.763h-2.786v-.429h2.786q.616 0 1.085-.442t.469-1.058-.415-1.058-1.031-.442H9.642q-.656 0-1.098.482l-1.688 1.821v4.125q0 .71.502 1.212t1.212.502h8.946z"/></symbol><symbol id="upload" viewBox="0 0 24 24"><path d="M18 20.143q0-.348-.254-.603t-.603-.254-.603.254-.254.603.254.603.603.254.603-.254.254-.603zm3.429 0q0-.348-.254-.603t-.603-.254-.603.254-.254.603.254.603.603.254.603-.254.254-.603zm1.714-3v4.286q0 .536-.375.911t-.911.375H2.143q-.536 0-.911-.375t-.375-.911v-4.286q0-.536.375-.911t.911-.375h5.719q.281.75.944 1.232t1.48.482h3.429q.817 0 1.48-.482t.944-1.232h5.719q.536 0 .911.375t.375.911zM18.79 8.464Q18.562 9 18 9h-3.429v6q0 .348-.254.603t-.603.254h-3.429q-.348 0-.603-.254T9.428 15V9H5.999q-.563 0-.79-.536-.228-.522.188-.924l6-6q.241-.254.603-.254t.603.254l6 6q.415.402.188.924z"/></symbol><symbol id="user-plus" viewBox="0 0 24 24"><path d="M8.25 12q-1.863 0-3.182-1.318T3.75 7.5t1.318-3.182T8.25 3t3.182 1.318T12.75 7.5t-1.318 3.182T8.25 12zm11.25 1.5h4.125q.152 0 .264.111t.111.264v2.25q0 .152-.111.264t-.264.111H19.5v4.125q0 .152-.111.264t-.264.111h-2.25q-.152 0-.264-.111t-.111-.264V16.5h-4.125q-.152 0-.264-.111T12 16.125v-2.25q0-.152.111-.264t.264-.111H16.5V9.375q0-.152.111-.264T16.875 9h2.25q.152 0 .264.111t.111.264V13.5zm-8.625 2.625q0 .609.445 1.055t1.055.445h3v2.789q-.797.586-2.004.586H3.129q-1.418 0-2.273-.809t-.855-2.227q0-.621.041-1.213t.164-1.277.311-1.271.504-1.143.727-.949 1.002-.627 1.307-.234q.223 0 .457.199.926.715 1.811 1.072t1.928.357 1.928-.357 1.811-1.072q.234-.199.457-.199 1.547 0 2.543 1.125h-2.613q-.609 0-1.055.445t-.445 1.055v2.25z"/></symbol><symbol id="user-secret" viewBox="0 0 24 24"><path d="M10.286 21.429l1.286-6-1.286-1.714-1.714-.857zm3.428 0l1.714-8.571-1.714.857-1.286 1.714zm2.143-13.527q-.027-.054-.054-.08-.134-.107-1.286-.107-.938 0-2.237.254-.094.027-.281.027t-.281-.027q-1.299-.254-2.237-.254-1.152 0-1.286.107-.027.027-.054.08.027.241.054.362.027.04.1.087t.1.141q.027.054.1.275t.094.275.1.228.114.228.121.188.161.181.188.127.234.107.275.054.328.027q.482 0 .79-.167t.435-.402.194-.462.154-.395.234-.167h.161q.147 0 .234.167t.154.395.194.462.435.402.79.167q.174 0 .328-.027t.275-.054.234-.107.188-.127.161-.181.121-.188.114-.228.1-.228.094-.275.1-.275q.027-.094.1-.141t.1-.087q.027-.121.054-.362zm5.572 11.772q0 1.621-.978 2.545t-2.598.924H6.148q-1.621 0-2.598-.924t-.978-2.545q0-.817.06-1.58t.254-1.681.502-1.654.85-1.386 1.252-.998L4.285 9.429h2.866q-.295-.857-.295-1.714 0-.161.027-.429Q4.285 6.75 4.285 6q0-.763 2.813-1.326.228-.83.69-1.795t.944-1.527Q9.161.856 9.75.856q.402 0 1.125.415T12 1.686t1.125-.415T14.25.856q.589 0 1.018.496.482.563.944 1.527t.69 1.795q2.813.563 2.813 1.326 0 .75-2.598 1.286.094 1.085-.268 2.143h2.866l-1.098 3.013q.844.442 1.44 1.292t.877 1.922.388 2.029.107 1.989z"/></symbol><symbol id="user" viewBox="0 0 24 24"><path d="M21.429 18.817q0 1.607-.978 2.538t-2.598.931H6.148q-1.621 0-2.598-.931t-.978-2.538q0-.71.047-1.386t.188-1.46.355-1.453.576-1.306.83-1.085 1.145-.717 1.493-.268q.121 0 .563.288t.998.643 1.446.643 1.788.288 1.788-.288 1.446-.643.998-.643.563-.288q.817 0 1.493.268t1.145.717.83 1.085.576 1.306.355 1.453.188 1.46.047 1.386zm-4.286-11.96q0 2.129-1.507 3.636T12 12t-3.636-1.507-1.507-3.636 1.507-3.636T12 1.714t3.636 1.507 1.507 3.636z"/></symbol><symbol id="users" viewBox="0 0 24 24"><path d="M7.413 12q-2.025.063-3.313 1.6H2.425Q1.4 13.6.7 13.094T0 11.613q0-4.412 1.55-4.412.075 0 .544.262t1.219.531 1.488.269q.838 0 1.662-.288-.063.462-.063.825 0 1.738 1.012 3.2zM20.8 19.963q0 1.5-.912 2.369t-2.425.869H6.538q-1.512 0-2.425-.869t-.912-2.369q0-.663.044-1.294t.175-1.363.331-1.356.537-1.219.775-1.013 1.069-.669 1.394-.25q.125 0 .537.269t.912.6 1.338.6 1.688.269 1.688-.269 1.338-.6.912-.6.537-.269q.762 0 1.394.25t1.069.669.775 1.013.537 1.219.331 1.356.175 1.363.044 1.294zM8 4q0 1.325-.938 2.263t-2.263.938-2.263-.938T1.598 4t.938-2.263T4.799.8t2.263.937T8 4zm8.8 4.8q0 1.988-1.406 3.394T12 13.6t-3.394-1.406T7.2 8.8t1.406-3.394T12 4t3.394 1.406T16.8 8.8zm7.2 2.813q0 .975-.7 1.481t-1.725.506H19.9q-1.287-1.538-3.313-1.6Q17.6 10.537 17.6 8.8q0-.362-.063-.825.825.288 1.662.288.737 0 1.488-.269t1.219-.531.544-.263Q24 7.2 24 11.612zM22.4 4q0 1.325-.938 2.263t-2.263.938-2.263-.938T15.998 4t.938-2.263T19.199.8t2.263.937T22.4 4z"/></symbol><symbol id="vk" viewBox="0 0 24 24"><path d="M23.716 6.195q.284.791-1.855 3.635-.297.396-.804 1.051-.964 1.236-1.113 1.62-.21.507.173 1.002.21.26 1.002 1.014h.012l.049.049q1.743 1.62 2.362 2.733.037.062.08.155t.087.328-.006.42-.309.34-.73.155l-3.165.049q-.297.062-.692-.062t-.643-.272l-.247-.148q-.371-.26-.866-.791t-.847-.958-.754-.717-.699-.192q-.037.012-.099.043t-.21.179-.266.365-.21.643-.08.958q0 .185-.043.34t-.093.229l-.049.062q-.223.235-.655.272h-1.422q-.878.049-1.805-.204t-1.626-.655-1.274-.816-.872-.711l-.309-.297q-.124-.124-.34-.371t-.884-1.125-1.311-1.867-1.515-2.609T.074 6.679Q0 6.481 0 6.345t.037-.198l.049-.074q.185-.235.705-.235l3.388-.025q.148.025.284.08t.198.105l.062.037q.198.136.297.396.247.618.569 1.28t.507 1.008l.198.359q.359.742.692 1.286t.6.847.513.476.42.173.334-.062q.025-.012.062-.062t.148-.272.167-.581.117-1.002 0-1.546q-.025-.495-.111-.903t-.173-.569l-.074-.148q-.309-.42-1.051-.532-.161-.025.062-.297.21-.235.47-.371.655-.321 2.955-.297 1.014.012 1.669.161.247.062.414.167t.253.297.13.396.043.563-.012.68-.031.872-.019 1.02q0 .136-.012.519t-.006.594.043.501.142.482.278.303q.099.025.21.049t.321-.136.47-.427.643-.828.841-1.329q.742-1.286 1.323-2.782.049-.124.124-.216t.136-.13l.049-.037.062-.031.161-.037.247-.006 3.561-.025q.482-.062.791.031t.383.204z"/></symbol><symbol id="youtube" viewBox="0 0 24 24"><path d="M14.719 16.661v2.826q0 .897-.522.897-.308 0-.603-.295v-4.031q.295-.295.603-.295.522 0 .522.897zm4.527.013v.616h-1.205v-.616q0-.911.603-.911t.603.911zm-12.938-2.92h1.433v-1.259H3.562v1.259h1.406v7.621h1.339v-7.621zm3.857 7.621h1.192v-6.616h-1.192v5.063q-.402.563-.763.563-.241 0-.281-.281-.013-.04-.013-.469V14.76H7.916v5.237q0 .656.107.978.161.496.777.496.643 0 1.366-.817v.723zm5.746-1.982v-2.638q0-.978-.121-1.326-.228-.75-.951-.75-.67 0-1.246.723v-2.906h-1.192v8.879h1.192v-.643q.603.737 1.246.737.723 0 .951-.737.121-.362.121-1.339zm4.526-.134v-.174h-1.219q0 .683-.027.817-.094.482-.536.482-.616 0-.616-.924v-1.165h2.397v-1.379q0-1.058-.362-1.554-.522-.683-1.42-.683-.911 0-1.433.683-.375.496-.375 1.554v2.317q0 1.058.388 1.554.522.683 1.446.683.964 0 1.446-.71.241-.362.281-.723.027-.121.027-.777zM12.295 7.031V4.218q0-.924-.576-.924t-.576.924v2.813q0 .938.576.938t.576-.938zm9.629 10.058q0 3.134-.348 4.688-.188.79-.777 1.326t-1.366.616Q16.969 24 12 24t-7.433-.281q-.777-.08-1.373-.616t-.77-1.326q-.348-1.5-.348-4.688 0-3.134.348-4.688.188-.79.777-1.326t1.379-.629q2.451-.268 7.42-.268t7.433.268q.777.094 1.373.629t.77 1.326q.348 1.5.348 4.688zM8.558 0h1.366L8.303 5.344v3.629H6.964V5.344q-.188-.991-.817-2.839-.496-1.379-.871-2.504h1.42l.951 3.522zm4.955 4.46v2.344q0 1.085-.375 1.58-.496.683-1.42.683-.897 0-1.406-.683-.375-.509-.375-1.58V4.46q0-1.071.375-1.567.509-.683 1.406-.683.924 0 1.42.683.375.496.375 1.567zM18 2.29v6.683h-1.219v-.737q-.71.83-1.379.83-.616 0-.79-.496-.107-.321-.107-1.004V2.289h1.219v4.915q0 .442.013.469.04.295.281.295.362 0 .763-.576V2.289H18z"/></symbol></svg>