<svg xmlns="http://www.w3.org/2000/svg"><symbol id="anchor" viewBox="0 0 24 24"><path d="M12 2a3 3 0 0 0-3 3c0 1.27.8 2.4 2 2.83V10H8v2h3v6.92A6.494 6.494 0 0 1 6.53 16H8v-2H3v5h2v-1.7c1.58 2.31 4.2 3.7 7 3.7s5.42-1.39 7-3.69V19h2v-5h-5v2h1.46c-1 1.56-2.63 2.63-4.46 2.92V12h3v-2h-3V7.82c1.2-.42 2-1.55 2-2.82a3 3 0 0 0-3-3m0 2a1 1 0 0 1 1 1 1 1 0 0 1-1 1 1 1 0 0 1-1-1 1 1 0 0 1 1-1z"/></symbol><symbol id="archive" viewBox="0 0 24 24"><path d="M3 3h18v4H3V3m1 5h16v13H4V8m5.5 3a.5.5 0 0 0-.5.5V13h6v-1.5a.5.5 0 0 0-.5-.5h-5z"/></symbol><symbol id="balance-scale" viewBox="0 0 24 24"><path d="M12 3c-1.27 0-2.4.8-2.82 2H3v2h1.95L2 14c-.47 2 1 3 3.5 3s4.06-1 3.5-3L6.05 7h3.12c.33.85.98 1.5 1.83 1.83V20H2v2h20v-2h-9V8.82c.85-.32 1.5-.97 1.82-1.82h3.13L15 14c-.47 2 1 3 3.5 3s4.06-1 3.5-3l-2.95-7H21V5h-6.17C14.4 3.8 13.27 3 12 3m0 2a1 1 0 0 1 1 1 1 1 0 0 1-1 1 1 1 0 0 1-1-1 1 1 0 0 1 1-1m-6.5 5.25L7 14H4l1.5-3.75m13 0L20 14h-3l1.5-3.75z"/></symbol><symbol id="beer" viewBox="0 0 24 24"><path d="M4 2h15l-2 20H6L4 2m2.2 2l1.6 16h1L7.43 6.34C8.5 6 9.89 5.89 11 7c1.56 1.56 4.33.69 5.5.23L16.8 4H6.2z"/></symbol><symbol id="briefcase" viewBox="0 0 24 24"><path d="M10.5 17.5L7 14l1.41-1.41 2.09 2.08 5.18-5.17 1.41 1.41M10 4h4v2h-4m10 0h-4V4l-2-2h-4L8 4v2H4c-1.11 0-2 .89-2 2v11c0 1.11.89 2 2 2h16c1.11 0 2-.89 2-2V8c0-1.11-.89-2-2-2z"/></symbol><symbol id="building-o" viewBox="0 0 24 24"><path d="M18 15h-2v2h2m0-6h-2v2h2m2 6h-8v-2h2v-2h-2v-2h2v-2h-2V9h8M10 7H8V5h2m0 6H8V9h2m0 6H8v-2h2m0 6H8v-2h2M6 7H4V5h2m0 6H4V9h2m0 6H4v-2h2m0 6H4v-2h2m6-10V3H2v18h20V7H12z"/></symbol><symbol id="bullhorn" viewBox="0 0 24 24"><path d="M16 12v4a1 1 0 0 1-1 1c-.17 0-.33 0-.94-.5-.62-.5-1.67-1.5-2.75-2-1-.46-2.03-.5-3.05-.5l1.21 3.32.03.18a.5.5 0 0 1-.5.5H7c-.22 0-.41-.14-.47-.34L5.19 14H5a1 1 0 0 1-1-1 2 2 0 0 1-2-2 2 2 0 0 1 2-2 1 1 0 0 1 1-1h3c1.11 0 2.22 0 3.31-.5 1.08-.5 2.13-1.5 2.75-2 .61-.5.77-.5.94-.5a1 1 0 0 1 1 1v4a1 1 0 0 1 1 1 1 1 0 0 1-1 1m5-1c0 1.38-.56 2.63-1.46 3.54l-1.42-1.42a2.993 2.993 0 0 0 0-4.24l1.42-1.42C20.44 8.37 21 9.62 21 11z"/></symbol><symbol id="calendar" viewBox="0 0 24 24"><path d="M19 19H5V8h14m-3-7v2H8V1H6v2H5c-1.11 0-2 .89-2 2v14a2 2 0 0 0 2 2h14a2 2 0 0 0 2-2V5a2 2 0 0 0-2-2h-1V1m-1 11h-5v5h5v-5z"/></symbol><symbol id="check-circle-o" viewBox="0 0 24 24"><path d="M12 2a10 10 0 0 1 10 10 10 10 0 0 1-10 10A10 10 0 0 1 2 12 10 10 0 0 1 12 2m0 2a8 8 0 0 0-8 8 8 8 0 0 0 8 8 8 8 0 0 0 8-8 8 8 0 0 0-8-8m-1 12.5L6.5 12l1.41-1.41L11 13.67l5.59-5.58L18 9.5l-7 7z"/></symbol><symbol id="clock-o" viewBox="0 0 24 24"><path d="M12 20a8 8 0 0 0 8-8 8 8 0 0 0-8-8 8 8 0 0 0-8 8 8 8 0 0 0 8 8m0-18a10 10 0 0 1 10 10 10 10 0 0 1-10 10C6.47 22 2 17.5 2 12A10 10 0 0 1 12 2m.5 5v5.25l4.5 2.67-.75 1.23L11 13V7h1.5z"/></symbol><symbol id="cloud" viewBox="0 0 24 24"><path d="M19.35 10.03A7.49 7.49 0 0 0 12 4C9.11 4 6.6 5.64 5.35 8.03A6.004 6.004 0 0 0 0 14a6 6 0 0 0 6 6h13a5 5 0 0 0 5-5c0-2.64-2.05-4.78-4.65-4.97z"/></symbol><symbol id="code" viewBox="0 0 24 24"><path d="M14.6 16.6l4.6-4.6-4.6-4.6L16 6l6 6-6 6-1.4-1.4m-5.2 0L4.8 12l4.6-4.6L8 6l-6 6 6 6 1.4-1.4z"/></symbol><symbol id="coffee" viewBox="0 0 24 24"><path d="M2 21h18v-2H2M20 8h-2V5h2m0-2H4v10a4 4 0 0 0 4 4h6a4 4 0 0 0 4-4v-3h2a2 2 0 0 0 2-2V5a2 2 0 0 0-2-2z"/></symbol><symbol id="cogs" viewBox="0 0 24 24"><path d="M12 15.5A3.5 3.5 0 0 1 8.5 12 3.5 3.5 0 0 1 12 8.5a3.5 3.5 0 0 1 3.5 3.5 3.5 3.5 0 0 1-3.5 3.5m7.43-2.53c.04-.32.07-.64.07-.97 0-.33-.03-.66-.07-1l2.11-1.63c.19-.15.24-.42.12-.64l-2-3.46c-.12-.22-.39-.31-.61-.22l-2.49 1c-.52-.39-1.06-.73-1.69-.98l-.37-2.65A.506.506 0 0 0 14 2h-4c-.25 0-.46.18-.5.42l-.37 2.65c-.63.25-1.17.59-1.69.98l-2.49-1c-.22-.09-.49 0-.61.22l-2 3.46c-.13.22-.07.49.12.64L4.57 11c-.04.34-.07.67-.07 1 0 .33.03.65.07.97l-2.11 1.66c-.19.15-.25.42-.12.64l2 3.46c.12.22.39.3.61.22l2.49-1.01c.52.4 1.06.74 1.69.99l.37 2.65c.04.24.25.42.5.42h4c.25 0 .46-.18.5-.42l.37-2.65c.63-.26 1.17-.59 1.69-.99l2.49 1.01c.22.08.49 0 .61-.22l2-3.46c.12-.22.07-.49-.12-.64l-2.11-1.66z"/></symbol><symbol id="comment-o" viewBox="0 0 24 24"><path d="M9 22a1 1 0 0 1-1-1v-3H4a2 2 0 0 1-2-2V4a2 2 0 0 1 2-2h16a2 2 0 0 1 2 2v12a2 2 0 0 1-2 2h-6.1l-3.7 3.71c-.2.19-.45.29-.7.29H9m1-6v3.08L13.08 16H20V4H4v12h6z"/></symbol><symbol id="comment" viewBox="0 0 24 24"><path d="M9 22a1 1 0 0 1-1-1v-3H4a2 2 0 0 1-2-2V4a2 2 0 0 1 2-2h16a2 2 0 0 1 2 2v12a2 2 0 0 1-2 2h-6.1l-3.7 3.71c-.2.19-.45.29-.7.29H9z"/></symbol><symbol id="commenting-o" viewBox="0 0 24 24"><path d="M9 22a1 1 0 0 1-1-1v-3H4a2 2 0 0 1-2-2V4a2 2 0 0 1 2-2h16a2 2 0 0 1 2 2v12a2 2 0 0 1-2 2h-6.1l-3.7 3.71c-.2.19-.45.29-.7.29H9m1-6v3.08L13.08 16H20V4H4v12h6m7-5h-2V9h2v2m-4 0h-2V9h2v2m-4 0H7V9h2v2z"/></symbol><symbol id="comments-o" viewBox="0 0 24 24"><path d="M12 23a1 1 0 0 1-1-1v-3H7a2 2 0 0 1-2-2V7a2 2 0 0 1 2-2h14a2 2 0 0 1 2 2v10a2 2 0 0 1-2 2h-4.1l-3.7 3.71c-.2.19-.45.29-.7.29H12m1-6v3.08L16.08 17H21V7H7v10h6M3 15H1V3a2 2 0 0 1 2-2h16v2H3v12z"/></symbol><symbol id="comments" viewBox="0 0 24 24"><path d="M9 22a1 1 0 0 1-1-1v-3H4a2 2 0 0 1-2-2V4a2 2 0 0 1 2-2h16a2 2 0 0 1 2 2v12a2 2 0 0 1-2 2h-6.1l-3.7 3.71c-.2.19-.45.29-.7.29H9M5 5v2h14V5H5m0 4v2h8V9H5m0 4v2h10v-2H5z"/></symbol><symbol id="cubes" viewBox="0 0 24 24"><path d="M21 16.5c0 .38-.21.71-.53.88l-7.9 4.44c-.16.12-.36.18-.57.18-.21 0-.41-.06-.57-.18l-7.9-4.44A.991.991 0 0 1 3 16.5v-9c0-.38.21-.71.53-.88l7.9-4.44c.16-.12.36-.18.57-.18.21 0 .41.06.57.18l7.9 4.44c.32.17.53.5.53.88v9M12 4.15L6.04 7.5 12 10.85l5.96-3.35L12 4.15M5 15.91l6 3.38v-6.71L5 9.21v6.7m14 0v-6.7l-6 3.37v6.71l6-3.38z"/></symbol><symbol id="download" viewBox="0 0 24 24"><path d="M5 20h14v-2H5m14-9h-4V3H9v6H5l7 7 7-7z"/></symbol><symbol id="drupal" viewBox="0 0 24 24"><path d="M20.47 14.65c0 .64-.22 1.71-.64 2.45-.43.75-.75.96-1.39.96-.74-.11-2.13-2.24-3.08-2.34-1.18 0-3.63 2.45-5.65 2.45-1.17 0-1.6-.22-1.92-.43-.64-.43-.85-1.07-.85-1.92 0-1.6 1.49-2.98 3.3-2.98 2.35 0 3.94 2.34 5.12 2.24.95 0 2.87-1.92 3.83-1.92.96-.21 1.28.84 1.28 1.49m-3.84-9.37c-1.06-.64-2.02-.96-3.09-1.6-.63-.43-1.49-1.38-2.23-2.24-.31 1.39-.53 1.92-1.07 2.35-1.06.74-1.6 1.06-2.55 1.49C6.94 5.7 3 8.05 3 13.16 3 18.27 7.37 22 12.05 22c4.8 0 8.95-3.5 8.95-8.73.21-5.22-3.73-7.57-4.37-7.99z"/></symbol><symbol id="envelope" viewBox="0 0 24 24"><path d="M20 8l-8 5-8-5V6l8 5 8-5m0-2H4c-1.11 0-2 .89-2 2v12a2 2 0 0 0 2 2h16a2 2 0 0 0 2-2V6a2 2 0 0 0-2-2z"/></symbol><symbol id="eye" viewBox="0 0 24 24"><path d="M12 9a3 3 0 0 0-3 3 3 3 0 0 0 3 3 3 3 0 0 0 3-3 3 3 0 0 0-3-3m0 8a5 5 0 0 1-5-5 5 5 0 0 1 5-5 5 5 0 0 1 5 5 5 5 0 0 1-5 5m0-12.5C7 4.5 2.73 7.61 1 12c1.73 4.39 6 7.5 11 7.5s9.27-3.11 11-7.5c-1.73-4.39-6-7.5-11-7.5z"/></symbol><symbol id="facebook" viewBox="0 0 24 24"><path d="M17 2v4h-2c-.69 0-1 .81-1 1.5V10h3v4h-3v8h-4v-8H7v-4h3V6a4 4 0 0 1 4-4h3z"/></symbol><symbol id="file-code-o" viewBox="0 0 24 24"><path d="M13 9h5.5L13 3.5V9M6 2h8l6 6v12a2 2 0 0 1-2 2H6a2 2 0 0 1-2-2V4c0-1.11.89-2 2-2m.12 13.5l3.74 3.74 1.42-1.41-2.33-2.33 2.33-2.33-1.42-1.41-3.74 3.74m11.16 0l-3.74-3.74-1.42 1.41 2.33 2.33-2.33 2.33 1.42 1.41 3.74-3.74z"/></symbol><symbol id="file-o" viewBox="0 0 24 24"><path d="M13 9h5.5L13 3.5V9M6 2h8l6 6v12a2 2 0 0 1-2 2H6a2 2 0 0 1-2-2V4c0-1.11.89-2 2-2m5 2H6v16h12v-9h-7V4z"/></symbol><symbol id="file" viewBox="0 0 24 24"><path d="M13 9V3.5L18.5 9M6 2c-1.11 0-2 .89-2 2v16a2 2 0 0 0 2 2h12a2 2 0 0 0 2-2V8l-6-6H6z"/></symbol><symbol id="floppy-o" viewBox="0 0 24 24"><path d="M4.5 22L2 19.5V4a2 2 0 0 1 2-2h16a2 2 0 0 1 2 2v16a2 2 0 0 1-2 2h-3v-7a1 1 0 0 0-1-1H7a1 1 0 0 0-1 1v7H4.5M5 4v6a1 1 0 0 0 1 1h12a1 1 0 0 0 1-1V4H5m3 12h3v4H8v-4M20 4v1h1V4h-1z"/></symbol><symbol id="folder-open" viewBox="0 0 24 24"><path d="M19 20H4a2 2 0 0 1-2-2V6c0-1.11.89-2 2-2h6l2 2h7a2 2 0 0 1 2 2H4v10l2.14-8h17.07l-2.28 8.5c-.23.87-1.01 1.5-1.93 1.5z"/></symbol><symbol id="github" viewBox="0 0 24 24"><path d="M12 2A10 10 0 0 0 2 12c0 4.42 2.87 8.17 6.84 9.5.5.08.66-.23.66-.5v-1.69c-2.77.6-3.36-1.34-3.36-1.34-.46-1.16-1.11-1.47-1.11-1.47-.91-.62.07-.6.07-.6 1 .07 1.53 1.03 1.53 1.03.87 1.52 2.34 1.07 2.91.83.09-.65.35-1.09.63-1.34-2.22-.25-4.55-1.11-4.55-4.92 0-1.11.38-2 1.03-2.71-.1-.25-.45-1.29.1-2.64 0 0 .84-.27 2.75 1.02.79-.22 1.65-.33 2.5-.33.85 0 1.71.11 2.5.33 1.91-1.29 2.75-1.02 2.75-1.02.55 1.35.2 2.39.1 2.64.65.71 1.03 1.6 1.03 2.71 0 3.82-2.34 4.66-4.57 4.91.36.31.69.92.69 1.85V21c0 .27.16.59.67.5C19.14 20.16 22 16.42 22 12A10 10 0 0 0 12 2z"/></symbol><symbol id="google" viewBox="0 0 24 24"><path d="M21.35 11.1h-9.17v2.73h6.51c-.33 3.81-3.5 5.44-6.5 5.44C8.36 19.27 5 16.25 5 12c0-4.1 3.2-7.27 7.2-7.27 3.09 0 4.9 1.97 4.9 1.97L19 4.72S16.56 2 12.1 2C6.42 2 2.03 6.8 2.03 12c0 5.05 4.13 10 10.22 10 5.35 0 9.25-3.67 9.25-9.09 0-1.15-.15-1.81-.15-1.81z"/></symbol><symbol id="graduation-cap" viewBox="0 0 24 24"><path d="M12 3L1 9l11 6 9-4.91V17h2V9M5 13.18v4L12 21l7-3.82v-4L12 17l-7-3.82z"/></symbol><symbol id="hdd-o-version" viewBox="0 0 24 24"><path d="M13 18h1a1 1 0 0 1 1 1h7v2h-7a1 1 0 0 1-1 1h-4a1 1 0 0 1-1-1H2v-2h7a1 1 0 0 1 1-1h1v-2H4a1 1 0 0 1-1-1v-4a1 1 0 0 1 1-1h16a1 1 0 0 1 1 1v4a1 1 0 0 1-1 1h-7v2M4 2h16a1 1 0 0 1 1 1v4a1 1 0 0 1-1 1H4a1 1 0 0 1-1-1V3a1 1 0 0 1 1-1m5 4h1V4H9v2m0 8h1v-2H9v2M5 4v2h2V4H5m0 8v2h2v-2H5z"/></symbol><symbol id="hdd-o" viewBox="0 0 24 24"><path d="M6 2h12a2 2 0 0 1 2 2v16a2 2 0 0 1-2 2H6a2 2 0 0 1-2-2V4a2 2 0 0 1 2-2m6 2a6 6 0 0 0-6 6c0 3.31 2.69 6 6.1 6l-.88-2.23a1.01 1.01 0 0 1 .37-1.37l.86-.5a1.01 1.01 0 0 1 1.37.37l1.92 2.42A5.977 5.977 0 0 0 18 10a6 6 0 0 0-6-6m0 5a1 1 0 0 1 1 1 1 1 0 0 1-1 1 1 1 0 0 1-1-1 1 1 0 0 1 1-1m-5 9a1 1 0 0 0-1 1 1 1 0 0 0 1 1 1 1 0 0 0 1-1 1 1 0 0 0-1-1m5.09-4.73l2.49 6.31 2.59-1.5-4.22-5.31-.86.5z"/></symbol><symbol id="heart" viewBox="0 0 24 24"><path d="M12 21.35l-1.45-1.32C5.4 15.36 2 12.27 2 8.5 2 5.41 4.42 3 7.5 3c1.74 0 3.41.81 4.5 2.08C13.09 3.81 14.76 3 16.5 3 19.58 3 22 5.41 22 8.5c0 3.77-3.4 6.86-8.55 11.53L12 21.35z"/></symbol><symbol id="history" viewBox="0 0 24 24"><path d="M11 7v5.11l4.71 2.79.79-1.28-4-2.37V7m0-5C8.97 2 5.91 3.92 4.27 6.77L2 4.5V11h6.5L5.75 8.25C6.96 5.73 9.5 4 12.5 4a7.5 7.5 0 0 1 7.5 7.5 7.5 7.5 0 0 1-7.5 7.5c-3.27 0-6.03-2.09-7.06-5h-2.1c1.1 4.03 4.77 7 9.16 7 5.24 0 9.5-4.25 9.5-9.5A9.5 9.5 0 0 0 12.5 2z"/></symbol><symbol id="language" viewBox="0 0 24 24"><path d="M12.87 15.07l-2.54-2.51.03-.03A17.52 17.52 0 0 0 14.07 6H17V4h-7V2H8v2H1v2h11.17C11.5 7.92 10.44 9.75 9 11.35 8.07 10.32 7.3 9.19 6.69 8h-2c.73 1.63 1.73 3.17 2.98 4.56l-5.09 5.02L4 19l5-5 3.11 3.11.76-2.04M18.5 10h-2L12 22h2l1.12-3h4.75L21 22h2l-4.5-12m-2.62 7l1.62-4.33L19.12 17h-3.24z"/></symbol><symbol id="lightbulb-o" viewBox="0 0 24 24"><path d="M12 2a7 7 0 0 1 7 7c0 2.38-1.19 4.47-3 5.74V17a1 1 0 0 1-1 1H9a1 1 0 0 1-1-1v-2.26C6.19 13.47 5 11.38 5 9a7 7 0 0 1 7-7M9 21v-1h6v1a1 1 0 0 1-1 1h-4a1 1 0 0 1-1-1m3-17a5 5 0 0 0-5 5c0 2.05 1.23 3.81 3 4.58V16h4v-2.42c1.77-.77 3-2.53 3-4.58a5 5 0 0 0-5-5z"/></symbol><symbol id="list" viewBox="0 0 24 24"><path d="M9 5v4h12V5M9 19h12v-4H9m0-1h12v-4H9M4 9h4V5H4m0 14h4v-4H4m0-1h4v-4H4v4z"/></symbol><symbol id="menu" viewBox="0 0 24 24"><path d="M3 6h18v2H3V6m0 5h18v2H3v-2m0 5h18v2H3v-2z"/></symbol><symbol id="paper-plane-o" viewBox="0 0 24 24"><path d="M9.78 18.65l.28-4.23 7.68-6.92c.34-.31-.07-.46-.52-.19L7.74 13.3 3.64 12c-.88-.25-.89-.86.2-1.3l15.97-6.16c.73-.33 1.43.18 1.15 1.3l-2.72 12.81c-.19.91-.74 1.13-1.5.71L12.6 16.3l-1.99 1.93c-.23.23-.42.42-.83.42z"/></symbol><symbol id="picture-o" viewBox="0 0 24 24"><path d="M21 17H7V3h14m0-2H7a2 2 0 0 0-2 2v14a2 2 0 0 0 2 2h14a2 2 0 0 0 2-2V3a2 2 0 0 0-2-2M3 5H1v16a2 2 0 0 0 2 2h16v-2H3m12.96-10.71l-2.75 3.54-1.96-2.36L8.5 15h11l-3.54-4.71z"/></symbol><symbol id="plug" viewBox="0 0 24 24"><path d="M16 7V3h-2v4h-4V3H8v4C7 7 6 8 6 9v5.5L9.5 18v3h5v-3l3.5-3.5V9c0-1-1-2-2-2z"/></symbol><symbol id="plus" viewBox="0 0 24 24"><path d="M19 13h-6v6h-2v-6H5v-2h6V5h2v6h6v2z"/></symbol><symbol id="question-circle-o" viewBox="0 0 24 24"><path d="M11 18h2v-2h-2v2m1-16A10 10 0 0 0 2 12a10 10 0 0 0 10 10 10 10 0 0 0 10-10A10 10 0 0 0 12 2m0 18c-4.41 0-8-3.59-8-8s3.59-8 8-8 8 3.59 8 8-3.59 8-8 8m0-14a4 4 0 0 0-4 4h2a2 2 0 0 1 2-2 2 2 0 0 1 2 2c0 2-3 1.75-3 5h2c0-2.25 3-2.5 3-5a4 4 0 0 0-4-4z"/></symbol><symbol id="question-circle" viewBox="0 0 24 24"><path d="M15.07 11.25l-.9.92C13.45 12.89 13 13.5 13 15h-2v-.5c0-1.11.45-2.11 1.17-2.83l1.24-1.26c.37-.36.59-.86.59-1.41a2 2 0 0 0-2-2 2 2 0 0 0-2 2H8a4 4 0 0 1 4-4 4 4 0 0 1 4 4 3.2 3.2 0 0 1-.93 2.25M13 19h-2v-2h2M12 2A10 10 0 0 0 2 12a10 10 0 0 0 10 10 10 10 0 0 0 10-10c0-5.53-4.5-10-10-10z"/></symbol><symbol id="quote-right" viewBox="0 0 24 24"><path d="M14 17h3l2-4V7h-6v6h3M6 17h3l2-4V7H5v6h3l-2 4z"/></symbol><symbol id="reply" viewBox="0 0 24 24"><path d="M10 9V5l-7 7 7 7v-4.1c5 0 8.5 1.6 11 5.1-1-5-4-10-11-11z"/></symbol><symbol id="rub" viewBox="0 0 24 24"><path d="M6 10h1V3h7.5C17 3 19 5 19 7.5S17 12 14.5 12H9v2h6v2H9v5H7v-5H6v-2h1v-2H6v-2m8.5-5H9v5h5.5A2.5 2.5 0 0 0 17 7.5 2.5 2.5 0 0 0 14.5 5z"/></symbol><symbol id="search" viewBox="0 0 24 24"><path d="M15.5 14h-.79l-.28-.27A6.471 6.471 0 0 0 16 9.5 6.5 6.5 0 1 0 9.5 16c1.61 0 3.09-.59 4.23-1.57l.27.28v.79l5 4.99L20.49 19l-4.99-5zm-6 0C7.01 14 5 11.99 5 9.5S7.01 5 9.5 5 14 7.01 14 9.5 11.99 14 9.5 14z"/><path d="M0 0h24v24H0z" fill="none"/></symbol><symbol id="sign-in-variant" viewBox="0 0 24 24"><path d="M19 3H5c-1.11 0-2 .89-2 2v4h2V5h14v14H5v-4H3v4a2 2 0 0 0 2 2h14a2 2 0 0 0 2-2V5a2 2 0 0 0-2-2m-8.92 12.58L11.5 17l5-5-5-5-1.42 1.41L12.67 11H3v2h9.67l-2.59 2.58z"/></symbol><symbol id="sign-in" viewBox="0 0 24 24"><path d="M10 17.25V14H3v-4h7V6.75L15.25 12 10 17.25M8 2h9a2 2 0 0 1 2 2v16a2 2 0 0 1-2 2H8a2 2 0 0 1-2-2v-4h2v4h9V4H8v4H6V4a2 2 0 0 1 2-2z"/></symbol><symbol id="sign-out-variant" viewBox="0 0 24 24"><path d="M14.08 15.59L16.67 13H7v-2h9.67l-2.59-2.59L15.5 7l5 5-5 5-1.42-1.41M19 3a2 2 0 0 1 2 2v4.67l-2-2V5H5v14h14v-2.67l2-2V19a2 2 0 0 1-2 2H5a2 2 0 0 1-2-2V5c0-1.11.89-2 2-2h14z"/></symbol><symbol id="sign-out" viewBox="0 0 24 24"><path d="M17 17.25V14h-7v-4h7V6.75L22.25 12 17 17.25M13 2a2 2 0 0 1 2 2v4h-2V4H4v16h9v-4h2v4a2 2 0 0 1-2 2H4a2 2 0 0 1-2-2V4a2 2 0 0 1 2-2h9z"/></symbol><symbol id="smile-o" viewBox="0 0 24 24"><path d="M20 12a8 8 0 0 0-8-8 8 8 0 0 0-8 8 8 8 0 0 0 8 8 8 8 0 0 0 8-8m2 0a10 10 0 0 1-10 10A10 10 0 0 1 2 12 10 10 0 0 1 12 2a10 10 0 0 1 10 10M10 9.5c0 .8-.7 1.5-1.5 1.5S7 10.3 7 9.5 7.7 8 8.5 8s1.5.7 1.5 1.5m7 0c0 .8-.7 1.5-1.5 1.5S14 10.3 14 9.5 14.7 8 15.5 8s1.5.7 1.5 1.5m-5 7.73c-1.75 0-3.29-.73-4.19-1.81L9.23 14c.45.72 1.52 1.23 2.77 1.23s2.32-.51 2.77-1.23l1.42 1.42c-.9 1.08-2.44 1.81-4.19 1.81z"/></symbol><symbol id="sort-amount-asc" viewBox="0 0 24 24"><path d="M10 13v-2h8v2h-8m0 6v-2h4v2h-4m0-12V5h12v2H10M6 17h2.5L5 20.5 1.5 17H4V4h2v13z"/></symbol><symbol id="tags" viewBox="0 0 24 24"><path d="M5.5 9A1.5 1.5 0 0 0 7 7.5 1.5 1.5 0 0 0 5.5 6 1.5 1.5 0 0 0 4 7.5 1.5 1.5 0 0 0 5.5 9m11.91 2.58c.36.36.59.86.59 1.42 0 .55-.22 1.05-.59 1.41l-5 5a1.996 1.996 0 0 1-2.83 0l-6.99-6.99C2.22 12.05 2 11.55 2 11V6c0-1.11.89-2 2-2h5c.55 0 1.05.22 1.41.58l7 7m-3.87-5.87l1-1 6.87 6.87c.37.36.59.87.59 1.42 0 .55-.22 1.05-.58 1.41l-5.38 5.38-1-1L20.75 13l-7.21-7.29z"/></symbol><symbol id="tasks" viewBox="0 0 24 24"><path d="M13 18h1a1 1 0 0 1 1 1h7v2h-7a1 1 0 0 1-1 1h-4a1 1 0 0 1-1-1H2v-2h7a1 1 0 0 1 1-1h1v-2H4a1 1 0 0 1-1-1v-4a1 1 0 0 1 1-1h16a1 1 0 0 1 1 1v4a1 1 0 0 1-1 1h-7v2M4 2h16a1 1 0 0 1 1 1v4a1 1 0 0 1-1 1H4a1 1 0 0 1-1-1V3a1 1 0 0 1 1-1m5 4h1V4H9v2m0 8h1v-2H9v2M5 4v2h2V4H5m0 8v2h2v-2H5z"/></symbol><symbol id="text-o" viewBox="0 0 24 24"><path d="M19 20H5V4h2v3h10V4h2m-7-2a1 1 0 0 1 1 1 1 1 0 0 1-1 1 1 1 0 0 1-1-1 1 1 0 0 1 1-1m7 0h-4.18C14.4.84 13.3 0 12 0c-1.3 0-2.4.84-2.82 2H5a2 2 0 0 0-2 2v16a2 2 0 0 0 2 2h14a2 2 0 0 0 2-2V4a2 2 0 0 0-2-2z"/></symbol><symbol id="times" viewBox="0 0 24 24"><path d="M19 6.41L17.59 5 12 10.59 6.41 5 5 6.41 10.59 12 5 17.59 6.41 19 12 13.41 17.59 19 19 17.59 13.41 12 19 6.41z"/></symbol><symbol id="trash" viewBox="0 0 24 24"><path d="M19 4h-3.5l-1-1h-5l-1 1H5v2h14M6 19a2 2 0 0 0 2 2h8a2 2 0 0 0 2-2V7H6v12z"/></symbol><symbol id="twitter" viewBox="0 0 24 24"><path d="M22.46 6c-.77.35-1.6.58-2.46.69.88-.53 1.56-1.37 1.88-2.38-.83.5-1.75.85-2.72 1.05C18.37 4.5 17.26 4 16 4c-2.35 0-4.27 1.92-4.27 4.29 0 .34.04.67.11.98C8.28 9.09 5.11 7.38 3 4.79c-.37.63-.58 1.37-.58 2.15 0 1.49.75 2.81 1.91 3.56-.71 0-1.37-.2-1.95-.5v.03c0 2.08 1.48 3.82 3.44 4.21a4.22 4.22 0 0 1-1.93.07 4.28 4.28 0 0 0 4 2.98 8.521 8.521 0 0 1-5.33 1.84c-.34 0-.68-.02-1.02-.06C3.44 20.29 5.7 21 8.12 21 16 21 20.33 14.46 20.33 8.79c0-.19 0-.37-.01-.56.84-.6 1.56-1.36 2.14-2.23z"/></symbol><symbol id="upload" viewBox="0 0 24 24"><path d="M9 16v-6H5l7-7 7 7h-4v6H9m-4 4v-2h14v2H5z"/></symbol><symbol id="user-plus" viewBox="0 0 24 24"><path d="M15 14c-2.67 0-8 1.33-8 4v2h16v-2c0-2.67-5.33-4-8-4m-9-4V7H4v3H1v2h3v3h2v-3h3v-2m6 2a4 4 0 0 0 4-4 4 4 0 0 0-4-4 4 4 0 0 0-4 4 4 4 0 0 0 4 4z"/></symbol><symbol id="user-secret" viewBox="0 0 24 24"><path d="M12 3C9.31 3 7.41 4.22 7.41 4.22L6 9h12l-1.41-4.78S14.69 3 12 3m0 8c-2.73 0-6.61.54-6.87.59-1.04.28-1.88.56-2.54.82C1.58 12.75 1 13 1 13h22s-.58-.25-1.59-.59c-.66-.26-1.52-.54-2.57-.82 0 0-4.02-.59-6.84-.59m-4.5 3A3.5 3.5 0 0 0 4 17.5 3.5 3.5 0 0 0 7.5 21a3.5 3.5 0 0 0 3.5-3.5c0-.16 0-.32-.03-.47.32-.07.66-.13 1.03-.12.37 0 .71.05 1.03.12-.03.15-.03.31-.03.47a3.5 3.5 0 0 0 3.5 3.5 3.5 3.5 0 0 0 3.5-3.5 3.5 3.5 0 0 0-3.5-3.5c-1.47 0-2.73.9-3.25 2.19-.32-.1-.7-.19-1.25-.19s-.93.09-1.25.19A3.498 3.498 0 0 0 7.5 14m0 1a2.5 2.5 0 0 1 2.5 2.5A2.5 2.5 0 0 1 7.5 20 2.5 2.5 0 0 1 5 17.5 2.5 2.5 0 0 1 7.5 15m9 0a2.5 2.5 0 0 1 2.5 2.5 2.5 2.5 0 0 1-2.5 2.5 2.5 2.5 0 0 1-2.5-2.5 2.5 2.5 0 0 1 2.5-2.5z"/></symbol><symbol id="user" viewBox="0 0 24 24"><path d="M12 4a4 4 0 0 1 4 4 4 4 0 0 1-4 4 4 4 0 0 1-4-4 4 4 0 0 1 4-4m0 10c4.42 0 8 1.79 8 4v2H4v-2c0-2.21 3.58-4 8-4z"/></symbol><symbol id="users" viewBox="0 0 24 24"><path d="M16 13c-.29 0-.62 0-.97.05C16.19 13.89 17 15 17 16.5V19h6v-2.5c0-2.33-4.67-3.5-7-3.5m-8 0c-2.33 0-7 1.17-7 3.5V19h14v-2.5c0-2.33-4.67-3.5-7-3.5m0-2a3 3 0 0 0 3-3 3 3 0 0 0-3-3 3 3 0 0 0-3 3 3 3 0 0 0 3 3m8 0a3 3 0 0 0 3-3 3 3 0 0 0-3-3 3 3 0 0 0-3 3 3 3 0 0 0 3 3z"/></symbol><symbol id="vk" viewBox="0 0 24 24"><path d="M19.54 14.6c1.55 1.44 1.87 2.13 1.92 2.22.64 1.06-.7 1.14-.7 1.14l-2.58.04s-.56.11-1.28-.39c-.97-.66-1.9-2.39-2.59-2.16-.71.23-.69 1.78-.69 1.78s0 .22-.16.39c-.18.19-.53.12-.53.12h-1.15S9.23 18 7 15.67c-2.45-2.54-4.61-7.54-4.61-7.54s-.12-.3.01-.47c.15-.16.57-.16.57-.16h2.76s.27 0 .44.16c.15.11.24.34.24.34s.44 1.11 1.04 2.13c1.15 1.99 1.68 2.42 2.05 2.21.6-.31.43-2.81.43-2.81s.01-.91-.29-1.31c-.23-.31-.67-.41-.86-.43-.16-.02.1-.38.43-.55C9.71 7 10.58 7 11.62 7c.81 0 1.04.06 1.35.13.96.23.63 1.12.63 3.24 0 .69-.1 1.63.37 1.96.21.14.73.02 2.03-2.17.6-1.04 1.06-2.27 1.06-2.27s.1-.21.25-.31c.16-.08.38-.08.38-.08h2.9s.88-.1 1.02.29c.15.41-.33 1.38-1.52 2.95-1.94 2.6-2.16 2.36-.55 3.86z"/></symbol><symbol id="youtube" viewBox="0 0 24 24"><path d="M10 16.5v-9l6 4.5m4-7.6c-.6-.2-4.3-.4-8-.4s-7.4.19-8 .38C2.44 4.9 2 8.4 2 12c0 3.59.44 7.1 2 7.61.6.2 4.3.39 8 .39s7.4-.19 8-.39c1.56-.51 2-4.02 2-7.61 0-3.6-.44-7.09-2-7.6z"/></symbol></svg>