<svg xmlns="http://www.w3.org/2000/svg" width="24" height="24" viewBox="0 0 24 24"><path d="M12.857 3.429q0-.348-.254-.603T12 2.572t-.603.254-.254.603.254.603.603.254.603-.254.254-.603zM24 15.857v4.714q0 .295-.268.402-.107.027-.161.027-.174 0-.308-.121l-1.246-1.246q-1.594 1.915-4.266 3.033t-5.752 1.118-5.752-1.118-4.266-3.033L.735 20.879Q.614 21 .427 21q-.054 0-.161-.027-.268-.107-.268-.402v-4.714q0-.188.121-.308t.308-.121h4.714q.295 0 .402.268.107.254-.094.469L4.11 17.504q.897 1.219 2.538 2.056t3.636 1.105V12H7.713q-.348 0-.603-.254t-.254-.603V9.429q0-.348.254-.603t.603-.254h2.571V6.389q-.777-.455-1.246-1.239t-.469-1.721q0-1.42 1.004-2.424T11.997.001t2.424 1.004 1.004 2.424q0 .938-.469 1.721T13.71 6.389v2.183h2.571q.348 0 .603.254t.254.603v1.714q0 .348-.254.603t-.603.254H13.71v8.665q1.996-.268 3.636-1.105t2.538-2.056l-1.339-1.339q-.201-.214-.094-.469.107-.268.402-.268h4.714q.188 0 .308.121t.121.308z"/></svg>