<svg xmlns="http://www.w3.org/2000/svg" width="24" height="24" viewBox="0 0 24 24"><path d="M14.571 11.143q0-.348-.254-.603t-.603-.254h-3.429q-.348 0-.603.254t-.254.603.254.603.603.254h3.429q.348 0 .603-.254t.254-.603zm7.715-2.572v12.857q0 .348-.254.603t-.603.254H2.572q-.348 0-.603-.254t-.254-.603V8.571q0-.348.254-.603t.603-.254h18.857q.348 0 .603.254t.254.603zm.857-6V6q0 .348-.254.603t-.603.254H1.715q-.348 0-.603-.254T.858 6V2.571q0-.348.254-.603t.603-.254h20.571q.348 0 .603.254t.254.603z"/></svg>