<svg xmlns="http://www.w3.org/2000/svg" width="24" height="24" viewBox="0 0 24 24"><path d="M19.059 7.059l-4.235 7.765h8.471zm-14.118 0L.706 14.824h8.471zm9.055-2.118q-.154.441-.502.789t-.789.502v14.239h6.706q.154 0 .254.099t.099.254v.706q0 .154-.099.254t-.254.099H4.587q-.154 0-.254-.099t-.099-.254v-.706q0-.154.099-.254t.254-.099h6.706V6.232q-.441-.154-.789-.502t-.502-.789H4.587q-.154 0-.254-.099t-.099-.254v-.706q0-.154.099-.254t.254-.099h5.415q.232-.629.772-1.02t1.224-.392 1.224.392.772 1.02h5.415q.154 0 .254.099t.099.254v.706q0 .154-.099.254t-.254.099h-5.415zM12 5.118q.364 0 .623-.259t.259-.623-.259-.623T12 3.354t-.623.259-.259.623.259.623.623.259zm12 9.706q0 .805-.513 1.445t-1.296 1.004-1.594.546-1.539.182-1.539-.182-1.594-.546-1.296-1.004-.513-1.445q0-.121.386-.893t1.015-1.925 1.18-2.156 1.125-2.029.618-1.103q.199-.364.618-.364t.618.364l.618 1.103q.574 1.026 1.125 2.029t1.18 2.156 1.015 1.925.386.893zm-14.118 0q0 .805-.513 1.445t-1.296 1.004-1.594.546-1.539.182-1.539-.182-1.594-.546-1.296-1.004-.513-1.445q0-.121.386-.893t1.015-1.925 1.18-2.156 1.125-2.029.618-1.103q.199-.364.618-.364t.618.364l.618 1.103Q6.75 8.847 7.301 9.85t1.18 2.156 1.015 1.925.386.893z"/></svg>