<svg xmlns="http://www.w3.org/2000/svg" width="24" height="24" viewBox="0 0 24 24"><path d="M8.571 5.143h6.857V3.429H8.571v1.714zM24 13.714v6.429q0 .884-.629 1.513t-1.513.629H2.144q-.884 0-1.513-.629t-.629-1.513v-6.429h9v2.143q0 .348.254.603t.603.254h4.286q.348 0 .603-.254t.254-.603v-2.143h9zm-10.286 0v1.714h-3.429v-1.714h3.429zM24 7.286v5.143H0V7.286q0-.884.629-1.513t1.513-.629h4.714V3.001q0-.536.375-.911t.911-.375h7.714q.536 0 .911.375t.375.911v2.143h4.714q.884 0 1.513.629t.629 1.513z"/></svg>