<svg xmlns="http://www.w3.org/2000/svg" width="24" height="24" viewBox="0 0 24 24"><path d="M7.714 17.571v.857q0 .174-.127.301t-.301.127h-.857q-.174 0-.301-.127t-.127-.301v-.857q0-.174.127-.301t.301-.127h.857q.174 0 .301.127t.127.301zm0-3.428V15q0 .174-.127.301t-.301.127h-.857q-.174 0-.301-.127T6.001 15v-.857q0-.174.127-.301t.301-.127h.857q.174 0 .301.127t.127.301zm3.429 0V15q0 .174-.127.301t-.301.127h-.857q-.174 0-.301-.127T9.43 15v-.857q0-.174.127-.301t.301-.127h.857q.174 0 .301.127t.127.301zm-3.429-3.429v.857q0 .174-.127.301t-.301.127h-.857q-.174 0-.301-.127t-.127-.301v-.857q0-.174.127-.301t.301-.127h.857q.174 0 .301.127t.127.301zM18 17.571v.857q0 .174-.127.301t-.301.127h-.857q-.174 0-.301-.127t-.127-.301v-.857q0-.174.127-.301t.301-.127h.857q.174 0 .301.127t.127.301zm-3.429-3.428V15q0 .174-.127.301t-.301.127h-.857q-.174 0-.301-.127T12.858 15v-.857q0-.174.127-.301t.301-.127h.857q.174 0 .301.127t.127.301zm-3.428-3.429v.857q0 .174-.127.301t-.301.127h-.857q-.174 0-.301-.127t-.127-.301v-.857q0-.174.127-.301t.301-.127h.857q.174 0 .301.127t.127.301zM7.714 7.286v.857q0 .174-.127.301t-.301.127h-.857q-.174 0-.301-.127t-.127-.301v-.857q0-.174.127-.301t.301-.127h.857q.174 0 .301.127t.127.301zM18 14.143V15q0 .174-.127.301t-.301.127h-.857q-.174 0-.301-.127T16.287 15v-.857q0-.174.127-.301t.301-.127h.857q.174 0 .301.127t.127.301zm-3.429-3.429v.857q0 .174-.127.301t-.301.127h-.857q-.174 0-.301-.127t-.127-.301v-.857q0-.174.127-.301t.301-.127h.857q.174 0 .301.127t.127.301zm-3.428-3.428v.857q0 .174-.127.301t-.301.127h-.857q-.174 0-.301-.127t-.127-.301v-.857q0-.174.127-.301t.301-.127h.857q.174 0 .301.127t.127.301zM7.714 3.857v.857q0 .174-.127.301t-.301.127h-.857q-.174 0-.301-.127t-.127-.301v-.857q0-.174.127-.301t.301-.127h.857q.174 0 .301.127t.127.301zM18 10.714v.857q0 .174-.127.301t-.301.127h-.857q-.174 0-.301-.127t-.127-.301v-.857q0-.174.127-.301t.301-.127h.857q.174 0 .301.127t.127.301zm-3.429-3.428v.857q0 .174-.127.301t-.301.127h-.857q-.174 0-.301-.127t-.127-.301v-.857q0-.174.127-.301t.301-.127h.857q.174 0 .301.127t.127.301zm-3.428-3.429v.857q0 .174-.127.301t-.301.127h-.857q-.174 0-.301-.127t-.127-.301v-.857q0-.174.127-.301t.301-.127h.857q.174 0 .301.127t.127.301zM18 7.286v.857q0 .174-.127.301t-.301.127h-.857q-.174 0-.301-.127t-.127-.301v-.857q0-.174.127-.301t.301-.127h.857q.174 0 .301.127t.127.301zm-3.429-3.429v.857q0 .174-.127.301t-.301.127h-.857q-.174 0-.301-.127t-.127-.301v-.857q0-.174.127-.301t.301-.127h.857q.174 0 .301.127t.127.301zm3.429 0v.857q0 .174-.127.301t-.301.127h-.857q-.174 0-.301-.127t-.127-.301v-.857q0-.174.127-.301t.301-.127h.857q.174 0 .301.127t.127.301zm-3.429 18.429h5.143V1.715H4.285v20.571h5.143v-3q0-.174.127-.301t.301-.127h4.286q.174 0 .301.127t.127.301v3zM21.429.857v22.286q0 .348-.254.603t-.603.254H3.429q-.348 0-.603-.254t-.254-.603V.857q0-.348.254-.603T3.429 0h17.143q.348 0 .603.254t.254.603z"/></svg>