<svg xmlns="http://www.w3.org/2000/svg" width="24" height="24" viewBox="0 0 24 24"><path d="M22.286 8.571q.71 0 1.212.502T24 10.285t-.502 1.212-1.212.502v5.143q0 .696-.509 1.205t-1.205.509q-5.585-4.647-10.875-5.089-.777.254-1.219.884t-.415 1.346.536 1.239q-.268.442-.308.877t.08.777.449.737.643.67.824.676q-.388.777-1.493 1.112t-2.257.154-1.768-.743q-.094-.308-.395-1.172t-.429-1.266-.308-1.192-.201-1.353.047-1.319.295-1.48H2.144q-.884 0-1.513-.629t-.629-1.513V9.001q0-.884.629-1.513t1.513-.629h6.429q5.826 0 12-5.143.696 0 1.205.509t.509 1.205v5.143zm-1.715 8.09V3.884q-5.277 4.045-10.286 4.594v3.616q5.049.563 10.286 4.567z"/></svg>