<svg xmlns="http://www.w3.org/2000/svg" width="24" height="24" viewBox="0 0 24 24"><path d="M2.571 22.286h3.857v-3.857H2.571v3.857zm4.715 0h4.286v-3.857H7.286v3.857zm-4.715-4.715h3.857v-4.286H2.571v4.286zm4.715 0h4.286v-4.286H7.286v4.286zm-4.715-5.142h3.857V8.572H2.571v3.857zm9.858 9.857h4.286v-3.857h-4.286v3.857zm-5.143-9.857h4.286V8.572H7.286v3.857zm10.285 9.857h3.857v-3.857h-3.857v3.857zm-5.142-4.715h4.286v-4.286h-4.286v4.286zM7.714 6V2.143q0-.174-.127-.301t-.301-.127h-.857q-.174 0-.301.127t-.127.301V6q0 .174.127.301t.301.127h.857q.174 0 .301-.127T7.714 6zm9.857 11.571h3.857v-4.286h-3.857v4.286zm-5.142-5.142h4.286V8.572h-4.286v3.857zm5.142 0h3.857V8.572h-3.857v3.857zM18 6V2.143q0-.174-.127-.301t-.301-.127h-.857q-.174 0-.301.127t-.127.301V6q0 .174.127.301t.301.127h.857q.174 0 .301-.127T18 6zm5.143-.857v17.143q0 .696-.509 1.205T21.429 24H2.572q-.696 0-1.205-.509t-.509-1.205V5.143q0-.696.509-1.205t1.205-.509h1.714V2.143q0-.884.629-1.513T6.428.001h.857q.884 0 1.513.629t.629 1.513v1.286h5.143V2.143q0-.884.629-1.513t1.513-.629h.857q.884 0 1.513.629t.629 1.513v1.286h1.714q.696 0 1.205.509t.509 1.205z"/></svg>