<svg xmlns="http://www.w3.org/2000/svg" width="24" height="24" viewBox="0 0 24 24"><path d="M17.397 10.888l-5.652 5.652q-.254.254-.603.254t-.603-.254l-3.938-3.938q-.254-.254-.254-.603t.254-.603l1.366-1.366q.254-.254.603-.254t.603.254l1.969 1.969 3.683-3.683q.254-.254.603-.254t.603.254l1.366 1.366q.254.254.254.603t-.254.603zM19.286 12q0-1.982-.978-3.656t-2.652-2.652T12 4.714t-3.656.978-2.652 2.652T4.714 12t.978 3.656 2.652 2.652 3.656.978 3.656-.978 2.652-2.652.978-3.656zm3 0q0 2.799-1.379 5.163t-3.743 3.743-5.163 1.379-5.163-1.379-3.743-3.743T1.716 12t1.379-5.163 3.743-3.743 5.163-1.379 5.163 1.379 3.743 3.743T22.286 12z"/></svg>