<svg xmlns="http://www.w3.org/2000/svg" width="24" height="24" viewBox="0 0 24 24"><path d="M13.714 7.286v6q0 .188-.121.308t-.308.121H8.999q-.188 0-.308-.121t-.121-.308v-.857q0-.188.121-.308T8.999 12h3V7.286q0-.188.121-.308t.308-.121h.857q.188 0 .308.121t.121.308zM19.286 12q0-1.982-.978-3.656t-2.652-2.652T12 4.714t-3.656.978-2.652 2.652T4.714 12t.978 3.656 2.652 2.652 3.656.978 3.656-.978 2.652-2.652.978-3.656zm3 0q0 2.799-1.379 5.163t-3.743 3.743-5.163 1.379-5.163-1.379-3.743-3.743T1.716 12t1.379-5.163 3.743-3.743 5.163-1.379 5.163 1.379 3.743 3.743T22.286 12z"/></svg>