<svg xmlns="http://www.w3.org/2000/svg" width="24" height="24" viewBox="0 0 24 24"><path d="M9 19.714q0-.536-.375-.911t-.911-.375-.911.375-.375.911.375.911.911.375.911-.375.375-.911zM9 4.286q0-.536-.375-.911T7.714 3t-.911.375-.375.911.375.911.911.375.911-.375T9 4.286zM17.571 6q0-.536-.375-.911t-.911-.375-.911.375-.375.911.375.911.911.375.911-.375.375-.911zm1.286 0q0 .696-.348 1.292t-.938.931q-.027 3.844-3.027 5.545-.911.509-2.719 1.085-1.714.536-2.27.951t-.556 1.339v.348q.589.335.938.931t.348 1.292q0 1.071-.75 1.821t-1.821.75-1.821-.75-.75-1.821q0-.696.348-1.292t.937-.931V6.509q-.589-.335-.938-.931t-.348-1.292q0-1.071.75-1.821t1.821-.75 1.821.75.75 1.821q0 .696-.348 1.292t-.938.931v6.656q.723-.348 2.063-.763.737-.228 1.172-.395t.944-.415.79-.529.542-.683.375-.931.114-1.225q-.589-.335-.938-.931t-.348-1.292q0-1.071.75-1.821t1.821-.75 1.821.75.75 1.821z"/></svg>