<svg xmlns="http://www.w3.org/2000/svg" width="24" height="24" viewBox="0 0 24 24"><path d="M7.502 17.757l-.656.656q-.131.131-.302.131t-.302-.131L.131 12.302Q0 12.171 0 12t.131-.302l6.111-6.111q.131-.131.302-.131t.302.131l.656.656q.131.131.131.302t-.131.302l-5.154 5.154 5.154 5.154q.131.131.131.302t-.131.302zm7.75-13.993L10.36 20.695q-.052.171-.203.256t-.308.033l-.813-.223q-.171-.052-.256-.203t-.033-.321l4.892-16.931q.052-.171.203-.256t.308-.033l.813.223q.171.052.256.203t.033.321zm8.617 8.538l-6.111 6.111q-.131.131-.302.131t-.302-.131l-.656-.656q-.131-.131-.131-.302t.131-.302l5.154-5.154-5.154-5.154q-.131-.131-.131-.302t.131-.302l.656-.656q.131-.131.302-.131t.302.131l6.111 6.111q.131.131.131.302t-.131.302z"/></svg>