<svg xmlns="http://www.w3.org/2000/svg" width="24" height="24" viewBox="0 0 24 24"><path d="M11.2 11.994q0-1.325-.938-2.263t-2.263-.938-2.263.938-.938 2.263.938 2.263 2.263.938 2.263-.938.938-2.263zm9.6 6.4q0-.65-.475-1.125t-1.125-.475-1.125.475-.475 1.125q0 .663.469 1.131t1.131.469 1.131-.469.469-1.131zm0-12.8q0-.65-.475-1.125T19.2 3.994t-1.125.475-.475 1.125q0 .663.469 1.131t1.131.469 1.131-.469.469-1.131zM16 10.856v2.312q0 .125-.087.244t-.2.131l-1.937.3q-.138.438-.4.95.425.6 1.125 1.437.087.125.087.25 0 .15-.087.237-.288.375-1.031 1.119t-.981.744q-.138 0-.263-.087l-1.437-1.125q-.462.237-.963.387-.138 1.35-.288 1.937-.087.3-.375.3H6.838q-.138 0-.25-.094t-.125-.219l-.288-1.913q-.425-.125-.938-.387l-1.475 1.113q-.087.087-.25.087-.138 0-.262-.1-1.8-1.662-1.8-2 0-.112.087-.237.125-.175.513-.663t.588-.762q-.288-.55-.438-1.025l-1.9-.3q-.125-.012-.212-.119t-.087-.244v-2.312q0-.125.087-.244t.2-.131l1.937-.3q.138-.438.4-.95-.425-.6-1.125-1.437-.087-.138-.087-.25 0-.15.087-.25.275-.375 1.025-1.113t.987-.737q.138 0 .263.087l1.437 1.125q.425-.225.963-.4.138-1.35.288-1.925.087-.3.375-.3h2.325q.138 0 .25.094t.125.219l.288 1.913q.425.125.938.387l1.475-1.113q.1-.087.25-.087.138 0 .263.1 1.8 1.662 1.8 2 0 .112-.087.237-.15.2-.525.675t-.563.75q.288.6.425 1.025l1.9.288q.125.025.212.131t.087.244zm8 6.663v1.75q0 .2-1.863.387-.15.337-.375.65.637 1.412.637 1.725 0 .05-.05.087-1.525.887-1.55.887-.1 0-.575-.588t-.65-.85q-.25.025-.375.025t-.375-.025q-.175.262-.65.85t-.575.588q-.025 0-1.55-.887-.05-.038-.05-.087 0-.313.637-1.725-.225-.313-.375-.65-1.863-.188-1.863-.387v-1.75q0-.2 1.863-.387.163-.362.375-.65-.637-1.412-.637-1.725 0-.05.05-.087.05-.025.438-.25t.737-.425.375-.2q.1 0 .575.581t.65.844q.25-.025.375-.025t.375.025q.637-.887 1.15-1.4l.075-.025q.05 0 1.55.875.05.038.05.087 0 .313-.638 1.725.212.288.375.65 1.863.188 1.863.387zm0-12.8v1.75q0 .2-1.863.387-.15.338-.375.65.637 1.412.637 1.725 0 .05-.05.087-1.525.887-1.55.887-.1 0-.575-.588t-.65-.85q-.25.025-.375.025t-.375-.025q-.175.262-.65.85t-.575.588q-.025 0-1.55-.887-.05-.037-.05-.087 0-.313.637-1.725-.225-.313-.375-.65-1.863-.188-1.863-.387v-1.75q0-.2 1.863-.387.163-.362.375-.65-.637-1.412-.637-1.725 0-.05.05-.087.05-.025.438-.25t.737-.425.375-.2q.1 0 .575.581t.65.844q.25-.025.375-.025t.375.025q.637-.887 1.15-1.4l.075-.025q.05 0 1.55.875.05.037.05.087 0 .313-.638 1.725.212.288.375.65 1.863.188 1.863.387z"/></svg>