<svg xmlns="http://www.w3.org/2000/svg" width="24" height="24" viewBox="0 0 24 24"><path d="M24 10.272q0 2.33-1.607 4.306t-4.366 3.121T12 18.844q-.938 0-1.942-.107-2.652 2.344-6.161 3.241-.656.188-1.527.295-.228.027-.408-.121t-.234-.388v-.013q-.04-.054-.007-.161t.027-.134.06-.127l.08-.121.094-.114.107-.121q.094-.107.415-.462t.462-.509.415-.529.435-.683.362-.79.348-1.018q-2.103-1.192-3.315-2.946t-1.212-3.763q0-1.741.951-3.328t2.558-2.739 3.83-1.828 4.661-.676q3.268 0 6.027 1.145t4.366 3.121 1.607 4.306z"/></svg>