<svg xmlns="http://www.w3.org/2000/svg" width="24" height="24" viewBox="0 0 24 24"><path d="M9.429 4.279q-2.049 0-3.83.696T2.766 6.863 1.715 9.421q0 1.098.71 2.116t1.996 1.768l1.299.75-.469 1.125q.455-.268.83-.522l.589-.415.71.134q1.045.188 2.049.188 2.049 0 3.83-.696t2.833-1.888 1.051-2.558-1.051-2.558-2.833-1.888-3.83-.696zm0-1.714q2.558 0 4.734.917t3.435 2.498 1.259 3.442-1.259 3.442-3.435 2.498-4.734.917q-1.152 0-2.357-.214-1.661 1.179-3.723 1.714-.482.121-1.152.214h-.04q-.147 0-.275-.107t-.154-.281q-.013-.04-.013-.087t.007-.087.027-.08l.033-.067.047-.074.054-.067.06-.067.054-.06q.067-.08.308-.335t.348-.395.301-.388.335-.516.275-.589q-1.661-.964-2.612-2.371t-.951-3q0-1.862 1.259-3.442t3.435-2.498 4.734-.917zm11.008 15.656q.134.321.275.589t.335.516.301.388.348.395.308.335l.054.06.06.067q.019.02.054.067t.047.074l.033.067.027.08.007.087-.013.087q-.04.188-.174.295t-.295.094q-.67-.094-1.152-.214-2.063-.536-3.723-1.714-1.205.214-2.357.214-3.629 0-6.321-1.768.777.054 1.179.054 2.156 0 4.138-.603t3.536-1.728q1.674-1.232 2.571-2.839t.897-3.402q0-1.031-.308-2.036 1.728.951 2.732 2.384T24 12.85q0 1.607-.951 3.007t-2.612 2.364z"/></svg>