<svg xmlns="http://www.w3.org/2000/svg" width="24" height="24" viewBox="0 0 24 24"><path d="M12 3.429q-2.732 0-5.109.931T3.114 6.871t-1.4 3.415q0 1.5.958 2.859t2.699 2.35l1.165.67-.362 1.286q-.321 1.219-.938 2.304 2.036-.844 3.683-2.29l.576-.509.763.08q.924.107 1.741.107 2.732 0 5.109-.931t3.777-2.511 1.4-3.415-1.4-3.415-3.777-2.511-5.109-.931zm12 6.857q0 2.33-1.607 4.306t-4.366 3.121T12 18.858q-.938 0-1.942-.107-2.652 2.344-6.161 3.241-.656.188-1.527.295h-.067q-.201 0-.362-.141t-.214-.368v-.013q-.04-.054-.007-.161t.027-.134.06-.127l.08-.121.094-.114.107-.121q.094-.107.415-.462t.462-.509.415-.529.435-.683.362-.79.348-1.018Q2.422 15.804 1.21 14.05t-1.212-3.763q0-2.33 1.607-4.306T5.971 2.86t6.027-1.145 6.027 1.145 4.366 3.121 1.607 4.306z"/></svg>