<svg xmlns="http://www.w3.org/2000/svg" width="24" height="24" viewBox="0 0 24 24"><path d="M7.059 20.118L11.294 18v-3.463l-4.235 1.809v3.772zm-.706-5.008l4.456-1.908-4.456-1.908-4.456 1.908zm12 5.008L22.588 18v-3.463l-4.235 1.809v3.772zm-.706-5.008l4.456-1.908-4.456-1.908-4.456 1.908zm-4.941-3.231l4.235-1.82V7.125l-4.235 1.809v2.945zM12 7.699l4.864-2.085L12 3.529 7.136 5.614zm12 5.713V18q0 .397-.21.739t-.574.518l-4.941 2.471q-.276.154-.629.154t-.629-.154l-4.941-2.471q-.055-.022-.077-.044-.022.022-.077.044l-4.941 2.471q-.276.154-.629.154t-.629-.154L.782 19.257q-.364-.176-.574-.518T-.002 18v-4.588q0-.419.237-.772t.623-.529l4.787-2.051V5.648q0-.419.237-.772t.623-.529l4.941-2.118q.254-.11.551-.11t.551.11l4.941 2.118q.386.176.623.529t.237.772v4.412l4.787 2.051q.397.176.629.529t.232.772z"/></svg>