<svg xmlns="http://www.w3.org/2000/svg" width="24" height="24" viewBox="0 0 24 24"><path d="M18 19.714q0-.348-.254-.603t-.603-.254-.603.254-.254.603.254.603.603.254.603-.254.254-.603zm3.429 0q0-.348-.254-.603t-.603-.254-.603.254-.254.603.254.603.603.254.603-.254.254-.603zm1.714-3V21q0 .536-.375.911t-.911.375H2.143q-.536 0-.911-.375T.857 21v-4.286q0-.536.375-.911t.911-.375h6.228l1.808 1.821q.777.75 1.821.75t1.821-.75l1.821-1.821h6.214q.536 0 .911.375t.375.911zm-4.353-7.62q.228.549-.188.938l-6 6q-.241.254-.603.254t-.603-.254l-6-6q-.415-.388-.188-.938.228-.522.79-.522h3.429v-6q0-.348.254-.603t.603-.254h3.429q.348 0 .603.254t.254.603v6h3.429q.563 0 .79.522z"/></svg>