<svg xmlns="http://www.w3.org/2000/svg" width="24" height="24" viewBox="0 0 24 24"><path d="M17.344 21.241q-.067-.254-.321-.067-.402.295-1.165.522t-1.754.228q-1.728 0-2.585-.656-.067-.054-.174-.054-.147 0-.348.161-.094.08-.1.214t.1.268q.455.429 1.172.616t1.373.167 1.326-.06q.549-.054 1.132-.275t.871-.402.382-.275q.161-.161.094-.388zm-.523-1.54q-.254-.629-.522-.817-.308-.201-1.018-.201-.629 0-.951.134-.388.161-1.045.75-.348.321-.161.589.121.107.234.06t.422-.315q.04-.027.141-.114t.141-.114.134-.094.154-.094.167-.067.201-.06.221-.033.275-.013q.362 0 .596.1t.308.194.181.295q.134.228.167.268t.167-.013q.308-.161.188-.455zm4.755-3.764q0-.295-.067-.596t-.221-.603-.455-.489-.703-.188q-.442 0-1.299.556t-1.728 1.118-1.353.563q-.362.013-.85-.254t-1.018-.656-1.118-.777-1.339-.656-1.487-.254q-1.54.013-2.638 1.051t-1.125 2.391q-.027 1.5.991 2.196.388.268.837.382t1.386.114q.763 0 1.768-.435t1.795-.951 1.607-.944 1.246-.415q.348.013.871.422t.958.897.911.904.743.429q.469.04.783-.188t.743-.844q.375-.549.569-1.353t.194-1.42zm.71-2.142q0 2.196-.83 4.078t-2.223 3.161-3.248 2.002-3.891.723-3.924-.77-3.315-2.103-2.283-3.234-.857-4.045q0-1.192.261-2.31t.656-1.949.944-1.587 1.051-1.259 1.051-.931.864-.623.569-.328q.188-.107.683-.355t.73-.382.643-.402.81-.589q.482-.375.777-.971T11.156.24q1.728 2.076 2.491 2.585.589.388 1.741.911t1.728.884q.281.174.522.335t.81.623 1.018.944 1.004 1.272.924 1.634.629 1.989.261 2.377z"/></svg>