<svg xmlns="http://www.w3.org/2000/svg" width="24" height="24" viewBox="0 0 24 24"><path d="M24 8.652v10.634q0 .884-.629 1.513t-1.513.629H2.144q-.884 0-1.513-.629t-.629-1.513V8.652q.589.656 1.353 1.165 4.848 3.295 6.656 4.621.763.563 1.239.877t1.266.643 1.473.328h.027q.683 0 1.473-.328t1.266-.643 1.239-.877q2.277-1.647 6.67-4.621.763-.522 1.339-1.165zm0-3.938q0 1.058-.656 2.022T21.71 8.383q-5.036 3.496-6.268 4.353-.134.094-.569.408t-.723.509-.696.435-.77.362-.67.121h-.027q-.308 0-.67-.121t-.77-.362-.696-.435-.723-.509-.569-.408q-1.219-.857-3.509-2.444T2.304 8.384q-.83-.563-1.567-1.547T0 5.009q0-1.045.556-1.741t1.587-.696h19.714q.871 0 1.507.629T24 4.714z"/></svg>