<svg xmlns="http://www.w3.org/2000/svg" width="24" height="24" viewBox="0 0 24 24"><path d="M22.286 12q-2.036-3.161-5.103-4.728Q18 8.665 18 10.285q0 2.478-1.761 4.239T12 16.285t-4.239-1.761T6 10.285q0-1.621.817-3.013Q3.75 8.839 1.714 12q1.781 2.746 4.467 4.373T12 18t5.819-1.627T22.286 12zm-9.643-5.143q0-.268-.188-.455T12 6.214q-1.674 0-2.873 1.199t-1.199 2.873q0 .268.188.455t.455.188.455-.188.188-.455q0-1.152.817-1.969T12 7.5q.268 0 .455-.188t.188-.455zM24 12q0 .455-.268.924-1.875 3.08-5.042 4.935T12 19.714t-6.69-1.862-5.042-4.929Q0 12.454 0 11.999t.268-.924Q2.143 8.008 5.31 6.146T12 4.284t6.69 1.862 5.042 4.929q.268.469.268.924z"/></svg>