<svg xmlns="http://www.w3.org/2000/svg" width="24" height="24" viewBox="0 0 24 24"><path d="M21.375 5.089q.375.375.643 1.018t.268 1.179v15.429q0 .536-.375.911t-.911.375H3q-.536 0-.911-.375t-.375-.911V1.286q0-.536.375-.911T3 0h12q.536 0 1.179.268t1.018.643zm-5.946-3.268v5.036h5.036q-.134-.388-.295-.549l-4.192-4.192q-.161-.161-.549-.295zm5.142 20.465V8.572H15q-.536 0-.911-.375t-.375-.911V1.715H3.428v20.571h17.143zm-12.428-12q.107-.147.281-.167t.321.087l.683.509q.147.107.167.281t-.087.321L7.07 14.571l2.438 3.254q.107.147.087.321t-.167.281l-.683.509q-.147.107-.321.087t-.281-.167l-3.027-4.031q-.188-.254 0-.509zm10.741 4.031q.188.254 0 .509l-3.027 4.031q-.107.147-.281.167t-.321-.087l-.683-.509q-.147-.107-.167-.281t.087-.321l2.438-3.254-2.438-3.254q-.107-.147-.087-.321t.167-.281l.683-.509q.147-.107.321-.087t.281.167zm-8.304 6.174q-.174-.027-.275-.174t-.074-.321l1.848-11.129q.027-.174.174-.275t.321-.074l.844.134q.174.027.275.174t.074.321l-1.848 11.129q-.027.174-.174.275t-.321.074z"/></svg>