<svg xmlns="http://www.w3.org/2000/svg" width="24" height="24" viewBox="0 0 24 24"><path d="M6.857 20.571h10.286v-5.143H6.857v5.143zm12 0h1.714v-12q0-.188-.134-.516t-.268-.462L16.406 3.83q-.134-.134-.455-.268t-.522-.134v5.571q0 .536-.375.911t-.911.375H6.429q-.536 0-.911-.375t-.375-.911V3.428H3.429v17.143h1.714V15q0-.536.375-.911t.911-.375h11.143q.536 0 .911.375t.375.911v5.571zM13.714 8.143V3.857q0-.174-.127-.301t-.301-.127h-2.571q-.174 0-.301.127t-.127.301v4.286q0 .174.127.301t.301.127h2.571q.174 0 .301-.127t.127-.301zm8.572.428V21q0 .536-.375.911t-.911.375H3q-.536 0-.911-.375T1.714 21V3q0-.536.375-.911T3 1.714h12.429q.536 0 1.179.268t1.018.643l3.75 3.75q.375.375.643 1.018t.268 1.179z"/></svg>