<svg xmlns="http://www.w3.org/2000/svg" width="24" height="24" viewBox="0 0 24 24"><path d="M24 13.533q0 .396-.396.843l-4.292 5.058q-.549.651-1.539 1.105t-1.833.453H2.043q-.434 0-.773-.166t-.338-.549q0-.396.396-.843l4.292-5.058q.549-.651 1.539-1.105t1.833-.453h13.897q.434 0 .773.166t.338.549zm-4.381-4.394v2.044H8.992q-1.201 0-2.516.607t-2.095 1.526L.013 18.451q0-.051-.006-.16t-.006-.16V5.869q0-1.175.843-2.018t2.018-.843h4.087q1.175 0 2.018.843t.843 2.018v.409h6.948q1.175 0 2.018.843t.843 2.018z"/></svg>