<svg xmlns="http://www.w3.org/2000/svg" width="24" height="24" viewBox="0 0 24 24"><path d="M12 1.942q2.799 0 5.163 1.379t3.743 3.743 1.379 5.163q0 3.362-1.962 6.047t-5.069 3.717q-.362.067-.536-.094t-.174-.402l.007-1.025q.007-.985.007-1.801 0-1.299-.696-1.902.763-.08 1.373-.241t1.259-.522 1.085-.891.71-1.406.275-2.016q0-1.594-1.058-2.759.496-1.219-.107-2.732-.375-.121-1.085.147t-1.232.589l-.509.321q-1.246-.348-2.571-.348t-2.571.348q-.214-.147-.569-.362t-1.118-.516-1.138-.181q-.603 1.513-.107 2.732-1.058 1.165-1.058 2.759 0 1.138.275 2.009t.703 1.406 1.078.897 1.259.522 1.373.241q-.522.482-.656 1.379-.281.134-.603.201t-.763.067-.877-.288-.743-.837q-.254-.429-.65-.696t-.663-.321l-.268-.04q-.281 0-.388.06t-.067.154.121.188.174.161l.094.067q.295.134.583.509t.422.683l.134.308q.174.509.589.824t.897.402.931.094.743-.047l.308-.054q0 .509.007 1.185t.007.73q0 .241-.174.402t-.536.094q-3.107-1.031-5.069-3.717T1.72 12.225q0-2.799 1.379-5.163t3.743-3.743 5.163-1.379zM5.612 16.714q.04-.094-.094-.161-.134-.04-.174.027-.04.094.094.161.121.08.174-.027zm.415.456q.094-.067-.027-.214-.134-.121-.214-.04-.094.067.027.214.134.134.214.04zm.402.602q.121-.094 0-.254-.107-.174-.228-.08-.121.067 0 .241t.228.094zm.562.563q.107-.107-.054-.254-.161-.161-.268-.04-.121.107.054.254.161.161.268.04zm.763.335q.04-.147-.174-.214-.201-.054-.254.094t.174.201q.201.08.254-.08zm.844.067q0-.174-.228-.147-.214 0-.214.147 0 .174.228.147.214 0 .214-.147zm.777-.134q-.027-.147-.241-.121-.214.04-.188.201t.241.107.188-.188z"/></svg>