<svg xmlns="http://www.w3.org/2000/svg" width="24" height="24" viewBox="0 0 24 24"><path d="M18.479 11.375l.188 3.292q.042.719-.854 1.333t-2.448.974-3.365.359-3.365-.359T6.187 16t-.854-1.333l.188-3.292L11.5 13.26q.229.073.5.073t.5-.073zM24 8q0 .24-.229.323L12.104 11.99Q12.062 12 12 12t-.104-.01L5.104 9.844q-.448.354-.74 1.161t-.354 1.859q.656.375.656 1.135 0 .719-.604 1.115l.604 4.51q.021.146-.083.26-.094.115-.25.115h-2q-.156 0-.25-.115-.104-.115-.083-.26l.604-4.51Q2 14.718 2 13.999q0-.76.677-1.156.115-2.156 1.021-3.437L.229 8.323Q0 8.24 0 8t.229-.323L11.896 4.01Q11.938 4 12 4t.104.01l11.667 3.667Q24 7.76 24 8z"/></svg>