<svg xmlns="http://www.w3.org/2000/svg" width="24" height="24" viewBox="0 0 24 24"><path d="M10.2 2.4q-.6 0-.994.425T8.812 3.85q0 .175.037.35l1.875 7.8h-.325l-1.45-6.025Q8.836 5.5 8.455 5.2t-.869-.3q-.588 0-.988.425t-.4 1.013q0 .138.05.362.038.163.487 2.013t.85 3.525.4 1.725V16.8l-3.838-2.875q-.425-.325-.963-.325-.65 0-1.119.456t-.469 1.106q0 .838.7 1.375l6.338 4.737q.425.325.95.325h8.675q.413 0 .737-.256t.425-.656l1.25-5.013q.1-.375.125-1.1t.113-1.075l1.45-5.975q.038-.15.038-.325 0-.575-.413-.988t-1-.412q-.475 0-.863.319t-.5.781l-1.237 5.1h-.325l1.65-6.837q.037-.175.037-.35 0-.588-.4-1t-1-.412q-.475 0-.856.3t-.494.775L15.184 12h-1.587l-2.05-8.525Q11.435 3 11.053 2.7t-.856-.3zm8.063 20.8H9.588q-1.062 0-1.912-.637l-6.337-4.75q-.625-.475-.981-1.175t-.356-1.475q0-1.313.938-2.238T3.19 12q.313 0 .619.069t.519.138.513.256.438.288.481.369.469.356l-1.537-6.4q-.087-.438-.087-.737 0-1.163.75-2.025t1.9-.988Q7.43 2.239 8.261 1.52t1.944-.719q1.038 0 1.85.644t1.062 1.656l1.287 5.35 1.038-4.35q.25-1.013 1.062-1.656t1.85-.644q1.087 0 1.906.675t1.031 1.738q1.162.125 1.937.975t.775 2.013q0 .375-.087.712l-1.45 5.962q-.063.275-.063.838 0 .638-.163 1.35l-1.262 5.013q-.237.938-.994 1.531t-1.719.594z"/></svg>