<svg xmlns="http://www.w3.org/2000/svg" width="24" height="24" viewBox="0 0 24 24"><path d="M15.643 16.286q0 .442-.315.757t-.757.315-.757-.315-.315-.757.315-.757.757-.315.757.315.315.757zm3.428 0q0 .442-.315.757t-.757.315-.757-.315-.315-.757.315-.757.757-.315.757.315.315.757zm1.5 2.143v-4.286q0-.174-.127-.301t-.301-.127H3.857q-.174 0-.301.127t-.127.301v4.286q0 .174.127.301t.301.127h16.286q.174 0 .301-.127t.127-.301zM4.098 12h15.804l-2.103-6.455q-.054-.174-.214-.288t-.348-.114H6.764q-.188 0-.348.114t-.214.288zm18.188 2.143v4.286q0 .884-.629 1.513t-1.513.629H3.858q-.884 0-1.513-.629t-.629-1.513v-4.286q0-.335.214-1.004l2.638-8.116q.228-.71.844-1.152t1.353-.442h10.473q.737 0 1.353.442t.844 1.152l2.638 8.116q.214.67.214 1.004z"/></svg>