<svg xmlns="http://www.w3.org/2000/svg" width="24" height="24" viewBox="0 0 24 24"><path d="M22.286 12q0 2.089-.817 3.991t-2.196 3.281-3.281 2.196-3.991.817q-2.304 0-4.379-.971t-3.536-2.739q-.094-.134-.087-.301t.114-.275l1.835-1.848q.134-.121.335-.121.214.027.308.161.978 1.272 2.397 1.969t3.013.696q1.393 0 2.658-.542t2.19-1.467 1.467-2.19.542-2.658-.542-2.658-1.467-2.19-2.19-1.467-2.658-.542q-1.313 0-2.518.475T7.34 6.976l1.835 1.848q.415.402.188.924-.228.536-.79.536h-6q-.348 0-.603-.254t-.254-.603v-6q0-.563.536-.79.522-.228.924.188l1.741 1.728Q6.35 3.2 8.192 2.457t3.81-.743q2.089 0 3.991.817t3.281 2.196 2.196 3.281.817 3.991zm-8.572-3.857v6q0 .188-.121.308t-.308.121H8.999q-.188 0-.308-.121t-.121-.308v-.857q0-.188.121-.308t.308-.121h3V8.143q0-.188.121-.308t.308-.121h.857q.188 0 .308.121t.121.308z"/></svg>