<svg xmlns="http://www.w3.org/2000/svg" width="24" height="24" viewBox="0 0 24 24"><path d="M10.473 14.438q-.013.04-.167-.007t-.422-.154l-.268-.121q-.589-.268-1.165-.656-.094-.067-.549-.422t-.509-.382q-.897 1.379-1.795 2.424-1.085 1.272-1.406 1.473-.054.027-.261.054t-.248 0q.08-.054 1.098-1.232.281-.321 1.145-1.54t1.051-1.58q.228-.402.683-1.319t.482-1.038q-.107-.013-1.473.442-.107.027-.368.1t-.462.127-.228.067q-.027.027-.027.141t-.013.127q-.067.134-.415.201-.308.094-.629 0-.241-.054-.375-.281-.054-.08-.067-.308.08-.027.328-.067t.395-.08q.777-.214 1.406-.429 1.339-.469 1.366-.469.134-.027.576-.261t.589-.288q.121-.04.288-.107t.194-.074.08.007q.027.161-.013.442 0 .027-.167.362t-.355.717-.228.449q-.335.67-1.031 1.754l.857.375q.161.08.998.429t.904.375q.054.013.141.342t.06.408zM7.728 7.929q.04.201-.054.375-.161.308-.67.509-.402.161-.804.161-.348-.04-.656-.348-.188-.201-.241-.549l.013-.04q.04.04.261.067t.355 0 .777-.214q.482-.161.737-.188.228 0 .281.228zm9.348 1.727l.844 3.04-1.862-.563zM2.237 20.371l9.295-3.107V3.443L2.237 6.564v13.808zm16.62-4.246l1.366.415-2.424-8.799-1.339-.415-2.893 7.179 1.366.415.603-1.473 2.826.871zM12.121 3.241l7.674 2.464V.616zm4.165 17.719l2.116.174-.723 2.143-.536-.884q-1.741 1.112-3.696 1.446-.777.161-1.219.161h-1.125q-1.058 0-2.672-.522T5.973 22.34q-.107-.094-.107-.214 0-.107.067-.181t.174-.074q.054 0 .241.1t.408.221.275.147q.978.496 2.136.824t2.109.328q1.272 0 2.237-.194t2.103-.676q.201-.094.408-.208t.455-.254.382-.221zm6-14.451V20.96L11.92 17.665q-.188.08-5.022 1.708T1.969 21q-.174 0-.241-.174 0-.013-.013-.04V6.348q.04-.121.054-.134.067-.08.268-.147 1.42-.469 1.996-.67V.254l7.473 2.652q.027 0 2.15-.737T17.888.716t2.163-.717q.268 0 .268.281v5.598z"/></svg>