<svg xmlns="http://www.w3.org/2000/svg" width="24" height="24" viewBox="0 0 24 24"><path d="M12 0q2.438 0 4.661.951t3.83 2.558 2.558 3.83T24 12t-.951 4.661-2.558 3.83-3.83 2.558T12 24t-4.661-.951-3.83-2.558-2.558-3.83T0 12t.951-4.661 2.558-3.83T7.339.951 12 0zm0 1.714q-2.545 0-4.835 1.205l2.598 2.598q1.098-.375 2.237-.375t2.237.375l2.598-2.598Q14.545 1.714 12 1.714zM2.92 16.835l2.598-2.598Q5.143 13.139 5.143 12t.375-2.237L2.92 7.165Q1.715 9.455 1.715 12t1.205 4.835zM12 22.286q2.545 0 4.835-1.205l-2.598-2.598q-1.098.375-2.237.375t-2.237-.375l-2.598 2.598q2.29 1.205 4.835 1.205zm0-5.143q2.129 0 3.636-1.507T17.143 12t-1.507-3.636T12 6.857 8.364 8.364 6.857 12t1.507 3.636T12 17.143zm6.482-2.906l2.598 2.598q1.205-2.29 1.205-4.835T21.08 7.165l-2.598 2.598q.375 1.098.375 2.237t-.375 2.237z"/></svg>