<svg xmlns="http://www.w3.org/2000/svg" width="24" height="24" viewBox="0 0 24 24"><path d="M15 7.714q0 .174-.127.301t-.301.127-.301-.127-.127-.301q0-.616-.723-.951t-1.42-.335q-.174 0-.301-.127T11.573 6t.127-.301.301-.127q.67 0 1.333.214t1.165.723.502 1.205zm2.143 0q0-.964-.462-1.795T15.476 4.56t-1.647-.83-1.828-.301-1.828.301-1.647.83-1.205 1.359-.462 1.795q0 1.353.911 2.411.134.147.408.442t.408.442Q10.3 13.058 10.474 15h3.054q.174-1.942 1.888-3.991.134-.147.408-.442t.408-.442q.911-1.058.911-2.411zm1.714 0q0 2.076-1.379 3.589-.603.656-.998 1.165t-.797 1.279-.455 1.44q.629.375.629 1.098 0 .496-.335.857.335.362.335.857 0 .696-.603 1.085.174.308.174.629 0 .616-.422.951t-1.038.335q-.268.589-.804.938t-1.165.348-1.165-.348-.804-.938q-.616 0-1.038-.335t-.422-.951q0-.321.174-.629-.603-.388-.603-1.085 0-.496.335-.857-.335-.362-.335-.857 0-.723.629-1.098-.054-.67-.455-1.44t-.797-1.279-.998-1.165Q5.141 9.79 5.141 7.714q0-1.326.596-2.471t1.567-1.902T9.5 2.149t2.498-.435 2.498.435 2.196 1.192 1.567 1.902.596 2.471z"/></svg>