<svg xmlns="http://www.w3.org/2000/svg" width="24" height="24" viewBox="0 0 24 24"><path d="M3.429 17.571v2.571q0 .174-.127.301t-.301.127H.43q-.174 0-.301-.127t-.127-.301v-2.571q0-.174.127-.301t.301-.127h2.571q.174 0 .301.127t.127.301zm0-5.142V15q0 .174-.127.301t-.301.127H.43q-.174 0-.301-.127T.002 15v-2.571q0-.174.127-.301t.301-.127h2.571q.174 0 .301.127t.127.301zm0-5.143v2.571q0 .174-.127.301t-.301.127H.43q-.174 0-.301-.127t-.127-.301V7.286q0-.174.127-.301t.301-.127h2.571q.174 0 .301.127t.127.301zM24 17.571v2.571q0 .174-.127.301t-.301.127h-18q-.174 0-.301-.127t-.127-.301v-2.571q0-.174.127-.301t.301-.127h18q.174 0 .301.127t.127.301zM3.429 2.143v2.571q0 .174-.127.301t-.301.127H.43q-.174 0-.301-.127t-.127-.301V2.143q0-.174.127-.301t.301-.127h2.571q.174 0 .301.127t.127.301zM24 12.429V15q0 .174-.127.301t-.301.127h-18q-.174 0-.301-.127T5.144 15v-2.571q0-.174.127-.301t.301-.127h18q.174 0 .301.127t.127.301zm0-5.143v2.571q0 .174-.127.301t-.301.127h-18q-.174 0-.301-.127t-.127-.301V7.286q0-.174.127-.301t.301-.127h18q.174 0 .301.127t.127.301zm0-5.143v2.571q0 .174-.127.301t-.301.127h-18q-.174 0-.301-.127t-.127-.301V2.143q0-.174.127-.301t.301-.127h18q.174 0 .301.127t.127.301z"/></svg>