<svg xmlns="http://www.w3.org/2000/svg" width="24" height="24" viewBox="0 0 24 24"><path d="M22.286 18v1.714q0 .348-.254.603t-.603.254H2.572q-.348 0-.603-.254t-.254-.603V18q0-.348.254-.603t.603-.254h18.857q.348 0 .603.254t.254.603zm0-6.857v1.714q0 .348-.254.603t-.603.254H2.572q-.348 0-.603-.254t-.254-.603v-1.714q0-.348.254-.603t.603-.254h18.857q.348 0 .603.254t.254.603zm0-6.857V6q0 .348-.254.603t-.603.254H2.572q-.348 0-.603-.254T1.715 6V4.286q0-.348.254-.603t.603-.254h18.857q.348 0 .603.254t.254.603z"/></svg>