<svg xmlns="http://www.w3.org/2000/svg" width="24" height="24" viewBox="0 0 24 24"><path d="M13.714 18.429v-2.571q0-.188-.121-.308t-.308-.121h-2.571q-.188 0-.308.121t-.121.308v2.571q0 .188.121.308t.308.121h2.571q.188 0 .308-.121t.121-.308zm3.429-9q0-1.179-.743-2.183t-1.855-1.554-2.277-.549q-3.254 0-4.969 2.853-.201.321.107.563l1.768 1.339q.094.08.254.08.214 0 .335-.161.71-.911 1.152-1.232.455-.321 1.152-.321.643 0 1.145.348t.502.79q0 .509-.268.817t-.911.603q-.844.375-1.547 1.158t-.703 1.681v.482q0 .188.121.308t.308.121h2.571q.188 0 .308-.121t.121-.308q0-.254.288-.663t.73-.663q.429-.241.656-.382t.616-.469.596-.643.375-.81.167-1.085zM22.286 12q0 2.799-1.379 5.163t-3.743 3.743-5.163 1.379-5.163-1.379-3.743-3.743T1.716 12t1.379-5.163 3.743-3.743 5.163-1.379 5.163 1.379 3.743 3.743T22.286 12z"/></svg>