<svg xmlns="http://www.w3.org/2000/svg" width="24" height="24" viewBox="0 0 24 24"><path d="M13.5 16.071v2.143q0 .188-.121.308t-.308.121h-2.143q-.188 0-.308-.121t-.121-.308v-2.143q0-.188.121-.308t.308-.121h2.143q.188 0 .308.121t.121.308zm3.429-6.642q0 .67-.201 1.205t-.609.924-.696.589-.797.482q-.429.241-.623.375t-.348.321-.154.388v.429q0 .188-.121.308t-.308.121h-2.143q-.188 0-.308-.121t-.121-.308v-.911q0-.469.141-.864t.321-.636.522-.475.549-.342.596-.281q.71-.335 1.004-.576t.295-.656q0-.563-.583-.958t-1.279-.395q-.75 0-1.272.362-.388.268-1.071 1.112-.121.161-.335.161-.147 0-.254-.08L7.688 8.505q-.134-.094-.161-.268t.067-.308q1.634-2.571 4.674-2.571 1.728 0 3.194 1.199t1.467 2.873zm-4.929-6q-1.741 0-3.328.683T5.94 5.94 4.112 8.672 3.429 12t.683 3.328T5.94 18.06t2.732 1.828 3.328.683 3.328-.683 2.732-1.828 1.828-2.732.683-3.328-.683-3.328T18.06 5.94t-2.732-1.828T12 3.429zM22.286 12q0 2.799-1.379 5.163t-3.743 3.743-5.163 1.379-5.163-1.379-3.743-3.743T1.716 12t1.379-5.163 3.743-3.743 5.163-1.379 5.163 1.379 3.743 3.743T22.286 12z"/></svg>