<svg xmlns="http://www.w3.org/2000/svg" width="24" height="24" viewBox="0 0 24 24"><path d="M11.143 5.143v9.429q0 1.393-.542 2.658t-1.467 2.19-2.19 1.467-2.658.542h-.857q-.348 0-.603-.254t-.254-.603v-1.714q0-.348.254-.603t.603-.254h.857q1.42 0 2.424-1.004t1.004-2.424v-.429q0-.536-.375-.911t-.911-.375h-3q-1.071 0-1.821-.75t-.75-1.821V5.144q0-1.071.75-1.821t1.821-.75h5.143q1.071 0 1.821.75t.75 1.821zm12 0v9.429q0 1.393-.542 2.658t-1.467 2.19-2.19 1.467-2.658.542h-.857q-.348 0-.603-.254t-.254-.603v-1.714q0-.348.254-.603t.603-.254h.857q1.42 0 2.424-1.004t1.004-2.424v-.429q0-.536-.375-.911t-.911-.375h-3q-1.071 0-1.821-.75t-.75-1.821V5.144q0-1.071.75-1.821t1.821-.75h5.143q1.071 0 1.821.75t.75 1.821z"/></svg>