<svg xmlns="http://www.w3.org/2000/svg" width="24" height="24" viewBox="0 0 24 24"><path d="M24 15q0 2.223-1.701 6.04-.04.094-.141.321t-.181.402-.174.295q-.161.228-.375.228-.201 0-.315-.134t-.114-.335q0-.121.033-.355t.033-.315q.067-.911.067-1.647 0-1.353-.234-2.424t-.65-1.855-1.071-1.353-1.413-.931-1.781-.569-2.063-.288-2.35-.08h-3v3.429q0 .348-.254.603t-.603.254-.603-.254L.253 9.175q-.254-.254-.254-.603t.254-.603L7.11 1.112q.254-.254.603-.254t.603.254.254.603v3.429h3q9.549 0 11.719 5.397.71 1.795.71 4.46z"/></svg>