<svg xmlns="http://www.w3.org/2000/svg" width="24" height="24" viewBox="0 0 24 24"><path d="M17.397 8.424q0-1.339-.871-2.17t-2.29-.83H9.95v6h4.286q1.42 0 2.29-.83t.871-2.17zm3.174 0q0 2.585-1.694 4.219t-4.373 1.634H9.95v1.58h6.763q.188 0 .308.121t.121.308V18q0 .188-.121.308t-.308.121H9.95V21q0 .188-.127.308t-.301.121H7.285q-.188 0-.308-.121T6.856 21v-2.571h-3q-.188 0-.308-.121T3.427 18v-1.714q0-.188.121-.308t.308-.121h3v-1.58h-3q-.188 0-.308-.121t-.121-.308v-1.996q0-.174.121-.301t.308-.127h3V3q0-.188.121-.308t.308-.121h7.219q2.679 0 4.373 1.634t1.694 4.219z"/></svg>