<svg xmlns="http://www.w3.org/2000/svg" width="24" height="24" viewBox="0 0 24 24"><path d="M9.571 19.286q0 .054.013.268t.007.355-.04.315-.134.261-.275.087H4.856q-1.594 0-2.725-1.132T.999 16.715V7.286q0-1.594 1.132-2.725t2.725-1.132h4.286q.174 0 .301.127t.127.301q0 .054.013.268t.007.355-.04.315-.134.261-.275.087H4.855q-.884 0-1.513.629t-.629 1.513v9.429q0 .884.629 1.513t1.513.629h4.179l.154.013.154.04.107.074.094.121.027.181zM22 12q0 .348-.254.603l-7.286 7.286q-.254.254-.603.254t-.603-.254-.254-.603v-3.857H7q-.348 0-.603-.254t-.254-.603V9.429q0-.348.254-.603T7 8.572h6V4.715q0-.348.254-.603t.603-.254.603.254l7.286 7.286q.254.254.254.603z"/></svg>