<svg xmlns="http://www.w3.org/2000/svg" width="24" height="24" viewBox="0 0 24 24"><path d="M16.902 14.397q-.496 1.621-1.848 2.612T12 18t-3.054-.991-1.848-2.612q-.107-.335.054-.65t.509-.422q.335-.107.65.054t.422.509q.335 1.071 1.239 1.734t2.029.663 2.029-.663 1.239-1.734q.107-.348.429-.509t.656-.054.496.422.054.65zm-6.616-5.826q0 .71-.502 1.212t-1.212.502-1.212-.502-.502-1.212.502-1.212 1.212-.502 1.212.502.502 1.212zm6.857 0q0 .71-.502 1.212t-1.212.502-1.212-.502-.502-1.212.502-1.212 1.212-.502 1.212.502.502 1.212zM20.571 12q0-1.741-.683-3.328T18.06 5.94t-2.732-1.828T12 3.429t-3.328.683T5.94 5.94 4.112 8.672 3.429 12t.683 3.328T5.94 18.06t2.732 1.828 3.328.683 3.328-.683 2.732-1.828 1.828-2.732.683-3.328zm1.715 0q0 2.799-1.379 5.163t-3.743 3.743-5.163 1.379-5.163-1.379-3.743-3.743T1.716 12t1.379-5.163 3.743-3.743 5.163-1.379 5.163 1.379 3.743 3.743T22.286 12z"/></svg>