<svg xmlns="http://www.w3.org/2000/svg" width="24" height="24" viewBox="0 0 24 24"><path d="M9.857 19.286q0 .161-.134.321l-4.272 4.272Q5.317 24 5.143 24q-.161 0-.308-.121L.549 19.593q-.201-.214-.094-.469.107-.268.402-.268h2.571V.427q0-.188.121-.308t.308-.121h2.571q.188 0 .308.121t.121.308v18.429h2.571q.188 0 .308.121t.121.308zM24 21v2.571q0 .188-.121.308t-.308.121H12.428q-.188 0-.308-.121t-.121-.308V21q0-.188.121-.308t.308-.121h11.143q.188 0 .308.121T24 21zm-2.571-6.857v2.571q0 .188-.121.308t-.308.121h-8.571q-.188 0-.308-.121T12 16.714v-2.571q0-.188.121-.308t.308-.121H21q.188 0 .308.121t.121.308zm-2.572-6.857v2.571q0 .188-.121.308t-.308.121h-6q-.188 0-.308-.121t-.121-.308V7.286q0-.188.121-.308t.308-.121h6q.188 0 .308.121t.121.308zM16.286.429V3q0 .188-.121.308t-.308.121h-3.429q-.188 0-.308-.121T11.999 3V.429q0-.188.121-.308T12.428 0h3.429q.188 0 .308.121t.121.308z"/></svg>