<svg xmlns="http://www.w3.org/2000/svg" width="24" height="24" viewBox="0 0 24 24"><path d="M5.662 6.471q0-.67-.474-1.144t-1.144-.474-1.144.474-.474 1.144.474 1.144 1.144.474 1.144-.474.474-1.144zm13.485 7.279q0 .67-.468 1.137l-6.205 6.218q-.493.468-1.15.468-.67 0-1.137-.468l-9.036-9.049q-.48-.468-.815-1.276T.001 9.301V4.043q0-.657.48-1.137t1.137-.48h5.258q.67 0 1.479.335t1.289.815L18.68 12.6q.468.493.468 1.15zm4.853 0q0 .67-.468 1.137l-6.205 6.218q-.493.468-1.15.468-.455 0-.746-.177t-.67-.569l5.94-5.94q.468-.468.468-1.137 0-.657-.468-1.15l-9.036-9.024q-.48-.48-1.289-.815t-1.479-.335h2.831q.67 0 1.479.335t1.289.815l9.036 9.024q.468.493.468 1.15z"/></svg>