<svg xmlns="http://www.w3.org/2000/svg" width="24" height="24" viewBox="0 0 24 24"><path d="M13.714 18.857h8.571v-1.714h-8.571v1.714zM8.571 12h13.714v-1.714H8.571V12zm8.572-6.857h5.143V3.429h-5.143v1.714zM24 16.286v3.429q0 .348-.254.603t-.603.254H.857q-.348 0-.603-.254T0 19.715v-3.429q0-.348.254-.603t.603-.254h22.286q.348 0 .603.254t.254.603zm0-6.857v3.429q0 .348-.254.603t-.603.254H.857q-.348 0-.603-.254T0 12.858V9.429q0-.348.254-.603t.603-.254h22.286q.348 0 .603.254t.254.603zm0-6.858V6q0 .348-.254.603t-.603.254H.857q-.348 0-.603-.254T0 6V2.571q0-.348.254-.603t.603-.254h22.286q.348 0 .603.254t.254.603z"/></svg>