<svg xmlns="http://www.w3.org/2000/svg" width="24" height="24" viewBox="0 0 24 24"><path d="M21.375 5.089q.375.375.643 1.018t.268 1.179v15.429q0 .536-.375.911t-.911.375H3q-.536 0-.911-.375t-.375-.911V1.286q0-.536.375-.911T3 0h12q.536 0 1.179.268t1.018.643zm-5.946-3.268v5.036h5.036q-.134-.388-.295-.549l-4.192-4.192q-.161-.161-.549-.295zm5.142 20.465V8.572H15q-.536 0-.911-.375t-.375-.911V1.715H3.428v20.571h17.143zM6.857 10.714q0-.188.121-.308t.308-.121h9.429q.188 0 .308.121t.121.308v.857q0 .188-.121.308t-.308.121H7.286q-.188 0-.308-.121t-.121-.308v-.857zm9.857 3q.188 0 .308.121t.121.308V15q0 .188-.121.308t-.308.121H7.285q-.188 0-.308-.121T6.856 15v-.857q0-.188.121-.308t.308-.121h9.429zm0 3.429q.188 0 .308.121t.121.308v.857q0 .188-.121.308t-.308.121H7.285q-.188 0-.308-.121t-.121-.308v-.857q0-.188.121-.308t.308-.121h9.429z"/></svg>