<svg xmlns="http://www.w3.org/2000/svg" width="24" height="24" viewBox="0 0 24 24"><path d="M19.955 16.848q0 .536-.375.911l-1.821 1.821q-.375.375-.911.375t-.911-.375l-3.938-3.938-3.938 3.938q-.375.375-.911.375t-.911-.375l-1.821-1.821q-.375-.375-.375-.911t.375-.911l3.938-3.938-3.938-3.938q-.375-.375-.375-.911t.375-.911l1.821-1.821q.375-.375.911-.375t.911.375l3.938 3.938 3.938-3.938q.375-.375.911-.375t.911.375l1.821 1.821q.375.375.375.911t-.375.911l-3.938 3.938 3.938 3.938q.375.375.375.911z"/></svg>