<svg xmlns="http://www.w3.org/2000/svg" width="24" height="24" viewBox="0 0 24 24"><path d="M9.429 18.429V9q0-.188-.121-.308T9 8.571h-.857q-.187 0-.308.121T7.714 9v9.429q0 .188.121.308t.308.121H9q.188 0 .308-.121t.121-.308zm3.428 0V9q0-.188-.121-.308t-.308-.121h-.857q-.188 0-.308.121T11.142 9v9.429q0 .188.121.308t.308.121h.857q.188 0 .308-.121t.121-.308zm3.429 0V9q0-.188-.121-.308t-.308-.121H15q-.188 0-.308.121T14.571 9v9.429q0 .188.121.308t.308.121h.857q.187 0 .308-.121t.121-.308zM9 5.143h6l-.643-1.567q-.094-.121-.228-.147H9.883q-.134.027-.228.147zm12.429.428v.857q0 .188-.121.308T21 6.857h-1.286v12.696q0 1.112-.629 1.922t-1.513.81H6.429q-.884 0-1.513-.783t-.629-1.895V6.857H3.001q-.188 0-.308-.121t-.121-.308v-.857q0-.188.121-.308t.308-.121h4.138l.938-2.237q.201-.496.723-.844t1.058-.348h4.286q.536 0 1.058.348t.723.844l.938 2.237h4.138q.188 0 .308.121t.121.308z"/></svg>