<svg xmlns="http://www.w3.org/2000/svg" width="24" height="24" viewBox="0 0 24 24"><path d="M22.554 5.464q-.897 1.312-2.17 2.237.013.188.013.563 0 1.741-.509 3.475t-1.547 3.328-2.471 2.819-3.455 1.955-4.326.73q-3.629 0-6.643-1.942.469.054 1.045.054 3.013 0 5.371-1.848-1.406-.027-2.518-.864t-1.527-2.136q.442.067.817.067.576 0 1.138-.147-1.5-.308-2.484-1.493T2.304 9.51v-.054q.911.509 1.955.549-.884-.589-1.406-1.54t-.522-2.063q0-1.179.589-2.183 1.621 1.996 3.944 3.194t4.975 1.333q-.107-.509-.107-.991 0-1.795 1.266-3.06t3.06-1.266q1.875 0 3.161 1.366 1.46-.281 2.746-1.045-.496 1.54-1.902 2.384 1.246-.134 2.491-.67z"/></svg>