<svg xmlns="http://www.w3.org/2000/svg" width="24" height="24" viewBox="0 0 24 24"><path d="M18.964 8.665q.804 0 1.433.308 1.888.844 1.888 3.027v2.371q0 1.259-.308 2.491l-1.138 4.54q-.281 1.152-1.212 1.875T17.518 24H8.572q-1.42 0-2.424-1.004t-1.004-2.424v-5.371L1.943 6.79q-.228-.603-.228-1.219 0-1.42 1.004-2.424t2.424-1.004q1.071 0 1.949.609t1.252 1.6l.228.589V3.428q0-1.42 1.004-2.424T12 0t2.424 1.004 1.004 2.424v3.496q.362-.067.643-.067.924 0 1.708.489t1.185 1.319zm-2.893-.094q-.442 0-.81.241t-.556.643l-.991 2.183-.951 2.076h.737q.67 0 1.205.422t.67 1.078l2.062-4.527q.134-.268.134-.616 0-.616-.442-1.058t-1.058-.442zm2.96 1.808q-.295 0-.542.107t-.388.214-.315.395-.228.408-.228.496l-1.768 3.884q-.134.268-.134.616 0 .616.442 1.058t1.058.442q.442 0 .81-.241t.556-.643l2.143-4.714q.121-.241.121-.509 0-.67-.429-1.092t-1.098-.422zM3.429 5.571q0 .295.107.616l3.321 8.705v.924l1.366-1.487q.576-.616 1.42-.616h2.652l1.42-3.121V3.427q0-.71-.502-1.212t-1.212-.502-1.212.502-.502 1.212v8.571H9.43L6.751 4.953q-.188-.496-.629-.797t-.978-.301q-.71 0-1.212.502T3.43 5.569zm14.089 16.715q.589 0 1.051-.362t.609-.938l1.138-4.54q.254-.978.254-2.076v-1.219l-1.888 4.152q-.228.509-.71.817t-1.045.308q-.71 0-1.252-.462t-.65-1.158q-.589.763-1.527.763h-2.786v-.429h2.786q.616 0 1.085-.442t.469-1.058-.415-1.058-1.031-.442H9.642q-.656 0-1.098.482l-1.688 1.821v4.125q0 .71.502 1.212t1.212.502h8.946z"/></svg>