<svg xmlns="http://www.w3.org/2000/svg" width="24" height="24" viewBox="0 0 24 24"><path d="M18 20.143q0-.348-.254-.603t-.603-.254-.603.254-.254.603.254.603.603.254.603-.254.254-.603zm3.429 0q0-.348-.254-.603t-.603-.254-.603.254-.254.603.254.603.603.254.603-.254.254-.603zm1.714-3v4.286q0 .536-.375.911t-.911.375H2.143q-.536 0-.911-.375t-.375-.911v-4.286q0-.536.375-.911t.911-.375h5.719q.281.75.944 1.232t1.48.482h3.429q.817 0 1.48-.482t.944-1.232h5.719q.536 0 .911.375t.375.911zM18.79 8.464Q18.562 9 18 9h-3.429v6q0 .348-.254.603t-.603.254h-3.429q-.348 0-.603-.254T9.428 15V9H5.999q-.563 0-.79-.536-.228-.522.188-.924l6-6q.241-.254.603-.254t.603.254l6 6q.415.402.188.924z"/></svg>