<svg xmlns="http://www.w3.org/2000/svg" width="24" height="24" viewBox="0 0 24 24"><path d="M10.286 21.429l1.286-6-1.286-1.714-1.714-.857zm3.428 0l1.714-8.571-1.714.857-1.286 1.714zm2.143-13.527q-.027-.054-.054-.08-.134-.107-1.286-.107-.938 0-2.237.254-.094.027-.281.027t-.281-.027q-1.299-.254-2.237-.254-1.152 0-1.286.107-.027.027-.054.08.027.241.054.362.027.04.1.087t.1.141q.027.054.1.275t.094.275.1.228.114.228.121.188.161.181.188.127.234.107.275.054.328.027q.482 0 .79-.167t.435-.402.194-.462.154-.395.234-.167h.161q.147 0 .234.167t.154.395.194.462.435.402.79.167q.174 0 .328-.027t.275-.054.234-.107.188-.127.161-.181.121-.188.114-.228.1-.228.094-.275.1-.275q.027-.094.1-.141t.1-.087q.027-.121.054-.362zm5.572 11.772q0 1.621-.978 2.545t-2.598.924H6.148q-1.621 0-2.598-.924t-.978-2.545q0-.817.06-1.58t.254-1.681.502-1.654.85-1.386 1.252-.998L4.285 9.429h2.866q-.295-.857-.295-1.714 0-.161.027-.429Q4.285 6.75 4.285 6q0-.763 2.813-1.326.228-.83.69-1.795t.944-1.527Q9.161.856 9.75.856q.402 0 1.125.415T12 1.686t1.125-.415T14.25.856q.589 0 1.018.496.482.563.944 1.527t.69 1.795q2.813.563 2.813 1.326 0 .75-2.598 1.286.094 1.085-.268 2.143h2.866l-1.098 3.013q.844.442 1.44 1.292t.877 1.922.388 2.029.107 1.989z"/></svg>