<svg xmlns="http://www.w3.org/2000/svg" width="24" height="24" viewBox="0 0 24 24"><path d="M7.413 12q-2.025.063-3.313 1.6H2.425Q1.4 13.6.7 13.094T0 11.613q0-4.412 1.55-4.412.075 0 .544.262t1.219.531 1.488.269q.838 0 1.662-.288-.063.462-.063.825 0 1.738 1.012 3.2zM20.8 19.963q0 1.5-.912 2.369t-2.425.869H6.538q-1.512 0-2.425-.869t-.912-2.369q0-.663.044-1.294t.175-1.363.331-1.356.537-1.219.775-1.013 1.069-.669 1.394-.25q.125 0 .537.269t.912.6 1.338.6 1.688.269 1.688-.269 1.338-.6.912-.6.537-.269q.762 0 1.394.25t1.069.669.775 1.013.537 1.219.331 1.356.175 1.363.044 1.294zM8 4q0 1.325-.938 2.263t-2.263.938-2.263-.938T1.598 4t.938-2.263T4.799.8t2.263.937T8 4zm8.8 4.8q0 1.988-1.406 3.394T12 13.6t-3.394-1.406T7.2 8.8t1.406-3.394T12 4t3.394 1.406T16.8 8.8zm7.2 2.813q0 .975-.7 1.481t-1.725.506H19.9q-1.287-1.538-3.313-1.6Q17.6 10.537 17.6 8.8q0-.362-.063-.825.825.288 1.662.288.737 0 1.488-.269t1.219-.531.544-.263Q24 7.2 24 11.612zM22.4 4q0 1.325-.938 2.263t-2.263.938-2.263-.938T15.998 4t.938-2.263T19.199.8t2.263.937T22.4 4z"/></svg>