<svg xmlns="http://www.w3.org/2000/svg" width="24" height="24" viewBox="0 0 24 24"><path d="M8.25 12q-1.863 0-3.182-1.318T3.75 7.5t1.318-3.182T8.25 3t3.182 1.318T12.75 7.5t-1.318 3.182T8.25 12zm11.25 1.5h4.125q.152 0 .264.111t.111.264v2.25q0 .152-.111.264t-.264.111H19.5v4.125q0 .152-.111.264t-.264.111h-2.25q-.152 0-.264-.111t-.111-.264V16.5h-4.125q-.152 0-.264-.111T12 16.125v-2.25q0-.152.111-.264t.264-.111H16.5V9.375q0-.152.111-.264T16.875 9h2.25q.152 0 .264.111t.111.264V13.5zm-8.625 2.625q0 .609.445 1.055t1.055.445h3v2.789q-.797.586-2.004.586H3.129q-1.418 0-2.273-.809t-.855-2.227q0-.621.041-1.213t.164-1.277.311-1.271.504-1.143.727-.949 1.002-.627 1.307-.234q.223 0 .457.199.926.715 1.811 1.072t1.928.357 1.928-.357 1.811-1.072q.234-.199.457-.199 1.547 0 2.543 1.125h-2.613q-.609 0-1.055.445t-.445 1.055v2.25z"/></svg>