<svg xmlns="http://www.w3.org/2000/svg" width="24" height="24" viewBox="0 0 24 24"><path d="M23.716 6.195q.284.791-1.855 3.635-.297.396-.804 1.051-.964 1.236-1.113 1.62-.21.507.173 1.002.21.26 1.002 1.014h.012l.049.049q1.743 1.62 2.362 2.733.037.062.08.155t.087.328-.006.42-.309.34-.73.155l-3.165.049q-.297.062-.692-.062t-.643-.272l-.247-.148q-.371-.26-.866-.791t-.847-.958-.754-.717-.699-.192q-.037.012-.099.043t-.21.179-.266.365-.21.643-.08.958q0 .185-.043.34t-.093.229l-.049.062q-.223.235-.655.272h-1.422q-.878.049-1.805-.204t-1.626-.655-1.274-.816-.872-.711l-.309-.297q-.124-.124-.34-.371t-.884-1.125-1.311-1.867-1.515-2.609T.074 6.679Q0 6.481 0 6.345t.037-.198l.049-.074q.185-.235.705-.235l3.388-.025q.148.025.284.08t.198.105l.062.037q.198.136.297.396.247.618.569 1.28t.507 1.008l.198.359q.359.742.692 1.286t.6.847.513.476.42.173.334-.062q.025-.012.062-.062t.148-.272.167-.581.117-1.002 0-1.546q-.025-.495-.111-.903t-.173-.569l-.074-.148q-.309-.42-1.051-.532-.161-.025.062-.297.21-.235.47-.371.655-.321 2.955-.297 1.014.012 1.669.161.247.062.414.167t.253.297.13.396.043.563-.012.68-.031.872-.019 1.02q0 .136-.012.519t-.006.594.043.501.142.482.278.303q.099.025.21.049t.321-.136.47-.427.643-.828.841-1.329q.742-1.286 1.323-2.782.049-.124.124-.216t.136-.13l.049-.037.062-.031.161-.037.247-.006 3.561-.025q.482-.062.791.031t.383.204z"/></svg>