<svg xmlns="http://www.w3.org/2000/svg" width="24" height="24" viewBox="0 0 24 24"><path d="M16 12v4a1 1 0 0 1-1 1c-.17 0-.33 0-.94-.5-.62-.5-1.67-1.5-2.75-2-1-.46-2.03-.5-3.05-.5l1.21 3.32.03.18a.5.5 0 0 1-.5.5H7c-.22 0-.41-.14-.47-.34L5.19 14H5a1 1 0 0 1-1-1 2 2 0 0 1-2-2 2 2 0 0 1 2-2 1 1 0 0 1 1-1h3c1.11 0 2.22 0 3.31-.5 1.08-.5 2.13-1.5 2.75-2 .61-.5.77-.5.94-.5a1 1 0 0 1 1 1v4a1 1 0 0 1 1 1 1 1 0 0 1-1 1m5-1c0 1.38-.56 2.63-1.46 3.54l-1.42-1.42a2.993 2.993 0 0 0 0-4.24l1.42-1.42C20.44 8.37 21 9.62 21 11z"/></svg>